<svg width="40" height="46" viewBox="0 0 40 46" fill="none" xmlns="http://www.w3.org/2000/svg">
<path d="M13.0685 10.3885H13.0592C12.882 10.3885 12.7121 10.4589 12.5868 10.5842C12.4615 10.7095 12.3911 10.8795 12.3911 11.0567C12.3911 11.2339 12.4615 11.4038 12.5868 11.5291C12.7121 11.6544 12.882 11.7248 13.0592 11.7248H13.0685C13.2457 11.7248 13.4156 11.6544 13.5409 11.5291C13.6662 11.4038 13.7366 11.2339 13.7366 11.0567C13.7366 10.8795 13.6662 10.7095 13.5409 10.5842C13.4156 10.4589 13.2457 10.3885 13.0685 10.3885ZM15.8429 17.4264H15.8337C15.6565 17.4264 15.4866 17.4968 15.3613 17.6221C15.236 17.7474 15.1656 17.9173 15.1656 18.0945C15.1656 18.2717 15.236 18.4417 15.3613 18.567C15.4866 18.6923 15.6565 18.7627 15.8337 18.7627H15.8429C16.0201 18.7627 16.1901 18.6923 16.3154 18.567C16.4407 18.4417 16.5111 18.2717 16.5111 18.0945C16.5111 17.9173 16.4407 17.7474 16.3154 17.6221C16.1901 17.4968 16.0201 17.4264 15.8429 17.4264ZM13.0685 17.4264H13.0592C12.882 17.4264 12.7121 17.4968 12.5868 17.6221C12.4615 17.7474 12.3911 17.9173 12.3911 18.0945C12.3911 18.2717 12.4615 18.4417 12.5868 18.567C12.7121 18.6923 12.882 18.7627 13.0592 18.7627H13.0685C13.2457 18.7627 13.4156 18.6923 13.5409 18.567C13.6662 18.4417 13.7366 18.2717 13.7366 18.0945C13.7366 17.9173 13.6662 17.7474 13.5409 17.6221C13.4156 17.4968 13.2457 17.4264 13.0685 17.4264ZM15.8429 10.3885H15.8337C15.6565 10.3885 15.4866 10.4589 15.3613 10.5842C15.236 10.7095 15.1656 10.8795 15.1656 11.0567C15.1656 11.2339 15.236 11.4038 15.3613 11.5291C15.4866 11.6544 15.6565 11.7248 15.8337 11.7248H15.8429C16.0201 11.7248 16.1901 11.6544 16.3154 11.5291C16.4407 11.4038 16.5111 11.2339 16.5111 11.0567C16.5111 10.8795 16.4407 10.7095 16.3154 10.5842C16.1901 10.4589 16.0201 10.3885 15.8429 10.3885ZM10.2895 14.071C10.4221 14.0714 10.5517 14.0325 10.6622 13.9592C10.7726 13.8859 10.8588 13.7815 10.9098 13.6592C10.9609 13.5369 10.9746 13.4022 10.9491 13.2721C10.9236 13.142 10.8602 13.0224 10.7667 12.9285C10.6733 12.8345 10.5541 12.7703 10.4242 12.7441C10.2942 12.7178 10.1595 12.7307 10.0369 12.7811C9.91427 12.8314 9.80937 12.917 9.73541 13.027C9.66146 13.137 9.62178 13.2664 9.62139 13.3989V13.4068C9.62146 13.4943 9.63882 13.581 9.67247 13.6618C9.70612 13.7426 9.7554 13.816 9.81748 13.8777C9.87956 13.9394 9.95322 13.9883 10.0342 14.0214C10.1152 14.0546 10.202 14.0715 10.2895 14.071ZM10.2895 16.4166C10.4221 16.417 10.5517 16.3781 10.6622 16.3047C10.7726 16.2314 10.8588 16.127 10.9098 16.0047C10.9609 15.8824 10.9746 15.7477 10.9491 15.6177C10.9236 15.4876 10.8602 15.368 10.7667 15.274C10.6733 15.18 10.5541 15.1159 10.4242 15.0896C10.2942 15.0634 10.1595 15.0763 10.0369 15.1266C9.91427 15.177 9.80937 15.2626 9.73541 15.3726C9.66146 15.4825 9.62178 15.612 9.62139 15.7445V15.7524C9.62146 15.8399 9.63882 15.9266 9.67247 16.0074C9.70612 16.0882 9.7554 16.1616 9.81748 16.2233C9.87956 16.285 9.95322 16.3338 10.0342 16.367C10.1152 16.4002 10.202 16.417 10.2895 16.4166ZM10.2895 10.3885C10.2018 10.3885 10.1149 10.4058 10.0338 10.4394C9.95278 10.473 9.87912 10.5222 9.81707 10.5842C9.75503 10.6463 9.70581 10.7199 9.67224 10.801C9.63866 10.8821 9.62138 10.9689 9.62139 11.0567V11.0611C9.62205 11.1934 9.66189 11.3225 9.73588 11.4321C9.80986 11.5418 9.91468 11.627 10.0371 11.6771C10.1595 11.7272 10.294 11.74 10.4236 11.7137C10.5533 11.6874 10.6722 11.6233 10.7654 11.5294C10.8586 11.4356 10.922 11.3162 10.9474 11.1864C10.9728 11.0566 10.9592 10.9222 10.9083 10.8001C10.8574 10.6781 10.7714 10.5738 10.6613 10.5006C10.5512 10.4273 10.4218 10.3883 10.2895 10.3885ZM18.6174 17.4264H18.6082C18.431 17.4264 18.261 17.4968 18.1357 17.6221C18.0104 17.7474 17.94 17.9173 17.94 18.0945C17.94 18.2717 18.0104 18.4417 18.1357 18.567C18.261 18.6923 18.431 18.7627 18.6082 18.7627H18.6174C18.7946 18.7627 18.9646 18.6923 19.0899 18.567C19.2152 18.4417 19.2856 18.2717 19.2856 18.0945C19.2856 17.9173 19.2152 17.7474 19.0899 17.6221C18.9646 17.4968 18.7946 17.4264 18.6174 17.4264H18.6174ZM10.2895 17.4242C10.1122 17.4244 9.94216 17.495 9.81682 17.6205C9.69148 17.746 9.62108 17.9161 9.62108 18.0934C9.62108 18.2708 9.69148 18.4409 9.81682 18.5664C9.94216 18.6919 10.1122 18.7625 10.2895 18.7627H10.294C10.4711 18.7616 10.6406 18.6903 10.7653 18.5644C10.8899 18.4385 10.9596 18.2684 10.959 18.0912C10.9584 17.9141 10.8876 17.7444 10.7621 17.6194C10.6366 17.4943 10.4667 17.4242 10.2895 17.4242ZM21.3918 10.3885H21.3826C21.2054 10.3885 21.0354 10.4589 20.9101 10.5842C20.7848 10.7095 20.7144 10.8795 20.7144 11.0567C20.7144 11.2339 20.7848 11.4038 20.9101 11.5291C21.0354 11.6544 21.2054 11.7248 21.3826 11.7248H21.3918C21.569 11.7248 21.739 11.6544 21.8643 11.5291C21.9896 11.4038 22.06 11.2339 22.06 11.0567C22.06 10.8795 21.9896 10.7095 21.8643 10.5842C21.739 10.4589 21.569 10.3885 21.3918 10.3885ZM29.7105 17.4242C29.5328 17.4245 29.3624 17.4952 29.2368 17.6209C29.1111 17.7465 29.0404 17.9168 29.0401 18.0945C29.0403 18.2719 29.1109 18.4419 29.2364 18.5673C29.3619 18.6926 29.532 18.763 29.7094 18.763C29.8867 18.763 30.0568 18.6926 30.1823 18.5673C30.3078 18.4419 30.3784 18.2719 30.3786 18.0945V18.0901C30.3786 18.0025 30.3612 17.9157 30.3276 17.8348C30.294 17.7539 30.2448 17.6804 30.1827 17.6185C30.1206 17.5567 30.047 17.5077 29.9659 17.4743C29.8849 17.441 29.7981 17.4239 29.7105 17.4242ZM29.7105 15.0802C29.5779 15.0798 29.4482 15.1187 29.3378 15.192C29.2274 15.2654 29.1412 15.3698 29.0902 15.4921C29.0391 15.6144 29.0254 15.7491 29.0509 15.8791C29.0764 16.0092 29.1398 16.1288 29.2333 16.2228C29.3267 16.3167 29.4459 16.3809 29.5758 16.4072C29.7058 16.4334 29.8405 16.4205 29.9631 16.3702C30.0857 16.3198 30.1906 16.2342 30.2646 16.1242C30.3385 16.0142 30.3782 15.8848 30.3786 15.7523V15.7444C30.3785 15.6569 30.3612 15.5702 30.3275 15.4894C30.2939 15.4086 30.2446 15.3352 30.1825 15.2735C30.1204 15.2118 30.0468 15.163 29.9658 15.1298C29.8848 15.0966 29.798 15.0798 29.7105 15.0802ZM29.7105 12.7346C29.5779 12.7342 29.4482 12.7732 29.3378 12.8465C29.2274 12.9198 29.1412 13.0242 29.0902 13.1465C29.0391 13.2688 29.0254 13.4035 29.0509 13.5335C29.0764 13.6636 29.1398 13.7832 29.2333 13.8772C29.3267 13.9712 29.4459 14.0353 29.5758 14.0616C29.7058 14.0878 29.8405 14.0749 29.9631 14.0246C30.0857 13.9742 30.1906 13.8886 30.2646 13.7787C30.3385 13.6687 30.3782 13.5392 30.3786 13.4067V13.3989C30.3785 13.3113 30.3612 13.2247 30.3275 13.1438C30.2939 13.063 30.2446 12.9897 30.1825 12.9279C30.1204 12.8662 30.0468 12.8174 29.9658 12.7842C29.8848 12.751 29.798 12.7342 29.7105 12.7346ZM29.7105 10.3885H29.706C29.5284 10.3891 29.3583 10.4602 29.233 10.586C29.1078 10.7119 29.0376 10.8824 29.0379 11.06C29.0382 11.2376 29.1089 11.4078 29.2346 11.5333C29.3603 11.6588 29.5306 11.7293 29.7082 11.7293C29.8858 11.7293 30.0562 11.6588 30.1819 11.5333C30.3076 11.4078 30.3783 11.2376 30.3786 11.06C30.3789 10.8824 30.3087 10.7119 30.1834 10.586C30.0582 10.4602 29.8881 10.3891 29.7105 10.3885ZM39.9966 39.9778C39.9954 39.9652 39.9931 39.9531 39.9911 39.9408C39.9897 39.9316 39.9888 39.9224 39.9869 39.9131C39.9821 39.8892 39.976 39.8655 39.9686 39.8422L34.6609 22.5921L35.7085 5.34521H36.1067C36.2973 5.34521 36.4851 5.29992 36.6547 5.21309C36.8243 5.12625 36.9709 5.00035 37.0823 4.84576C37.1937 4.69117 37.2668 4.51231 37.2956 4.32394C37.3243 4.13556 37.3079 3.94304 37.2476 3.76226L36.3489 1.06591C36.2456 0.755355 36.0472 0.485226 35.7817 0.293883C35.5161 0.102541 35.1971 -0.000287509 34.8698 6.03792e-07H5.13017C4.80288 -0.000286891 4.48383 0.102552 4.21832 0.293912C3.95281 0.485271 3.75434 0.755423 3.6511 1.066L2.75249 3.76209C2.69219 3.94287 2.67571 4.1354 2.70443 4.3238C2.73314 4.5122 2.80622 4.69107 2.91763 4.84569C3.02905 5.0003 3.17561 5.12622 3.34525 5.21307C3.51488 5.29992 3.70273 5.34521 3.8933 5.34521H4.2915L5.33909 22.5921L0.0313829 39.8422C0.0239762 39.8655 0.0178697 39.8892 0.0130915 39.9131C0.0112207 39.9224 0.0103297 39.9316 0.00887226 39.9408C0.00693641 39.9531 0.00463092 39.9652 0.00339083 39.9778C0.000959091 40.0018 -0.000166244 40.0258 1.97964e-05 40.0499V44.0534C0.000491369 44.4667 0.164896 44.863 0.457167 45.1553C0.749437 45.4476 1.14571 45.612 1.55904 45.6124H38.441C38.8543 45.612 39.2506 45.4476 39.5428 45.1553C39.8351 44.863 39.9995 44.4667 40 44.0534V40.0499C40.0002 40.0258 39.999 40.0018 39.9966 39.9778ZM38.4272 39.3764H35.8164L32.2036 27.6348L33.8326 24.4438L38.4272 39.3764ZM32.8954 23.3407L31.0762 26.9043H8.92401L7.10467 23.3407H32.8954ZM6.64218 22.0044L5.6303 5.3452H17.0267C17.1786 6.02039 17.5557 6.62378 18.0961 7.05613C18.6365 7.48847 19.3079 7.72401 20 7.72401C20.6921 7.72401 21.3635 7.48847 21.9039 7.05613C22.4443 6.62378 22.8214 6.02039 22.9733 5.3452H34.3697L33.3578 22.0044H6.64218ZM9.00839 28.2406H30.9919L34.4183 39.3764H22.3789C22.2912 39.3763 22.2043 39.3936 22.1232 39.4272C22.0421 39.4608 21.9685 39.51 21.9064 39.572C21.8444 39.6341 21.7952 39.7077 21.7616 39.7888C21.728 39.8699 21.7107 39.9568 21.7107 40.0445C21.7107 40.4982 21.5305 40.9334 21.2097 41.2542C20.8889 41.575 20.4537 41.7552 20 41.7552C19.5463 41.7552 19.1111 41.575 18.7903 41.2542C18.4695 40.9334 18.2893 40.4982 18.2893 40.0445C18.2893 39.9568 18.272 39.8699 18.2384 39.7888C18.2048 39.7077 18.1556 39.6341 18.0936 39.572C18.0315 39.51 17.9579 39.4608 17.8768 39.4272C17.7957 39.3936 17.7089 39.3763 17.6211 39.3764H5.58175L9.00839 28.2406ZM4.07878 4.0089L4.91884 1.48855C4.93356 1.44427 4.96184 1.40574 4.99967 1.37843C5.03751 1.35111 5.08297 1.33639 5.12964 1.33634L5.13051 1.33639H34.8695L34.8704 1.33634C34.917 1.33639 34.9625 1.3511 35.0003 1.3784C35.0381 1.4057 35.0664 1.4442 35.0812 1.48846L35.9212 4.00891H22.3789C22.2912 4.0089 22.2043 4.02618 22.1232 4.05975C22.0421 4.09333 21.9685 4.14254 21.9064 4.20459C21.8444 4.26663 21.7952 4.34029 21.7616 4.42136C21.728 4.50242 21.7107 4.58931 21.7107 4.67706C21.7107 5.13077 21.5305 5.56591 21.2097 5.88673C20.8889 6.20756 20.4537 6.3878 20 6.3878C19.5463 6.3878 19.1111 6.20756 18.7903 5.88673C18.4695 5.56591 18.2893 5.13077 18.2893 4.67706C18.2893 4.58931 18.272 4.50242 18.2384 4.42136C18.2048 4.34029 18.1556 4.26663 18.0936 4.20459C18.0315 4.14254 17.9579 4.09333 17.8768 4.05975C17.7957 4.02618 17.7089 4.0089 17.6211 4.00891L4.07878 4.0089ZM6.16745 24.4437L7.79667 27.6349L4.18366 39.3764H1.57278L6.16745 24.4437ZM38.6637 44.0534C38.6636 44.1125 38.6401 44.1691 38.5984 44.2108C38.5566 44.2526 38.5 44.2761 38.441 44.2761H1.55904C1.49999 44.2761 1.44337 44.2526 1.40161 44.2108C1.35986 44.1691 1.33638 44.1125 1.33632 44.0534V40.7127H4.67383C4.67499 40.7127 4.67616 40.7129 4.67734 40.7129C4.67842 40.7129 4.67949 40.7127 4.6806 40.7127H17.0267C17.1786 41.3878 17.5557 41.9912 18.0961 42.4236C18.6365 42.8559 19.3079 43.0915 20 43.0915C20.6921 43.0915 21.3635 42.8559 21.9039 42.4236C22.4443 41.9912 22.8214 41.3878 22.9733 40.7127H35.3205L35.3227 40.7128L35.325 40.7127H38.6637V44.0534ZM24.1663 10.3885H24.1571C23.9799 10.3885 23.8099 10.4589 23.6846 10.5842C23.5593 10.7095 23.4889 10.8795 23.4889 11.0567C23.4889 11.2339 23.5593 11.4038 23.6846 11.5291C23.8099 11.6544 23.9799 11.7248 24.1571 11.7248H24.1663C24.3435 11.7248 24.5134 11.6544 24.6387 11.5291C24.764 11.4038 24.8344 11.2339 24.8344 11.0567C24.8344 10.8795 24.764 10.7095 24.6387 10.5842C24.5134 10.4589 24.3435 10.3885 24.1663 10.3885ZM24.1663 17.4264H24.1571C23.9799 17.4264 23.8099 17.4968 23.6846 17.6221C23.5593 17.7474 23.4889 17.9173 23.4889 18.0945C23.4889 18.2717 23.5593 18.4417 23.6846 18.567C23.8099 18.6923 23.9799 18.7627 24.1571 18.7627H24.1663C24.3435 18.7627 24.5134 18.6923 24.6387 18.567C24.764 18.4417 24.8344 18.2717 24.8344 18.0945C24.8344 17.9173 24.764 17.7474 24.6387 17.6221C24.5134 17.4968 24.3435 17.4264 24.1663 17.4264ZM21.3918 17.4264H21.3826C21.2054 17.4264 21.0354 17.4968 20.9101 17.6221C20.7848 17.7474 20.7144 17.9173 20.7144 18.0945C20.7144 18.2717 20.7848 18.4417 20.9101 18.567C21.0354 18.6923 21.2054 18.7627 21.3826 18.7627H21.3918C21.569 18.7627 21.739 18.6923 21.8643 18.567C21.9896 18.4417 22.06 18.2717 22.06 18.0945C22.06 17.9173 21.9896 17.7474 21.8643 17.6221C21.739 17.4968 21.569 17.4264 21.3918 17.4264ZM26.9408 17.4264H26.9315C26.7543 17.4264 26.5844 17.4968 26.4591 17.6221C26.3338 17.7474 26.2634 17.9173 26.2634 18.0945C26.2634 18.2717 26.3338 18.4417 26.4591 18.567C26.5844 18.6923 26.7543 18.7627 26.9315 18.7627H26.9408C27.118 18.7627 27.2879 18.6923 27.4132 18.567C27.5385 18.4417 27.6089 18.2717 27.6089 18.0945C27.6089 17.9173 27.5385 17.7474 27.4132 17.6221C27.2879 17.4968 27.118 17.4264 26.9408 17.4264ZM18.6174 10.3885H18.6082C18.431 10.3885 18.261 10.4589 18.1357 10.5842C18.0104 10.7095 17.94 10.8795 17.94 11.0567C17.94 11.2339 18.0104 11.4038 18.1357 11.5291C18.261 11.6544 18.431 11.7248 18.6082 11.7248H18.6174C18.7946 11.7248 18.9646 11.6544 19.0899 11.5291C19.2152 11.4038 19.2856 11.2339 19.2856 11.0567C19.2856 10.8795 19.2152 10.7095 19.0899 10.5842C18.9646 10.4589 18.7946 10.3885 18.6174 10.3885H18.6174ZM26.9408 10.3885H26.9315C26.7543 10.3885 26.5844 10.4589 26.4591 10.5842C26.3338 10.7095 26.2634 10.8795 26.2634 11.0567C26.2634 11.2339 26.3338 11.4038 26.4591 11.5291C26.5844 11.6544 26.7543 11.7248 26.9315 11.7248H26.9408C27.118 11.7248 27.2879 11.6544 27.4132 11.5291C27.5385 11.4038 27.6089 11.2339 27.6089 11.0567C27.6089 10.8795 27.5385 10.7095 27.4132 10.5842C27.2879 10.4589 27.118 10.3885 26.9408 10.3885Z" fill="url(#paint0_linear_1_1206)"/>
<path d="M10.9891 34.2986C9.07357 34.2986 7.46929 35.4069 7.08262 36.8802C7.08191 36.8822 7.08103 36.8838 7.08032 36.8859C7.06527 36.9332 7.05324 36.9886 7.04403 37.0486C7.01053 37.2192 6.99358 37.3927 6.99341 37.5665C6.99341 39.3685 8.78576 40.8345 10.9891 40.8345C13.1927 40.8345 14.9848 39.3686 14.9848 37.5665C14.9848 35.7645 13.1924 34.2986 10.9891 34.2986ZM10.9891 40.4442C9.36917 40.4442 7.99552 39.5869 7.54248 38.411C7.74444 38.5131 7.96039 38.4814 8.12925 38.4563C8.24855 38.4389 8.36122 38.4222 8.45246 38.4467C8.63788 38.4958 8.75673 38.7365 8.8717 38.9693C8.91684 39.0602 8.95941 39.1464 9.00711 39.2243C9.30466 39.7077 9.79868 39.8712 10.2653 39.6422C10.3417 39.6049 10.4116 39.5657 10.4787 39.5287C10.7257 39.3912 10.8743 39.308 11.158 39.3908C11.2944 39.4302 11.4236 39.4886 11.5604 39.5505C11.8164 39.6659 12.0806 39.785 12.4042 39.785C12.4261 39.785 12.4484 39.7844 12.4707 39.7833C12.986 39.7574 13.196 39.4756 13.3814 39.2272C13.4791 39.096 13.5715 38.9719 13.7098 38.8726C13.7868 38.8173 13.8927 38.8072 14.0154 38.7957C14.0943 38.7881 14.1821 38.7789 14.2707 38.7565C13.7025 39.7508 12.4456 40.4442 10.9891 40.4442ZM14.5399 38.0616C14.5318 38.0703 14.5246 38.0797 14.5183 38.0898C14.4235 38.2408 14.3195 38.3332 14.2004 38.3714C14.1362 38.3919 14.0595 38.3994 13.9786 38.4071C13.8221 38.4215 13.645 38.4384 13.4821 38.5554C13.2947 38.6902 13.1744 38.8513 13.0687 38.9937C12.8967 39.2241 12.783 39.3765 12.4512 39.3931C12.1903 39.4072 11.9628 39.3035 11.721 39.1944C11.5778 39.1297 11.4295 39.0629 11.2671 39.0155C10.8274 38.8879 10.5536 39.0401 10.289 39.1873C10.2276 39.2213 10.1633 39.257 10.0934 39.2918C9.68663 39.4909 9.43104 39.1678 9.33961 39.0196C9.30111 38.9571 9.26253 38.8789 9.22173 38.7965C9.08251 38.5147 8.90914 38.1638 8.55274 38.0696C8.38387 38.0242 8.21855 38.0487 8.07226 38.0703C7.85843 38.1017 7.74179 38.1133 7.63939 38.0007C7.44035 37.7823 7.38822 37.3827 7.42725 37.1193C7.69745 35.7442 9.19173 34.6889 10.9889 34.6889C12.9769 34.6889 14.5943 35.9797 14.5943 37.5665C14.5941 37.7331 14.5759 37.8991 14.5399 38.0616Z" fill="url(#paint1_linear_1_1206)"/>
<path d="M10.989 36.0513C10.2422 36.0513 9.67896 36.3841 9.67896 36.8256C9.67896 37.0883 9.87915 37.3116 10.1978 37.4506C10.3709 37.5393 10.612 37.5839 10.8495 37.5963L10.8537 37.5965C10.8992 37.5988 10.9445 37.6002 10.9889 37.6002C11.0336 37.6002 11.0788 37.5986 11.1244 37.5965C11.1257 37.5965 11.1269 37.5963 11.1282 37.5963C11.3657 37.584 11.6071 37.5394 11.7801 37.4505C12.0986 37.3118 12.299 37.0885 12.299 36.8258C12.299 36.3842 11.7358 36.0513 10.989 36.0513ZM10.989 37.2098C10.7562 37.2098 10.5589 37.1704 10.407 37.1134C10.5135 37.0687 10.7153 37.0208 10.989 37.0208C11.263 37.0208 11.4647 37.0688 11.5708 37.1132C11.4191 37.1704 11.2219 37.2098 10.989 37.2098ZM11.9022 36.8612C11.7103 36.6953 11.33 36.6305 10.989 36.6305C10.6481 36.6305 10.2675 36.6952 10.0755 36.8612C10.0717 36.8496 10.0696 36.8376 10.0693 36.8255C10.0693 36.669 10.4275 36.4415 10.989 36.4415C11.5503 36.4415 11.9086 36.6689 11.9086 36.8255C11.9082 36.8376 11.9061 36.8496 11.9022 36.8612Z" fill="url(#paint2_linear_1_1206)"/>
<path d="M9.00916 35.6544C8.97383 35.6165 8.92494 35.5943 8.87321 35.5924C8.82148 35.5906 8.77113 35.6093 8.73321 35.6445L8.06616 36.2649C8.03753 36.2916 8.0176 36.3263 8.00896 36.3645C8.00032 36.4027 8.00337 36.4427 8.01771 36.4791C8.03206 36.5156 8.05703 36.5469 8.08939 36.569C8.12175 36.591 8.16 36.6029 8.19918 36.6029C8.24688 36.6029 8.29441 36.5857 8.33202 36.5507L8.99907 35.9304C9.03701 35.8951 9.05939 35.8462 9.06128 35.7945C9.06317 35.7427 9.04442 35.6923 9.00916 35.6544Z" fill="url(#paint3_linear_1_1206)"/>
<path d="M9.03028 37.4582C9.01606 37.4369 8.99778 37.4186 8.97649 37.4043C8.9552 37.39 8.9313 37.3801 8.90618 37.3751C8.88105 37.3701 8.85518 37.3701 8.83004 37.3751C8.80491 37.38 8.781 37.3899 8.75969 37.4041C8.73837 37.4184 8.72007 37.4366 8.70581 37.4579C8.69156 37.4792 8.68165 37.5031 8.67663 37.5283C8.67161 37.5534 8.67159 37.5792 8.67657 37.6044C8.68155 37.6295 8.69144 37.6534 8.70566 37.6747L9.15047 38.342C9.1799 38.3833 9.22425 38.4115 9.27413 38.4207C9.32402 38.4298 9.37551 38.4192 9.41771 38.3911C9.4599 38.3629 9.48948 38.3195 9.50018 38.2699C9.51087 38.2203 9.50185 38.1685 9.47501 38.1255L9.03028 37.4582Z" fill="url(#paint4_linear_1_1206)"/>
<path d="M9.40869 36.4119L8.94379 36.5735C8.91958 36.5819 8.89726 36.595 8.87812 36.6121C8.85897 36.6291 8.84338 36.6498 8.83221 36.6728C8.82105 36.6959 8.81455 36.7209 8.81307 36.7465C8.81159 36.7721 8.81517 36.7978 8.8236 36.822C8.83688 36.8603 8.86175 36.8935 8.89477 36.917C8.9278 36.9405 8.96732 36.9532 9.00786 36.9532C9.02919 36.9532 9.05088 36.9496 9.07194 36.9421L9.53702 36.7805C9.58451 36.7625 9.62308 36.7266 9.64454 36.6805C9.666 36.6345 9.66866 36.5819 9.65195 36.5339C9.63524 36.4859 9.60049 36.4463 9.55507 36.4235C9.50965 36.4008 9.45714 36.3966 9.40869 36.4119Z" fill="url(#paint5_linear_1_1206)"/>
<path d="M11.4025 37.9274C11.3696 37.8875 11.3221 37.8623 11.2706 37.8573C11.2191 37.8524 11.1677 37.8681 11.1278 37.901C11.0879 37.934 11.0627 37.9814 11.0578 38.033C11.0528 38.0845 11.0686 38.1359 11.1015 38.1758L11.4855 38.6407C11.5017 38.6605 11.5218 38.6769 11.5444 38.6889C11.567 38.701 11.5918 38.7084 11.6173 38.7109C11.6428 38.7133 11.6686 38.7107 11.6931 38.7032C11.7176 38.6956 11.7403 38.6834 11.7601 38.667C11.8 38.634 11.8251 38.5866 11.83 38.5351C11.8349 38.4836 11.8192 38.4322 11.7863 38.3923L11.4025 37.9274Z" fill="url(#paint6_linear_1_1206)"/>
<path d="M13.5618 37.1103L12.8745 37.4975C12.8522 37.5101 12.8326 37.5269 12.8168 37.5471C12.801 37.5672 12.7893 37.5903 12.7824 37.6149C12.7755 37.6396 12.7736 37.6654 12.7767 37.6908C12.7798 37.7162 12.7879 37.7408 12.8005 37.7631C12.8131 37.7854 12.8299 37.805 12.85 37.8209C12.8701 37.8367 12.8932 37.8484 12.9178 37.8553C12.9425 37.8622 12.9683 37.8642 12.9937 37.8611C13.0191 37.8581 13.0437 37.85 13.066 37.8375L13.7533 37.4504C13.7985 37.425 13.8317 37.3827 13.8456 37.3328C13.8596 37.2829 13.8532 37.2296 13.8278 37.1844C13.8152 37.1621 13.7984 37.1424 13.7782 37.1266C13.758 37.1107 13.7349 37.099 13.7102 37.0921C13.6855 37.0852 13.6597 37.0833 13.6342 37.0864C13.6087 37.0895 13.5841 37.0976 13.5618 37.1103Z" fill="url(#paint7_linear_1_1206)"/>
<path d="M13.124 36.4524C13.1295 36.4777 13.14 36.5017 13.1549 36.5228C13.1698 36.544 13.1887 36.562 13.2106 36.5758C13.2325 36.5896 13.257 36.5989 13.2825 36.6032C13.308 36.6074 13.3341 36.6065 13.3593 36.6006C13.3845 36.5947 13.4083 36.5838 13.4292 36.5686C13.4502 36.5534 13.4679 36.5342 13.4813 36.512C13.4948 36.4899 13.5037 36.4654 13.5076 36.4398C13.5114 36.4142 13.5101 36.3881 13.5038 36.363L13.2816 35.4189C13.2757 35.3939 13.265 35.3704 13.2501 35.3496C13.2351 35.3288 13.2162 35.3111 13.1944 35.2976C13.1726 35.2842 13.1483 35.2751 13.123 35.271C13.0977 35.267 13.0718 35.2679 13.0469 35.2739C13.0219 35.2797 12.9984 35.2904 12.9776 35.3053C12.9568 35.3203 12.9391 35.3392 12.9257 35.361C12.9122 35.3828 12.9032 35.407 12.8991 35.4323C12.895 35.4576 12.896 35.4835 12.9019 35.5084L13.124 36.4524Z" fill="url(#paint8_linear_1_1206)"/>
<path d="M12.2517 35.0213L11.7318 35.3851C11.6897 35.415 11.6612 35.4602 11.6524 35.511C11.6436 35.5618 11.6553 35.6141 11.6848 35.6563C11.7144 35.6985 11.7595 35.7273 11.8103 35.7364C11.861 35.7455 11.9133 35.7342 11.9557 35.7048L12.4756 35.341C12.4967 35.3264 12.5148 35.3077 12.5287 35.286C12.5426 35.2644 12.5521 35.2402 12.5566 35.2149C12.5612 35.1896 12.5607 35.1636 12.5551 35.1385C12.5496 35.1134 12.5391 35.0896 12.5244 35.0685C12.5096 35.0475 12.4909 35.0295 12.4691 35.0157C12.4474 35.002 12.4232 34.9926 12.3978 34.9882C12.3725 34.9838 12.3465 34.9845 12.3215 34.9902C12.2964 34.9959 12.2726 35.0064 12.2517 35.0213Z" fill="url(#paint9_linear_1_1206)"/>
<path d="M9.88043 35.3364L10.4668 35.7812C10.4872 35.7968 10.5105 35.8081 10.5353 35.8146C10.56 35.8211 10.5859 35.8227 10.6112 35.8192C10.6366 35.8157 10.6611 35.8072 10.6832 35.7942C10.7052 35.7812 10.7246 35.764 10.74 35.7435C10.7555 35.7231 10.7668 35.6999 10.7733 35.6751C10.7798 35.6503 10.7814 35.6245 10.7779 35.5991C10.7744 35.5737 10.766 35.5493 10.7531 35.5272C10.7401 35.5051 10.723 35.4857 10.7025 35.4702L10.1161 35.0254C10.0747 34.9964 10.0237 34.9845 9.97378 34.9923C9.92384 35.0001 9.87888 35.027 9.84835 35.0673C9.81782 35.1076 9.80411 35.1581 9.81009 35.2083C9.81607 35.2585 9.84129 35.3044 9.88043 35.3364Z" fill="url(#paint10_linear_1_1206)"/>
<path d="M10.0673 38.0912L9.76419 38.3744C9.74543 38.3919 9.73031 38.4129 9.71968 38.4362C9.70905 38.4595 9.70313 38.4847 9.70226 38.5103C9.70139 38.5359 9.70558 38.5614 9.7146 38.5854C9.72362 38.6094 9.73728 38.6314 9.75481 38.6501C9.77304 38.6697 9.79512 38.6852 9.81965 38.6959C9.84418 38.7065 9.87065 38.712 9.89739 38.712C9.94509 38.712 9.99297 38.6947 10.0305 38.6595L10.3336 38.3764C10.3524 38.3589 10.3675 38.3379 10.3781 38.3146C10.3888 38.2912 10.3947 38.266 10.3956 38.2404C10.3964 38.2148 10.3922 38.1893 10.3832 38.1653C10.3742 38.1413 10.3605 38.1193 10.343 38.1006C10.3255 38.0818 10.3045 38.0667 10.2812 38.0561C10.2579 38.0455 10.2327 38.0396 10.2071 38.0387C10.1815 38.0378 10.156 38.042 10.132 38.051C10.108 38.06 10.086 38.0737 10.0673 38.0912Z" fill="url(#paint11_linear_1_1206)"/>
<path d="M11.8267 28.5078C10.2356 28.5078 8.90309 29.4284 8.58191 30.6522C8.58132 30.6539 8.58059 30.6552 8.58 30.6569C8.5675 30.6962 8.55751 30.7422 8.54986 30.7921C8.52204 30.9338 8.50796 31.0778 8.50781 31.2223C8.50781 32.719 9.99658 33.9367 11.8267 33.9367C13.6571 33.9367 15.1457 32.7191 15.1457 31.2223C15.1456 29.7255 13.6568 28.5078 11.8267 28.5078ZM11.8267 33.6125C10.4812 33.6125 9.34019 32.9004 8.96388 31.9237C9.13164 32.0085 9.31101 31.9822 9.45127 31.9613C9.55036 31.9469 9.64395 31.933 9.71974 31.9533C9.87375 31.9941 9.97247 32.1941 10.068 32.3874C10.1055 32.4629 10.1408 32.5345 10.1804 32.5992C10.4276 33.0007 10.8379 33.1366 11.2255 32.9463C11.289 32.9154 11.3471 32.8828 11.4028 32.8521C11.608 32.7379 11.7314 32.6688 11.967 32.7375C12.0803 32.7703 12.1876 32.8187 12.3013 32.8702C12.5139 32.966 12.7334 33.065 13.0021 33.065C13.0203 33.065 13.0388 33.0645 13.0574 33.0635C13.4854 33.0421 13.6599 32.808 13.8139 32.6016C13.895 32.4926 13.9717 32.3896 14.0866 32.3071C14.1505 32.2611 14.2385 32.2528 14.3404 32.2432C14.406 32.2369 14.4789 32.2293 14.5525 32.2106C14.0806 33.0365 13.0365 33.6125 11.8267 33.6125ZM14.7761 31.6335C14.7694 31.6407 14.7634 31.6485 14.7581 31.6569C14.6794 31.7823 14.593 31.8591 14.4941 31.8908C14.4408 31.9078 14.3771 31.914 14.3098 31.9204C14.1799 31.9324 14.0328 31.9464 13.8974 32.0436C13.7418 32.1556 13.6419 32.2894 13.5541 32.4077C13.4112 32.5991 13.3168 32.7257 13.0412 32.7394C12.8245 32.7512 12.6355 32.665 12.4347 32.5744C12.3158 32.5206 12.1925 32.4652 12.0577 32.4258C11.6924 32.3198 11.465 32.4462 11.2452 32.5685C11.1942 32.5967 11.1408 32.6264 11.0827 32.6553C10.7449 32.8207 10.5326 32.5523 10.4566 32.4292C10.4246 32.3773 10.3926 32.3123 10.3587 32.2439C10.2431 32.0098 10.0991 31.7184 9.80303 31.6401C9.66276 31.6024 9.52544 31.6228 9.40393 31.6407C9.22632 31.6668 9.12943 31.6764 9.04438 31.5828C8.87905 31.4015 8.83575 31.0696 8.86817 30.8507C9.0926 29.7086 10.3338 28.832 11.8266 28.832C13.4778 28.832 14.8213 29.9042 14.8213 31.2223C14.8212 31.3606 14.806 31.4984 14.7761 31.6335Z" fill="url(#paint12_linear_1_1206)"/>
<path d="M11.8268 29.9634C11.2065 29.9634 10.7386 30.2399 10.7386 30.6065C10.7386 30.8248 10.9049 31.0103 11.1696 31.1257C11.3134 31.1993 11.5137 31.2364 11.7109 31.2467L11.7145 31.2469C11.7522 31.2488 11.7899 31.25 11.8267 31.25C11.8638 31.25 11.9014 31.2487 11.9393 31.2469C11.9404 31.2469 11.9413 31.2467 11.9424 31.2467C12.1397 31.2365 12.3402 31.1994 12.4839 31.1256C12.7485 31.0104 12.9149 30.8249 12.9149 30.6068C12.9149 30.2399 12.4471 29.9634 11.8268 29.9634ZM11.8268 30.9257C11.6334 30.9257 11.4696 30.8929 11.3434 30.8456C11.4319 30.8085 11.5995 30.7687 11.8268 30.7687C12.0544 30.7687 12.2219 30.8086 12.31 30.8455C12.184 30.8929 12.0203 30.9257 11.8268 30.9257ZM12.5854 30.6361C12.4259 30.4983 12.11 30.4445 11.8268 30.4445C11.5436 30.4445 11.2275 30.4983 11.0681 30.6361C11.0649 30.6265 11.0631 30.6165 11.0628 30.6065C11.0628 30.4765 11.3604 30.2875 11.8268 30.2875C12.2931 30.2875 12.5906 30.4764 12.5906 30.6065C12.5903 30.6165 12.5886 30.6265 12.5854 30.6361Z" fill="url(#paint13_linear_1_1206)"/>
<path d="M10.1822 29.6341C10.1529 29.6027 10.1122 29.5842 10.0693 29.5826C10.0263 29.5811 9.98448 29.5967 9.95298 29.6259L9.39892 30.1412C9.37514 30.1634 9.35858 30.1922 9.35141 30.224C9.34423 30.2557 9.34676 30.2889 9.35868 30.3192C9.37059 30.3494 9.39134 30.3754 9.41822 30.3938C9.4451 30.4121 9.47687 30.4219 9.50941 30.422C9.54903 30.422 9.58851 30.4077 9.61975 30.3786L10.1738 29.8634C10.2053 29.8341 10.2239 29.7935 10.2255 29.7505C10.2271 29.7075 10.2115 29.6656 10.1822 29.6341Z" fill="url(#paint14_linear_1_1206)"/>
<path d="M10.1998 31.1322C10.188 31.1145 10.1729 31.0993 10.1552 31.0874C10.1375 31.0756 10.1176 31.0674 10.0968 31.0632C10.0759 31.059 10.0544 31.059 10.0335 31.0631C10.0126 31.0673 9.99279 31.0755 9.97508 31.0873C9.95738 31.0991 9.94217 31.1143 9.93033 31.132C9.9185 31.1497 9.91026 31.1695 9.90609 31.1904C9.90192 31.2113 9.90191 31.2328 9.90605 31.2536C9.91018 31.2745 9.91839 31.2944 9.9302 31.3121L10.2997 31.8663C10.3241 31.9006 10.361 31.924 10.4024 31.9317C10.4438 31.9393 10.4866 31.9305 10.5216 31.9071C10.5567 31.8837 10.5813 31.8476 10.5902 31.8064C10.599 31.7652 10.5915 31.7222 10.5692 31.6865L10.1998 31.1322Z" fill="url(#paint15_linear_1_1206)"/>
<path d="M10.5141 30.2629L10.1279 30.3972C10.1078 30.4041 10.0892 30.415 10.0733 30.4292C10.0574 30.4433 10.0445 30.4605 10.0352 30.4796C10.0259 30.4988 10.0205 30.5196 10.0193 30.5409C10.0181 30.5621 10.0211 30.5834 10.0281 30.6035C10.0391 30.6353 10.0598 30.6629 10.0872 30.6825C10.1146 30.702 10.1474 30.7125 10.1811 30.7125C10.1988 30.7125 10.2168 30.7095 10.2343 30.7033L10.6206 30.5691C10.6601 30.5541 10.6921 30.5243 10.7099 30.486C10.7278 30.4478 10.73 30.4041 10.7161 30.3642C10.7022 30.3244 10.6734 30.2915 10.6356 30.2726C10.5979 30.2537 10.5543 30.2502 10.5141 30.2629Z" fill="url(#paint16_linear_1_1206)"/>
<path d="M12.1702 31.5221C12.1428 31.4889 12.1034 31.468 12.0606 31.4639C12.0178 31.4598 11.9751 31.4728 11.942 31.5002C11.9088 31.5275 11.8879 31.567 11.8838 31.6098C11.8797 31.6526 11.8928 31.6952 11.9201 31.7284L12.239 32.1146C12.2526 32.131 12.2692 32.1446 12.288 32.1546C12.3068 32.1646 12.3274 32.1708 12.3486 32.1729C12.3697 32.1749 12.3911 32.1727 12.4115 32.1665C12.4318 32.1602 12.4507 32.15 12.4671 32.1364C12.5003 32.109 12.5212 32.0696 12.5252 32.0268C12.5293 31.984 12.5163 31.9414 12.4889 31.9082L12.1702 31.5221Z" fill="url(#paint17_linear_1_1206)"/>
<path d="M13.9636 30.8433L13.3927 31.165C13.3742 31.1754 13.3579 31.1894 13.3448 31.2061C13.3316 31.2228 13.3219 31.242 13.3162 31.2625C13.3105 31.283 13.3089 31.3044 13.3115 31.3255C13.3141 31.3466 13.3208 31.367 13.3313 31.3855C13.3417 31.4041 13.3557 31.4204 13.3724 31.4335C13.3891 31.4467 13.4082 31.4564 13.4287 31.4621C13.4492 31.4679 13.4706 31.4695 13.4917 31.467C13.5129 31.4644 13.5333 31.4578 13.5518 31.4473L14.1227 31.1258C14.1602 31.1047 14.1878 31.0696 14.1994 31.0281C14.211 30.9867 14.2056 30.9424 14.1845 30.9049C14.1741 30.8863 14.1601 30.87 14.1433 30.8568C14.1266 30.8437 14.1074 30.8339 14.0869 30.8282C14.0663 30.8225 14.0449 30.8209 14.0237 30.8235C14.0026 30.826 13.9822 30.8328 13.9636 30.8433Z" fill="url(#paint18_linear_1_1206)"/>
<path d="M13.6001 30.2971C13.6047 30.3181 13.6134 30.338 13.6258 30.3556C13.6382 30.3731 13.6539 30.3881 13.6721 30.3996C13.6903 30.411 13.7106 30.4187 13.7318 30.4223C13.753 30.4258 13.7747 30.4251 13.7956 30.4202C13.8165 30.4152 13.8363 30.4062 13.8537 30.3936C13.8711 30.3809 13.8858 30.365 13.8969 30.3466C13.9081 30.3282 13.9155 30.3078 13.9187 30.2866C13.9219 30.2653 13.9209 30.2436 13.9156 30.2228L13.731 29.4386C13.7262 29.4179 13.7173 29.3983 13.7048 29.381C13.6924 29.3637 13.6767 29.3491 13.6586 29.3379C13.6405 29.3267 13.6203 29.3192 13.5993 29.3158C13.5783 29.3124 13.5568 29.3132 13.5361 29.3181C13.5154 29.323 13.4958 29.3319 13.4785 29.3443C13.4612 29.3567 13.4466 29.3724 13.4354 29.3905C13.4242 29.4086 13.4167 29.4287 13.4133 29.4498C13.4099 29.4708 13.4107 29.4922 13.4157 29.5129L13.6001 30.2971Z" fill="url(#paint19_linear_1_1206)"/>
<path d="M12.8756 29.108L12.4438 29.4102C12.4089 29.435 12.3852 29.4726 12.3779 29.5148C12.3706 29.557 12.3802 29.6003 12.4048 29.6354C12.4294 29.6705 12.4668 29.6944 12.509 29.702C12.5512 29.7095 12.5946 29.7001 12.6298 29.6757L13.0616 29.3735C13.0792 29.3614 13.0942 29.3459 13.1057 29.3279C13.1173 29.3099 13.1252 29.2898 13.1289 29.2688C13.1327 29.2478 13.1323 29.2262 13.1277 29.2053C13.1231 29.1845 13.1144 29.1647 13.1022 29.1472C13.0899 29.1297 13.0743 29.1148 13.0563 29.1034C13.0382 29.0919 13.0181 29.0841 12.9971 29.0805C12.976 29.0769 12.9544 29.0774 12.9336 29.0821C12.9128 29.0868 12.8931 29.0956 12.8756 29.108Z" fill="url(#paint20_linear_1_1206)"/>
<path d="M10.9059 29.3698L11.393 29.7393C11.4099 29.7522 11.4292 29.7616 11.4498 29.767C11.4704 29.7724 11.4918 29.7737 11.5129 29.7708C11.534 29.7678 11.5543 29.7608 11.5726 29.75C11.591 29.7392 11.607 29.7249 11.6198 29.7079C11.6327 29.691 11.6421 29.6717 11.6475 29.6511C11.6529 29.6305 11.6542 29.6091 11.6514 29.588C11.6485 29.5669 11.6415 29.5466 11.6307 29.5282C11.62 29.5099 11.6057 29.4938 11.5887 29.4809L11.1016 29.1115C11.0673 29.0873 11.0249 29.0775 10.9834 29.084C10.9419 29.0905 10.9046 29.1128 10.8792 29.1463C10.8539 29.1797 10.8425 29.2217 10.8475 29.2634C10.8524 29.3051 10.8734 29.3432 10.9059 29.3698Z" fill="url(#paint21_linear_1_1206)"/>
<path d="M11.0612 31.6577L10.8095 31.893C10.7939 31.9075 10.7813 31.9249 10.7725 31.9443C10.7637 31.9636 10.7588 31.9846 10.758 32.0058C10.7573 32.0271 10.7608 32.0483 10.7683 32.0683C10.7758 32.0882 10.7871 32.1064 10.8017 32.122C10.8168 32.1382 10.8352 32.1512 10.8555 32.16C10.8759 32.1688 10.8979 32.1734 10.9201 32.1733C10.9597 32.1733 10.9995 32.159 11.0307 32.1297L11.2824 31.8946C11.298 31.8801 11.3106 31.8626 11.3194 31.8433C11.3283 31.8239 11.3332 31.8029 11.3339 31.7817C11.3346 31.7604 11.3311 31.7392 11.3236 31.7192C11.3162 31.6993 11.3048 31.6811 11.2902 31.6655C11.2757 31.6499 11.2583 31.6374 11.2389 31.6286C11.2196 31.6197 11.1986 31.6148 11.1774 31.6141C11.1561 31.6134 11.1349 31.6169 11.115 31.6243C11.095 31.6318 11.0768 31.6432 11.0612 31.6577Z" fill="url(#paint22_linear_1_1206)"/>
<path d="M19.9868 34.0312C18.0713 34.0312 16.467 35.1396 16.0803 36.6129C16.0796 36.6149 16.0787 36.6165 16.078 36.6185C16.063 36.6659 16.0509 36.7213 16.0417 36.7813C16.0082 36.9519 15.9913 37.1253 15.9911 37.2992C15.9911 39.1012 17.7834 40.5672 19.9868 40.5672C22.1903 40.5672 23.9825 39.1013 23.9825 37.2992C23.9824 35.4972 22.1901 34.0312 19.9868 34.0312ZM19.9868 40.1769C18.3669 40.1769 16.9932 39.3195 16.5402 38.1437C16.7421 38.2457 16.9581 38.2141 17.1269 38.189C17.2462 38.1716 17.3589 38.1549 17.4501 38.1794C17.6356 38.2285 17.7544 38.4692 17.8694 38.702C17.9145 38.7929 17.9571 38.8791 18.0048 38.957C18.3023 39.4404 18.7964 39.6039 19.2629 39.3749C19.3394 39.3376 19.4093 39.2984 19.4764 39.2614C19.7234 39.1239 19.872 39.0407 20.1557 39.1234C20.2921 39.1629 20.4213 39.2212 20.5581 39.2832C20.814 39.3986 21.0783 39.5177 21.4019 39.5177C21.4237 39.5177 21.446 39.5171 21.4684 39.5159C21.9837 39.4901 22.1937 39.2083 22.3791 38.9599C22.4768 38.8286 22.5691 38.7045 22.7075 38.6052C22.7845 38.5499 22.8904 38.5398 23.0131 38.5283C23.092 38.5207 23.1798 38.5116 23.2684 38.4891C22.7002 39.4835 21.4433 40.1769 19.9868 40.1769ZM23.5376 37.7943C23.5295 37.803 23.5222 37.8124 23.5159 37.8224C23.4212 37.9734 23.3172 38.0659 23.1981 38.1041C23.1339 38.1246 23.0572 38.132 22.9762 38.1397C22.8198 38.1541 22.6427 38.1711 22.4797 38.2881C22.2924 38.4228 22.1721 38.584 22.0664 38.7264C21.8944 38.9568 21.7807 39.1092 21.4489 39.1257C21.188 39.1399 20.9605 39.0362 20.7187 38.927C20.5755 38.8623 20.4272 38.7956 20.2648 38.7482C19.8251 38.6206 19.5513 38.7728 19.2867 38.92C19.2253 38.9539 19.161 38.9897 19.0911 39.0245C18.6843 39.2236 18.4287 38.9005 18.3373 38.7522C18.2988 38.6898 18.2602 38.6115 18.2194 38.5291C18.0802 38.2473 17.9068 37.8965 17.5504 37.8023C17.3816 37.7569 17.2162 37.7814 17.0699 37.803C16.8561 37.8344 16.7395 37.846 16.6371 37.7333C16.438 37.515 16.3859 37.1154 16.4249 36.8519C16.6951 35.4769 18.1894 34.4215 19.9866 34.4215C21.9746 34.4215 23.592 35.7124 23.592 37.2992C23.5918 37.4657 23.5736 37.6317 23.5376 37.7943Z" fill="url(#paint23_linear_1_1206)"/>
<path d="M19.9868 35.7839C19.24 35.7839 18.6768 36.1168 18.6768 36.5582C18.6768 36.821 18.877 37.0443 19.1956 37.1833C19.3687 37.2719 19.6098 37.3165 19.8473 37.3289L19.8515 37.3292C19.897 37.3315 19.9423 37.3329 19.9867 37.3329C20.0314 37.3329 20.0766 37.3313 20.1222 37.3292C20.1235 37.3292 20.1247 37.3289 20.126 37.3289C20.3635 37.3167 20.6049 37.272 20.7779 37.1832C21.0964 37.0445 21.2968 36.8212 21.2968 36.5585C21.2968 36.1169 20.7336 35.7839 19.9868 35.7839ZM19.9868 36.9424C19.754 36.9424 19.5567 36.9031 19.4048 36.8461C19.5113 36.8014 19.7131 36.7535 19.9868 36.7535C20.2608 36.7535 20.4625 36.8015 20.5686 36.8459C20.4169 36.9031 20.2197 36.9424 19.9868 36.9424ZM20.9 36.5938C20.7081 36.428 20.3278 36.3632 19.9868 36.3632C19.6459 36.3632 19.2653 36.4279 19.0733 36.5938C19.0695 36.5823 19.0674 36.5703 19.0671 36.5582C19.0671 36.4017 19.4253 36.1741 19.9868 36.1741C20.5481 36.1741 20.9064 36.4016 20.9064 36.5582C20.906 36.5703 20.9039 36.5823 20.9 36.5938Z" fill="url(#paint24_linear_1_1206)"/>
<path d="M18.0068 35.3873C17.9715 35.3494 17.9226 35.3272 17.8709 35.3253C17.8192 35.3235 17.7688 35.3422 17.7309 35.3775L17.0638 35.9978C17.0352 36.0245 17.0153 36.0592 17.0066 36.0974C16.998 36.1357 17.0011 36.1756 17.0154 36.212C17.0297 36.2485 17.0547 36.2798 17.0871 36.3019C17.1194 36.324 17.1577 36.3358 17.1969 36.3358C17.2446 36.3358 17.2921 36.3186 17.3297 36.2836L17.9967 35.6633C18.0347 35.6281 18.0571 35.5792 18.059 35.5274C18.0609 35.4756 18.0421 35.4252 18.0068 35.3873Z" fill="url(#paint25_linear_1_1206)"/>
<path d="M18.0281 37.1908C18.0139 37.1695 17.9956 37.1512 17.9743 37.137C17.953 37.1227 17.9291 37.1128 17.904 37.1078C17.8789 37.1028 17.853 37.1027 17.8278 37.1077C17.8027 37.1127 17.7788 37.1226 17.7575 37.1368C17.7362 37.151 17.7179 37.1693 17.7036 37.1906C17.6894 37.2119 17.6794 37.2358 17.6744 37.2609C17.6694 37.286 17.6694 37.3119 17.6744 37.337C17.6794 37.3622 17.6892 37.3861 17.7035 37.4074L18.1483 38.0746C18.1777 38.1159 18.2221 38.1442 18.2719 38.1533C18.3218 38.1625 18.3733 38.1519 18.4155 38.1238C18.4577 38.0956 18.4873 38.0521 18.498 38.0026C18.5087 37.953 18.4996 37.9012 18.4728 37.8581L18.0281 37.1908Z" fill="url(#paint26_linear_1_1206)"/>
<path d="M18.4065 36.1446L17.9416 36.3062C17.9174 36.3146 17.8951 36.3277 17.8759 36.3447C17.8568 36.3618 17.8412 36.3824 17.83 36.4055C17.8189 36.4286 17.8123 36.4536 17.8109 36.4792C17.8094 36.5048 17.813 36.5304 17.8214 36.5546C17.8347 36.5929 17.8596 36.6261 17.8926 36.6497C17.9256 36.6732 17.9651 36.6858 18.0057 36.6859C18.027 36.6859 18.0487 36.6822 18.0697 36.6748L18.5348 36.5132C18.5823 36.4951 18.6209 36.4592 18.6423 36.4132C18.6638 36.3671 18.6665 36.3145 18.6498 36.2665C18.633 36.2186 18.5983 36.179 18.5529 36.1562C18.5075 36.1334 18.4549 36.1293 18.4065 36.1446Z" fill="url(#paint27_linear_1_1206)"/>
<path d="M20.4002 37.6603C20.3673 37.6204 20.3198 37.5952 20.2683 37.5902C20.2168 37.5853 20.1654 37.601 20.1255 37.6339C20.0856 37.6669 20.0604 37.7143 20.0555 37.7659C20.0505 37.8174 20.0663 37.8688 20.0992 37.9087L20.4831 38.3736C20.4994 38.3934 20.5194 38.4098 20.5421 38.4219C20.5647 38.4339 20.5895 38.4414 20.615 38.4438C20.6405 38.4462 20.6662 38.4436 20.6907 38.4361C20.7152 38.4286 20.738 38.4163 20.7578 38.3999C20.7976 38.3669 20.8228 38.3195 20.8277 38.268C20.8326 38.2165 20.8169 38.1651 20.784 38.1252L20.4002 37.6603Z" fill="url(#paint28_linear_1_1206)"/>
<path d="M22.5595 36.8432L21.8722 37.2305C21.8499 37.243 21.8302 37.2598 21.8144 37.28C21.7986 37.3001 21.787 37.3232 21.7801 37.3479C21.7732 37.3725 21.7713 37.3983 21.7744 37.4237C21.7775 37.4491 21.7856 37.4737 21.7982 37.496C21.8107 37.5183 21.8276 37.5379 21.8477 37.5538C21.8678 37.5696 21.8909 37.5813 21.9155 37.5882C21.9402 37.5951 21.966 37.5971 21.9914 37.594C22.0168 37.591 22.0414 37.583 22.0637 37.5704L22.751 37.1833C22.7961 37.1579 22.8293 37.1156 22.8433 37.0657C22.8573 37.0158 22.8508 36.9625 22.8254 36.9173C22.8129 36.895 22.796 36.8753 22.7759 36.8595C22.7557 36.8436 22.7326 36.8319 22.7079 36.825C22.6832 36.8181 22.6573 36.8162 22.6319 36.8193C22.6064 36.8224 22.5818 36.8305 22.5595 36.8432Z" fill="url(#paint29_linear_1_1206)"/>
<path d="M22.1218 36.1854C22.1273 36.2106 22.1378 36.2346 22.1527 36.2557C22.1676 36.2769 22.1865 36.2949 22.2084 36.3087C22.2303 36.3225 22.2548 36.3318 22.2803 36.3361C22.3058 36.3403 22.3319 36.3395 22.3571 36.3335C22.3823 36.3276 22.4061 36.3167 22.427 36.3015C22.448 36.2863 22.4657 36.2671 22.4791 36.245C22.4926 36.2228 22.5015 36.1983 22.5054 36.1727C22.5092 36.1471 22.5079 36.121 22.5016 36.0959L22.2794 35.1518C22.2735 35.1269 22.2628 35.1033 22.2479 35.0825C22.2329 35.0617 22.214 35.044 22.1922 35.0305C22.1704 35.0171 22.1461 35.008 22.1208 35.0039C22.0955 34.9999 22.0696 35.0008 22.0447 35.0068C22.0197 35.0126 21.9962 35.0233 21.9754 35.0382C21.9546 35.0532 21.9369 35.0721 21.9235 35.0939C21.91 35.1157 21.901 35.1399 21.8969 35.1652C21.8928 35.1905 21.8938 35.2164 21.8997 35.2413L22.1218 36.1854Z" fill="url(#paint30_linear_1_1206)"/>
<path d="M21.2495 34.754L20.7296 35.1178C20.6875 35.1476 20.659 35.1929 20.6502 35.2437C20.6414 35.2945 20.6531 35.3467 20.6826 35.389C20.7122 35.4312 20.7573 35.46 20.8081 35.4691C20.8588 35.4782 20.9111 35.4668 20.9535 35.4375L21.4734 35.0737C21.4945 35.059 21.5126 35.0403 21.5265 35.0187C21.5404 34.9971 21.5499 34.9729 21.5544 34.9476C21.559 34.9223 21.5585 34.8963 21.5529 34.8712C21.5474 34.8461 21.5369 34.8223 21.5222 34.8012C21.5074 34.7801 21.4887 34.7622 21.4669 34.7484C21.4452 34.7346 21.421 34.7253 21.3957 34.7209C21.3703 34.7165 21.3443 34.7172 21.3193 34.7228C21.2942 34.7285 21.2705 34.7391 21.2495 34.754Z" fill="url(#paint31_linear_1_1206)"/>
<path d="M18.8781 35.0691L19.4645 35.5139C19.4849 35.5294 19.5082 35.5408 19.5329 35.5473C19.5577 35.5538 19.5835 35.5553 19.6089 35.5518C19.6343 35.5483 19.6587 35.5398 19.6808 35.5269C19.7029 35.5139 19.7222 35.4967 19.7376 35.4762C19.7532 35.4558 19.7645 35.4326 19.771 35.4078C19.7775 35.383 19.7791 35.3572 19.7756 35.3318C19.7721 35.3064 19.7637 35.282 19.7507 35.2598C19.7378 35.2377 19.7206 35.2184 19.7002 35.2029L19.1138 34.7581C19.0724 34.7291 19.0214 34.7172 18.9715 34.725C18.9215 34.7328 18.8766 34.7597 18.846 34.8C18.8155 34.8403 18.8018 34.8908 18.8078 34.941C18.8138 34.9912 18.839 35.0371 18.8781 35.0691Z" fill="url(#paint32_linear_1_1206)"/>
<path d="M19.0651 37.8239L18.762 38.1071C18.7432 38.1245 18.7281 38.1455 18.7175 38.1688C18.7069 38.1922 18.7009 38.2174 18.7001 38.243C18.6992 38.2686 18.7034 38.2941 18.7124 38.3181C18.7214 38.3421 18.7351 38.3641 18.7526 38.3828C18.7708 38.4023 18.7929 38.4179 18.8175 38.4286C18.842 38.4392 18.8684 38.4447 18.8952 38.4446C18.9429 38.4446 18.9908 38.4274 19.0283 38.3921L19.3314 38.109C19.3502 38.0916 19.3653 38.0706 19.3759 38.0472C19.3866 38.0239 19.3925 37.9987 19.3934 37.9731C19.3942 37.9475 19.39 37.9219 19.381 37.8979C19.372 37.8739 19.3583 37.852 19.3408 37.8332C19.3233 37.8145 19.3023 37.7994 19.279 37.7888C19.2557 37.7781 19.2305 37.7722 19.2049 37.7714C19.1793 37.7705 19.1538 37.7747 19.1298 37.7837C19.1058 37.7927 19.0838 37.8063 19.0651 37.8239Z" fill="url(#paint33_linear_1_1206)"/>
<path d="M20.0227 28.4187C18.4316 28.4187 17.099 29.3393 16.7778 30.5631C16.7772 30.5647 16.7765 30.5661 16.7759 30.5678C16.7634 30.6071 16.7534 30.6531 16.7458 30.703C16.718 30.8447 16.7039 30.9887 16.7037 31.1331C16.7037 32.6299 18.1925 33.8476 20.0227 33.8476C21.853 33.8476 23.3416 32.63 23.3416 31.1331C23.3415 29.6364 21.8528 28.4187 20.0227 28.4187ZM20.0227 33.5234C18.6771 33.5234 17.5361 32.8113 17.1598 31.8346C17.3276 31.9194 17.5069 31.893 17.6472 31.8722C17.7463 31.8578 17.8399 31.8439 17.9157 31.8642C18.0697 31.905 18.1684 32.105 18.2639 32.2983C18.3014 32.3738 18.3367 32.4454 18.3764 32.5101C18.6235 32.9116 19.0339 33.0475 19.4214 32.8572C19.4849 32.8263 19.543 32.7937 19.5987 32.763C19.8039 32.6487 19.9273 32.5796 20.1629 32.6484C20.2762 32.6812 20.3835 32.7296 20.4972 32.7811C20.7098 32.8769 20.9293 32.9759 21.1981 32.9759C21.2162 32.9759 21.2347 32.9754 21.2533 32.9744C21.6813 32.9529 21.8558 32.7189 22.0098 32.5125C22.0909 32.4035 22.1676 32.3004 22.2825 32.218C22.3465 32.172 22.4345 32.1636 22.5364 32.1541C22.6019 32.1478 22.6748 32.1402 22.7484 32.1215C22.2765 32.9474 21.2325 33.5234 20.0227 33.5234ZM22.9721 31.5444C22.9653 31.5516 22.9593 31.5594 22.954 31.5677C22.8753 31.6932 22.7889 31.77 22.6901 31.8017C22.6367 31.8187 22.573 31.8249 22.5058 31.8313C22.3758 31.8433 22.2287 31.8573 22.0934 31.9545C21.9377 32.0665 21.8378 32.2003 21.75 32.3186C21.6072 32.51 21.5127 32.6365 21.2371 32.6503C21.0204 32.6621 20.8315 32.5759 20.6306 32.4853C20.5117 32.4315 20.3885 32.3761 20.2536 32.3367C19.8884 32.2307 19.6609 32.3571 19.4411 32.4794C19.3902 32.5076 19.3367 32.5373 19.2787 32.5662C18.9408 32.7316 18.7285 32.4632 18.6525 32.3401C18.6206 32.2882 18.5885 32.2232 18.5546 32.1547C18.439 31.9207 18.295 31.6293 17.9989 31.551C17.8587 31.5133 17.7214 31.5336 17.5999 31.5516C17.4222 31.5777 17.3254 31.5873 17.2403 31.4937C17.075 31.3124 17.0317 30.9805 17.0641 30.7616C17.2885 29.6195 18.5297 28.7429 20.0225 28.7429C21.6738 28.7429 23.0172 29.8151 23.0172 31.1331C23.0171 31.2715 23.0019 31.4093 22.9721 31.5444Z" fill="url(#paint34_linear_1_1206)"/>
<path d="M20.0227 29.8745C19.4024 29.8745 18.9346 30.151 18.9346 30.5177C18.9346 30.7359 19.1009 30.9214 19.3655 31.0368C19.5093 31.1105 19.7096 31.1475 19.9068 31.1578L19.9104 31.158C19.9482 31.1599 19.9858 31.1611 20.0226 31.1611C20.0598 31.1611 20.0973 31.1598 20.1352 31.158C20.1363 31.158 20.1372 31.1578 20.1383 31.1578C20.3356 31.1477 20.5361 31.1105 20.6798 31.0367C20.9444 30.9215 21.1108 30.7361 21.1108 30.5179C21.1108 30.1511 20.643 29.8745 20.0227 29.8745ZM20.0227 30.8368C19.8294 30.8368 19.6655 30.8041 19.5393 30.7567C19.6278 30.7196 19.7954 30.6798 20.0227 30.6798C20.2503 30.6798 20.4178 30.7197 20.506 30.7566C20.38 30.8041 20.2162 30.8368 20.0227 30.8368ZM20.7813 30.5472C20.6218 30.4095 20.3059 30.3557 20.0227 30.3557C19.7395 30.3557 19.4234 30.4094 19.264 30.5472C19.2608 30.5377 19.259 30.5277 19.2588 30.5176C19.2588 30.3876 19.5563 30.1986 20.0227 30.1986C20.489 30.1986 20.7866 30.3876 20.7866 30.5176C20.7863 30.5277 20.7845 30.5377 20.7813 30.5472Z" fill="url(#paint35_linear_1_1206)"/>
<path d="M18.3781 29.5452C18.3488 29.5138 18.3082 29.4953 18.2652 29.4938C18.2222 29.4922 18.1804 29.5078 18.1489 29.5371L17.5948 30.0523C17.5711 30.0745 17.5545 30.1034 17.5473 30.1351C17.5402 30.1668 17.5427 30.2 17.5546 30.2303C17.5665 30.2606 17.5873 30.2866 17.6141 30.3049C17.641 30.3232 17.6728 30.3331 17.7053 30.3331C17.745 30.3331 17.7844 30.3188 17.8157 30.2898L18.3697 29.7745C18.4013 29.7452 18.4198 29.7046 18.4214 29.6616C18.423 29.6186 18.4074 29.5767 18.3781 29.5452Z" fill="url(#paint36_linear_1_1206)"/>
<path d="M18.3958 31.0431C18.384 31.0254 18.3688 31.0102 18.3511 30.9983C18.3334 30.9865 18.3136 30.9783 18.2927 30.9741C18.2718 30.9699 18.2503 30.9699 18.2294 30.974C18.2086 30.9782 18.1887 30.9864 18.171 30.9982C18.1533 31.01 18.1381 31.0252 18.1263 31.0429C18.1144 31.0606 18.1062 31.0804 18.102 31.1013C18.0978 31.1222 18.0978 31.1436 18.102 31.1645C18.1061 31.1854 18.1143 31.2053 18.1261 31.223L18.4956 31.7772C18.52 31.8115 18.5569 31.8349 18.5983 31.8426C18.6398 31.8502 18.6825 31.8414 18.7176 31.818C18.7526 31.7946 18.7772 31.7585 18.7861 31.7173C18.795 31.6761 18.7875 31.6331 18.7652 31.5974L18.3958 31.0431Z" fill="url(#paint37_linear_1_1206)"/>
<path d="M18.7101 30.1741L18.3239 30.3083C18.3038 30.3153 18.2853 30.3262 18.2694 30.3403C18.2535 30.3545 18.2405 30.3716 18.2313 30.3908C18.222 30.4099 18.2166 30.4307 18.2154 30.452C18.2141 30.4732 18.2171 30.4945 18.2241 30.5146C18.2351 30.5465 18.2558 30.574 18.2832 30.5936C18.3107 30.6131 18.3435 30.6236 18.3772 30.6237C18.3949 30.6237 18.4129 30.6206 18.4304 30.6145L18.8167 30.4802C18.8561 30.4652 18.8882 30.4354 18.906 30.3972C18.9238 30.3589 18.926 30.3152 18.9122 30.2754C18.8983 30.2355 18.8694 30.2026 18.8317 30.1837C18.794 30.1648 18.7503 30.1613 18.7101 30.1741Z" fill="url(#paint38_linear_1_1206)"/>
<path d="M20.3661 31.4329C20.3387 31.3998 20.2993 31.3789 20.2565 31.3748C20.2137 31.3707 20.1711 31.3837 20.1379 31.411C20.1047 31.4384 20.0838 31.4778 20.0797 31.5206C20.0756 31.5635 20.0887 31.6061 20.1161 31.6393L20.435 32.0255C20.4485 32.0419 20.4651 32.0555 20.4839 32.0655C20.5027 32.0755 20.5233 32.0817 20.5445 32.0837C20.5657 32.0858 20.5871 32.0836 20.6074 32.0773C20.6278 32.0711 20.6467 32.0609 20.6631 32.0473C20.6962 32.0199 20.7171 31.9805 20.7212 31.9377C20.7252 31.8949 20.7122 31.8523 20.6848 31.8191L20.3661 31.4329Z" fill="url(#paint39_linear_1_1206)"/>
<path d="M22.1597 30.7544L21.5888 31.0761C21.5702 31.0865 21.5539 31.1005 21.5408 31.1172C21.5277 31.134 21.518 31.1531 21.5123 31.1736C21.5066 31.1941 21.505 31.2155 21.5075 31.2366C21.5101 31.2577 21.5168 31.2781 21.5273 31.2966C21.5377 31.3152 21.5517 31.3315 21.5684 31.3446C21.5851 31.3578 21.6043 31.3675 21.6248 31.3733C21.6453 31.379 21.6667 31.3806 21.6878 31.3781C21.7089 31.3756 21.7293 31.3689 21.7479 31.3585L22.3188 31.0369C22.3562 31.0158 22.3838 30.9807 22.3954 30.9393C22.407 30.8978 22.4017 30.8535 22.3806 30.816C22.3701 30.7974 22.3561 30.7811 22.3394 30.7679C22.3226 30.7548 22.3034 30.7451 22.2829 30.7393C22.2624 30.7336 22.2409 30.732 22.2198 30.7346C22.1986 30.7372 22.1782 30.7439 22.1597 30.7544Z" fill="url(#paint40_linear_1_1206)"/>
<path d="M21.7961 30.208C21.8007 30.229 21.8095 30.2489 21.8218 30.2664C21.8342 30.284 21.8499 30.299 21.8681 30.3104C21.8863 30.3219 21.9066 30.3296 21.9278 30.3332C21.949 30.3367 21.9707 30.336 21.9916 30.331C22.0126 30.3261 22.0323 30.3171 22.0497 30.3044C22.0671 30.2918 22.0818 30.2759 22.093 30.2575C22.1042 30.2391 22.1116 30.2187 22.1148 30.1974C22.118 30.1762 22.1169 30.1545 22.1117 30.1337L21.9271 29.3495C21.9222 29.3288 21.9133 29.3092 21.9009 29.2919C21.8885 29.2746 21.8727 29.26 21.8546 29.2488C21.8365 29.2376 21.8164 29.2301 21.7953 29.2267C21.7743 29.2233 21.7528 29.2241 21.7321 29.229C21.7114 29.2339 21.6918 29.2427 21.6746 29.2552C21.6573 29.2676 21.6426 29.2833 21.6314 29.3014C21.6202 29.3195 21.6127 29.3396 21.6094 29.3606C21.606 29.3816 21.6068 29.4031 21.6117 29.4238L21.7961 30.208Z" fill="url(#paint41_linear_1_1206)"/>
<path d="M21.0716 29.0189L20.6397 29.3211C20.6048 29.3459 20.5811 29.3835 20.5738 29.4257C20.5665 29.4679 20.5762 29.5112 20.6007 29.5463C20.6253 29.5814 20.6628 29.6053 20.7049 29.6129C20.7471 29.6204 20.7905 29.611 20.8257 29.5866L21.2575 29.2844C21.2751 29.2723 21.2901 29.2567 21.3017 29.2388C21.3132 29.2208 21.3211 29.2007 21.3249 29.1797C21.3286 29.1587 21.3282 29.1371 21.3236 29.1162C21.319 29.0954 21.3103 29.0756 21.2981 29.0581C21.2858 29.0406 21.2702 29.0257 21.2522 29.0143C21.2342 29.0028 21.214 28.995 21.193 28.9914C21.1719 28.9877 21.1504 28.9883 21.1295 28.993C21.1087 28.9977 21.089 29.0065 21.0716 29.0189Z" fill="url(#paint42_linear_1_1206)"/>
<path d="M19.1018 29.2807L19.5889 29.6501C19.6058 29.663 19.6251 29.6725 19.6457 29.6779C19.6663 29.6833 19.6878 29.6846 19.7088 29.6816C19.7299 29.6787 19.7502 29.6717 19.7686 29.6609C19.7869 29.6501 19.8029 29.6358 19.8158 29.6188C19.8286 29.6019 19.8381 29.5826 19.8435 29.562C19.8489 29.5414 19.8502 29.52 19.8473 29.4989C19.8444 29.4778 19.8374 29.4575 19.8266 29.4391C19.8159 29.4207 19.8016 29.4047 19.7847 29.3918L19.2976 29.0223C19.2632 28.9982 19.2208 28.9884 19.1793 28.9949C19.1379 29.0014 19.1005 29.0237 19.0752 29.0571C19.0498 29.0906 19.0384 29.1326 19.0434 29.1743C19.0483 29.216 19.0693 29.2541 19.1018 29.2807Z" fill="url(#paint43_linear_1_1206)"/>
<path d="M19.2573 31.5686L19.0055 31.8039C18.9899 31.8184 18.9774 31.8358 18.9685 31.8552C18.9597 31.8745 18.9548 31.8955 18.9541 31.9167C18.9533 31.938 18.9568 31.9592 18.9643 31.9791C18.9718 31.9991 18.9832 32.0173 18.9977 32.0328C19.0129 32.0491 19.0312 32.062 19.0516 32.0709C19.072 32.0797 19.0939 32.0843 19.1162 32.0842C19.1558 32.0842 19.1955 32.0699 19.2267 32.0406L19.4785 31.8055C19.4941 31.791 19.5066 31.7735 19.5155 31.7541C19.5243 31.7348 19.5292 31.7138 19.5299 31.6926C19.5307 31.6713 19.5272 31.6501 19.5197 31.6301C19.5122 31.6102 19.5008 31.5919 19.4863 31.5764C19.4718 31.5608 19.4543 31.5483 19.435 31.5395C19.4156 31.5306 19.3947 31.5257 19.3734 31.525C19.3521 31.5243 19.3309 31.5278 19.311 31.5352C19.2911 31.5427 19.2728 31.5541 19.2573 31.5686Z" fill="url(#paint44_linear_1_1206)"/>
<path d="M28.9846 34.2092C27.0691 34.2092 25.4648 35.3175 25.0781 36.7909C25.0774 36.7929 25.0765 36.7945 25.0758 36.7965C25.0608 36.8439 25.0487 36.8993 25.0395 36.9593C25.006 37.1299 24.9891 37.3033 24.9889 37.4772C24.9889 39.2792 26.7812 40.7451 28.9846 40.7451C31.1881 40.7451 32.9803 39.2793 32.9803 37.4772C32.9802 35.6752 31.1879 34.2092 28.9846 34.2092ZM28.9846 40.3549C27.3647 40.3549 25.991 39.4975 25.538 38.3217C25.7399 38.4237 25.9559 38.392 26.1247 38.367C26.244 38.3496 26.3567 38.3328 26.4479 38.3573C26.6334 38.4065 26.7522 38.6472 26.8672 38.88C26.9123 38.9708 26.9549 39.057 27.0026 39.1349C27.3001 39.6183 27.7942 39.7819 28.2607 39.5528C28.3372 39.5156 28.4071 39.4764 28.4742 39.4394C28.7212 39.3018 28.8698 39.2187 29.1535 39.3014C29.2899 39.3409 29.4191 39.3992 29.5559 39.4612C29.8118 39.5766 30.0761 39.6957 30.3997 39.6957C30.4215 39.6957 30.4438 39.6951 30.4662 39.6939C30.9815 39.6681 31.1915 39.3863 31.3769 39.1379C31.4746 39.0066 31.5669 38.8825 31.7053 38.7832C31.7823 38.7279 31.8882 38.7178 32.0109 38.7063C32.0898 38.6987 32.1776 38.6896 32.2662 38.6671C31.698 39.6614 30.4411 40.3549 28.9846 40.3549ZM32.5354 37.9723C32.5273 37.9809 32.52 37.9904 32.5137 38.0004C32.419 38.1514 32.315 38.2439 32.1959 38.282C32.1317 38.3026 32.055 38.31 31.9741 38.3177C31.8176 38.3321 31.6405 38.349 31.4776 38.466C31.2902 38.6008 31.1699 38.762 31.0642 38.9044C30.8922 39.1348 30.7785 39.2872 30.4467 39.3037C30.1858 39.3179 29.9583 39.2141 29.7165 39.105C29.5733 39.0403 29.425 38.9736 29.2626 38.9262C28.8229 38.7985 28.5491 38.9508 28.2845 39.0979C28.2231 39.1319 28.1588 39.1677 28.0889 39.2025C27.6821 39.4016 27.4265 39.0785 27.3351 38.9302C27.2966 38.8677 27.258 38.7895 27.2172 38.7071C27.078 38.4253 26.9046 38.0745 26.5482 37.9802C26.3794 37.9348 26.214 37.9594 26.0677 37.9809C25.8539 38.0124 25.7373 38.024 25.6349 37.9113C25.4358 37.693 25.3837 37.2934 25.4227 37.0299C25.6929 35.6548 27.1872 34.5995 28.9844 34.5995C30.9724 34.5995 32.5898 35.8903 32.5898 37.4772C32.5896 37.6437 32.5714 37.8097 32.5354 37.9723Z" fill="url(#paint45_linear_1_1206)"/>
<path d="M28.9845 35.9619C28.2377 35.9619 27.6744 36.2948 27.6744 36.7362C27.6744 36.999 27.8746 37.2223 28.1932 37.3612C28.3664 37.4499 28.6075 37.4945 28.845 37.5069L28.8492 37.5072C28.8947 37.5095 28.94 37.5109 28.9844 37.5109C29.0291 37.5109 29.0743 37.5093 29.1199 37.5072C29.1212 37.5072 29.1223 37.5069 29.1237 37.5069C29.3612 37.4947 29.6026 37.45 29.7756 37.3611C30.0941 37.2225 30.2945 36.9992 30.2945 36.7365C30.2945 36.2949 29.7312 35.9619 28.9845 35.9619ZM28.9845 37.1204C28.7517 37.1204 28.5544 37.081 28.4025 37.024C28.509 36.9793 28.7108 36.9315 28.9845 36.9315C29.2585 36.9315 29.4602 36.9794 29.5663 37.0239C29.4146 37.081 29.2174 37.1204 28.9845 37.1204ZM29.8977 36.7718C29.7058 36.6059 29.3255 36.5412 28.9845 36.5412C28.6435 36.5412 28.263 36.6059 28.071 36.7718C28.0672 36.7603 28.0651 36.7483 28.0647 36.7361C28.0647 36.5797 28.423 36.3521 28.9845 36.3521C29.5458 36.3521 29.9041 36.5796 29.9041 36.7361C29.9037 36.7483 29.9016 36.7603 29.8977 36.7718Z" fill="url(#paint46_linear_1_1206)"/>
<path d="M27.0045 35.5653C26.9692 35.5274 26.9203 35.5051 26.8686 35.5033C26.8168 35.5015 26.7665 35.5202 26.7286 35.5554L26.0615 36.1757C26.0329 36.2025 26.013 36.2372 26.0043 36.2754C25.9957 36.3136 25.9987 36.3536 26.0131 36.39C26.0274 36.4265 26.0524 36.4578 26.0848 36.4799C26.1171 36.5019 26.1554 36.5138 26.1945 36.5138C26.2422 36.5138 26.2898 36.4966 26.3274 36.4616L26.9944 35.8413C27.0324 35.806 27.0547 35.7571 27.0566 35.7054C27.0585 35.6536 27.0398 35.6032 27.0045 35.5653Z" fill="url(#paint47_linear_1_1206)"/>
<path d="M27.0256 37.3691C27.0114 37.3477 26.9931 37.3294 26.9719 37.3152C26.9506 37.3009 26.9267 37.291 26.9015 37.286C26.8764 37.281 26.8505 37.281 26.8254 37.2859C26.8003 37.2909 26.7764 37.3008 26.755 37.315C26.7337 37.3293 26.7154 37.3475 26.7012 37.3688C26.6869 37.3901 26.677 37.414 26.672 37.4391C26.667 37.4643 26.667 37.4901 26.6719 37.5153C26.6769 37.5404 26.6868 37.5643 26.701 37.5856L27.1458 38.2528C27.1753 38.2942 27.2196 38.3224 27.2695 38.3316C27.3194 38.3407 27.3709 38.3301 27.4131 38.302C27.4553 38.2738 27.4848 38.2304 27.4955 38.1808C27.5062 38.1312 27.4972 38.0794 27.4704 38.0364L27.0256 37.3691Z" fill="url(#paint48_linear_1_1206)"/>
<path d="M27.4042 36.3226L26.9393 36.4842C26.9151 36.4926 26.8927 36.5057 26.8736 36.5227C26.8545 36.5398 26.8389 36.5604 26.8277 36.5835C26.8165 36.6065 26.81 36.6316 26.8086 36.6572C26.8071 36.6828 26.8107 36.7084 26.8191 36.7326C26.8324 36.7709 26.8572 36.8041 26.8903 36.8276C26.9233 36.8512 26.9628 36.8638 27.0033 36.8638C27.0247 36.8638 27.0464 36.8602 27.0674 36.8528L27.5325 36.6912C27.58 36.6731 27.6186 36.6372 27.64 36.5912C27.6615 36.5451 27.6641 36.4925 27.6474 36.4445C27.6307 36.3965 27.596 36.357 27.5506 36.3342C27.5051 36.3114 27.4526 36.3072 27.4042 36.3226Z" fill="url(#paint49_linear_1_1206)"/>
<path d="M29.3979 37.8383C29.3649 37.7984 29.3175 37.7732 29.266 37.7682C29.2145 37.7633 29.1631 37.779 29.1232 37.8119C29.0833 37.8449 29.0581 37.8923 29.0531 37.9439C29.0482 37.9954 29.0639 38.0468 29.0969 38.0867L29.4808 38.5516C29.4971 38.5714 29.5171 38.5878 29.5397 38.5998C29.5624 38.6119 29.5872 38.6193 29.6127 38.6218C29.6382 38.6242 29.6639 38.6216 29.6884 38.6141C29.7129 38.6065 29.7357 38.5942 29.7554 38.5779C29.7953 38.5449 29.8205 38.4975 29.8254 38.446C29.8303 38.3944 29.8146 38.3431 29.7816 38.3032L29.3979 37.8383Z" fill="url(#paint50_linear_1_1206)"/>
<path d="M31.5572 37.0211L30.8699 37.4084C30.8475 37.421 30.8279 37.4378 30.8121 37.458C30.7963 37.4781 30.7846 37.5012 30.7778 37.5258C30.7709 37.5505 30.769 37.5763 30.7721 37.6017C30.7752 37.6271 30.7833 37.6517 30.7959 37.6739C30.8084 37.6963 30.8252 37.7159 30.8454 37.7317C30.8655 37.7476 30.8885 37.7593 30.9132 37.7662C30.9379 37.7731 30.9636 37.7751 30.9891 37.772C31.0145 37.769 31.0391 37.7609 31.0614 37.7484L31.7487 37.3613C31.7938 37.3359 31.827 37.2936 31.841 37.2437C31.8549 37.1938 31.8485 37.1405 31.8231 37.0953C31.8106 37.0729 31.7937 37.0533 31.7735 37.0374C31.7534 37.0216 31.7303 37.0099 31.7056 37.003C31.6808 36.9961 31.655 36.9942 31.6296 36.9973C31.6041 37.0004 31.5795 37.0085 31.5572 37.0211Z" fill="url(#paint51_linear_1_1206)"/>
<path d="M31.1194 36.3633C31.125 36.3886 31.1355 36.4125 31.1504 36.4337C31.1653 36.4549 31.1842 36.4729 31.2061 36.4867C31.228 36.5005 31.2524 36.5098 31.278 36.514C31.3035 36.5183 31.3296 36.5174 31.3548 36.5115C31.38 36.5056 31.4038 36.4947 31.4247 36.4795C31.4457 36.4643 31.4634 36.4451 31.4768 36.4229C31.4903 36.4008 31.4992 36.3762 31.503 36.3507C31.5069 36.3251 31.5056 36.299 31.4993 36.2739L31.2771 35.3298C31.2712 35.3048 31.2605 35.2813 31.2455 35.2605C31.2306 35.2397 31.2116 35.222 31.1898 35.2085C31.168 35.195 31.1438 35.186 31.1185 35.1819C31.0932 35.1778 31.0673 35.1788 31.0424 35.1847C31.0174 35.1906 30.9939 35.2013 30.9731 35.2162C30.9523 35.2312 30.9346 35.2501 30.9211 35.2719C30.9077 35.2937 30.8986 35.3179 30.8946 35.3432C30.8905 35.3685 30.8915 35.3944 30.8974 35.4193L31.1194 36.3633Z" fill="url(#paint52_linear_1_1206)"/>
<path d="M30.2471 34.932L29.7273 35.2958C29.6852 35.3256 29.6567 35.3709 29.6479 35.4217C29.6391 35.4725 29.6507 35.5247 29.6803 35.5669C29.7099 35.6092 29.755 35.638 29.8058 35.6471C29.8565 35.6562 29.9088 35.6448 29.9512 35.6155L30.4711 35.2516C30.4922 35.237 30.5103 35.2183 30.5242 35.1967C30.5381 35.1751 30.5476 35.1509 30.5521 35.1256C30.5567 35.1002 30.5561 35.0743 30.5506 35.0492C30.5451 35.024 30.5346 35.0003 30.5199 34.9792C30.5051 34.9581 30.4863 34.9402 30.4646 34.9264C30.4429 34.9126 30.4187 34.9032 30.3933 34.8989C30.368 34.8945 30.342 34.8951 30.3169 34.9008C30.2918 34.9065 30.2681 34.9171 30.2471 34.932Z" fill="url(#paint53_linear_1_1206)"/>
<path d="M27.8758 35.2471L28.4622 35.6919C28.4826 35.7074 28.5058 35.7187 28.5306 35.7253C28.5554 35.7318 28.5812 35.7333 28.6066 35.7298C28.632 35.7263 28.6564 35.7178 28.6785 35.7048C28.7006 35.6919 28.7199 35.6746 28.7353 35.6542C28.7508 35.6338 28.7622 35.6105 28.7687 35.5857C28.7752 35.561 28.7768 35.5351 28.7733 35.5098C28.7698 35.4844 28.7614 35.4599 28.7484 35.4378C28.7355 35.4157 28.7183 35.3964 28.6979 35.3809L28.1115 34.9361C28.0701 34.907 28.0191 34.8952 27.9691 34.903C27.9192 34.9108 27.8742 34.9377 27.8437 34.978C27.8132 35.0182 27.7995 35.0688 27.8055 35.119C27.8114 35.1692 27.8366 35.2151 27.8758 35.2471Z" fill="url(#paint54_linear_1_1206)"/>
<path d="M28.0629 38.0018L27.7598 38.2851C27.741 38.3025 27.7259 38.3235 27.7153 38.3468C27.7047 38.3701 27.6987 38.3953 27.6979 38.4209C27.697 38.4466 27.7012 38.4721 27.7102 38.4961C27.7192 38.5201 27.7329 38.542 27.7504 38.5607C27.7686 38.5803 27.7907 38.5959 27.8153 38.6065C27.8398 38.6172 27.8663 38.6226 27.893 38.6226C27.9407 38.6226 27.9886 38.6053 28.0261 38.5701L28.3292 38.287C28.348 38.2695 28.3631 38.2485 28.3737 38.2252C28.3844 38.2019 28.3903 38.1767 28.3912 38.1511C28.392 38.1254 28.3878 38.0999 28.3788 38.0759C28.3698 38.0519 28.3561 38.0299 28.3386 38.0112C28.3211 37.9925 28.3001 37.9774 28.2768 37.9667C28.2535 37.9561 28.2283 37.9502 28.2027 37.9493C28.1771 37.9485 28.1516 37.9526 28.1276 37.9617C28.1036 37.9707 28.0816 37.9843 28.0629 38.0018Z" fill="url(#paint55_linear_1_1206)"/>
<path d="M28.2187 28.4187C26.6276 28.4187 25.2951 29.3393 24.9739 30.5631C24.9733 30.5647 24.9726 30.5661 24.972 30.5678C24.9595 30.6071 24.9495 30.6531 24.9418 30.703C24.914 30.8447 24.8999 30.9887 24.8998 31.1331C24.8998 32.6299 26.3886 33.8476 28.2187 33.8476C30.049 33.8476 31.5377 32.63 31.5377 31.1331C31.5376 29.6364 30.0488 28.4187 28.2187 28.4187ZM28.2187 33.5234C26.8731 33.5234 25.7322 32.8113 25.3559 31.8346C25.5236 31.9194 25.703 31.893 25.8432 31.8722C25.9423 31.8578 26.0359 31.8439 26.1117 31.8642C26.2657 31.905 26.3644 32.105 26.4599 32.2983C26.4974 32.3738 26.5328 32.4454 26.5724 32.5101C26.8196 32.9116 27.2299 33.0475 27.6175 32.8572C27.681 32.8263 27.739 32.7937 27.7948 32.763C27.9999 32.6487 28.1234 32.5796 28.359 32.6484C28.4723 32.6812 28.5796 32.7296 28.6932 32.7811C28.9058 32.8769 29.1253 32.9759 29.3941 32.9759C29.4123 32.9759 29.4308 32.9754 29.4494 32.9744C29.8774 32.9529 30.0518 32.7189 30.2058 32.5125C30.287 32.4035 30.3637 32.3004 30.4786 32.218C30.5425 32.172 30.6305 32.1636 30.7324 32.1541C30.798 32.1478 30.8709 32.1402 30.9445 32.1215C30.4725 32.9474 29.4285 33.5234 28.2187 33.5234ZM31.1681 31.5444C31.1614 31.5516 31.1553 31.5594 31.1501 31.5677C31.0714 31.6932 30.985 31.77 30.8861 31.8017C30.8327 31.8187 30.7691 31.8249 30.7018 31.8313C30.5718 31.8433 30.4247 31.8573 30.2894 31.9545C30.1338 32.0665 30.0339 32.2003 29.946 32.3186C29.8032 32.51 29.7087 32.6365 29.4331 32.6503C29.2164 32.6621 29.0275 32.5759 28.8267 32.4853C28.7077 32.4315 28.5845 32.3761 28.4496 32.3367C28.0844 32.2307 27.857 32.3571 27.6372 32.4794C27.5862 32.5076 27.5328 32.5373 27.4747 32.5662C27.1368 32.7316 26.9245 32.4632 26.8486 32.3401C26.8166 32.2882 26.7846 32.2232 26.7507 32.1547C26.635 31.9207 26.491 31.6293 26.195 31.551C26.0547 31.5133 25.9174 31.5336 25.7959 31.5516C25.6183 31.5777 25.5214 31.5873 25.4363 31.4937C25.271 31.3124 25.2277 30.9805 25.2601 30.7616C25.4846 29.6195 26.7258 28.7429 28.2186 28.7429C29.8698 28.7429 31.2132 29.8151 31.2132 31.1331C31.2131 31.2715 31.198 31.4093 31.1681 31.5444Z" fill="url(#paint56_linear_1_1206)"/>
<path d="M28.2186 29.8745C27.5983 29.8745 27.1305 30.151 27.1305 30.5177C27.1305 30.7359 27.2968 30.9214 27.5614 31.0368C27.7052 31.1105 27.9055 31.1475 28.1028 31.1578L28.1063 31.158C28.1441 31.1599 28.1817 31.1611 28.2185 31.1611C28.2557 31.1611 28.2932 31.1598 28.3311 31.158C28.3322 31.158 28.3332 31.1578 28.3343 31.1578C28.5316 31.1477 28.732 31.1105 28.8757 31.0367C29.1403 30.9215 29.3068 30.7361 29.3068 30.5179C29.3068 30.1511 28.8389 29.8745 28.2186 29.8745ZM28.2186 30.8368C28.0253 30.8368 27.8614 30.8041 27.7352 30.7567C27.8237 30.7196 27.9913 30.6798 28.2186 30.6798C28.4462 30.6798 28.6138 30.7197 28.7019 30.7566C28.5759 30.8041 28.4121 30.8368 28.2186 30.8368ZM28.9772 30.5472C28.8177 30.4095 28.5019 30.3557 28.2186 30.3557C27.9355 30.3557 27.6194 30.4094 27.4599 30.5472C27.4567 30.5377 27.455 30.5277 27.4547 30.5176C27.4547 30.3876 27.7523 30.1986 28.2186 30.1986C28.6849 30.1986 28.9825 30.3876 28.9825 30.5176C28.9822 30.5277 28.9804 30.5377 28.9772 30.5472Z" fill="url(#paint57_linear_1_1206)"/>
<path d="M26.5742 29.5452C26.5448 29.5138 26.5042 29.4953 26.4612 29.4938C26.4183 29.4922 26.3765 29.5078 26.3449 29.5371L25.7909 30.0523C25.7671 30.0745 25.7506 30.1034 25.7434 30.1351C25.7362 30.1668 25.7387 30.2 25.7506 30.2303C25.7626 30.2606 25.7833 30.2866 25.8102 30.3049C25.8371 30.3232 25.8688 30.3331 25.9014 30.3331C25.941 30.3331 25.9805 30.3188 26.0117 30.2898L26.5658 29.7745C26.5973 29.7452 26.6159 29.7046 26.6175 29.6616C26.619 29.6186 26.6035 29.5767 26.5742 29.5452Z" fill="url(#paint58_linear_1_1206)"/>
<path d="M26.5917 31.0431C26.5799 31.0254 26.5647 31.0102 26.547 30.9983C26.5293 30.9865 26.5095 30.9783 26.4886 30.9741C26.4677 30.9699 26.4462 30.9699 26.4254 30.974C26.4045 30.9782 26.3846 30.9864 26.3669 30.9982C26.3492 31.01 26.334 31.0252 26.3222 31.0429C26.3103 31.0606 26.3021 31.0804 26.2979 31.1013C26.2938 31.1222 26.2938 31.1436 26.2979 31.1645C26.302 31.1854 26.3102 31.2053 26.322 31.223L26.6915 31.7772C26.716 31.8115 26.7528 31.8349 26.7942 31.8426C26.8357 31.8502 26.8784 31.8414 26.9135 31.818C26.9485 31.7946 26.9731 31.7585 26.982 31.7173C26.9909 31.6761 26.9834 31.6331 26.9611 31.5974L26.5917 31.0431Z" fill="url(#paint59_linear_1_1206)"/>
<path d="M26.906 30.1741L26.5199 30.3083C26.4997 30.3153 26.4812 30.3262 26.4653 30.3403C26.4494 30.3545 26.4365 30.3716 26.4272 30.3908C26.4179 30.4099 26.4125 30.4307 26.4113 30.452C26.4101 30.4732 26.413 30.4945 26.42 30.5146C26.4311 30.5465 26.4517 30.574 26.4791 30.5936C26.5066 30.6131 26.5394 30.6236 26.5731 30.6237C26.5908 30.6237 26.6088 30.6206 26.6263 30.6145L27.0126 30.4802C27.0521 30.4652 27.0841 30.4354 27.1019 30.3972C27.1197 30.3589 27.122 30.3152 27.1081 30.2754C27.0942 30.2355 27.0653 30.2026 27.0276 30.1837C26.9899 30.1648 26.9463 30.1613 26.906 30.1741Z" fill="url(#paint60_linear_1_1206)"/>
<path d="M28.5621 31.4329C28.5348 31.3998 28.4954 31.3789 28.4526 31.3748C28.4098 31.3707 28.3671 31.3837 28.3339 31.411C28.3008 31.4384 28.2799 31.4778 28.2758 31.5206C28.2717 31.5635 28.2847 31.6061 28.3121 31.6393L28.631 32.0255C28.6445 32.0419 28.6612 32.0555 28.68 32.0655C28.6987 32.0755 28.7193 32.0817 28.7405 32.0837C28.7617 32.0858 28.7831 32.0836 28.8035 32.0773C28.8238 32.0711 28.8427 32.0609 28.8591 32.0473C28.8922 32.0199 28.9131 31.9805 28.9172 31.9377C28.9213 31.8949 28.9082 31.8523 28.8809 31.8191L28.5621 31.4329Z" fill="url(#paint61_linear_1_1206)"/>
<path d="M30.3556 30.7544L29.7847 31.0761C29.7662 31.0865 29.7499 31.1005 29.7367 31.1172C29.7236 31.134 29.7139 31.1531 29.7082 31.1736C29.7025 31.1941 29.7009 31.2155 29.7035 31.2366C29.706 31.2577 29.7128 31.2781 29.7232 31.2966C29.7337 31.3152 29.7476 31.3315 29.7643 31.3446C29.7811 31.3578 29.8002 31.3675 29.8207 31.3733C29.8412 31.379 29.8626 31.3806 29.8837 31.3781C29.9048 31.3756 29.9252 31.3689 29.9438 31.3585L30.5147 31.0369C30.5522 31.0158 30.5797 30.9807 30.5913 30.9393C30.6029 30.8978 30.5976 30.8535 30.5765 30.816C30.5661 30.7974 30.5521 30.7811 30.5353 30.7679C30.5186 30.7548 30.4994 30.7451 30.4788 30.7393C30.4583 30.7336 30.4369 30.732 30.4157 30.7346C30.3946 30.7372 30.3741 30.7439 30.3556 30.7544Z" fill="url(#paint62_linear_1_1206)"/>
<path d="M29.9921 30.208C29.9967 30.229 30.0054 30.2489 30.0178 30.2664C30.0301 30.284 30.0459 30.299 30.064 30.3104C30.0822 30.3219 30.1025 30.3296 30.1237 30.3332C30.1449 30.3367 30.1666 30.336 30.1876 30.331C30.2085 30.3261 30.2282 30.3171 30.2456 30.3044C30.263 30.2918 30.2777 30.2759 30.2889 30.2575C30.3001 30.2391 30.3075 30.2187 30.3107 30.1974C30.3139 30.1762 30.3128 30.1545 30.3076 30.1337L30.123 29.3495C30.1181 29.3288 30.1092 29.3092 30.0968 29.2919C30.0844 29.2746 30.0687 29.26 30.0505 29.2488C30.0324 29.2376 30.0123 29.2301 29.9913 29.2267C29.9702 29.2233 29.9488 29.2241 29.928 29.229C29.9073 29.2339 29.8878 29.2427 29.8705 29.2552C29.8532 29.2676 29.8385 29.2833 29.8274 29.3014C29.8162 29.3195 29.8087 29.3396 29.8053 29.3606C29.8019 29.3816 29.8027 29.4031 29.8076 29.4238L29.9921 30.208Z" fill="url(#paint63_linear_1_1206)"/>
<path d="M29.2674 29.0189L28.8355 29.3211C28.8006 29.3459 28.7769 29.3835 28.7696 29.4257C28.7623 29.4679 28.772 29.5112 28.7965 29.5463C28.8211 29.5814 28.8586 29.6053 28.9007 29.6129C28.9429 29.6204 28.9863 29.611 29.0215 29.5866L29.4533 29.2844C29.4709 29.2723 29.4859 29.2567 29.4975 29.2388C29.509 29.2208 29.5169 29.2007 29.5207 29.1797C29.5244 29.1587 29.524 29.1371 29.5194 29.1162C29.5148 29.0954 29.5061 29.0756 29.4939 29.0581C29.4816 29.0406 29.466 29.0257 29.448 29.0143C29.43 29.0028 29.4098 28.995 29.3888 28.9914C29.3677 28.9877 29.3462 28.9883 29.3253 28.993C29.3045 28.9977 29.2848 29.0065 29.2674 29.0189Z" fill="url(#paint64_linear_1_1206)"/>
<path d="M27.2977 29.2807L27.7848 29.6501C27.8017 29.663 27.8211 29.6725 27.8416 29.6779C27.8622 29.6833 27.8837 29.6846 27.9048 29.6816C27.9258 29.6787 27.9461 29.6717 27.9645 29.6609C27.9828 29.6501 27.9989 29.6358 28.0117 29.6188C28.0246 29.6019 28.034 29.5826 28.0394 29.562C28.0448 29.5414 28.0461 29.52 28.0432 29.4989C28.0403 29.4778 28.0333 29.4575 28.0226 29.4391C28.0118 29.4207 27.9975 29.4047 27.9806 29.3918L27.4935 29.0223C27.4591 28.9982 27.4167 28.9884 27.3753 28.9949C27.3338 29.0014 27.2964 29.0237 27.2711 29.0571C27.2457 29.0906 27.2343 29.1326 27.2393 29.1743C27.2443 29.216 27.2652 29.2541 27.2977 29.2807Z" fill="url(#paint65_linear_1_1206)"/>
<path d="M27.4531 31.5686L27.2013 31.8039C27.1857 31.8184 27.1732 31.8358 27.1643 31.8552C27.1555 31.8745 27.1506 31.8955 27.1499 31.9167C27.1491 31.938 27.1526 31.9592 27.1601 31.9791C27.1676 31.9991 27.179 32.0173 27.1935 32.0328C27.2087 32.0491 27.227 32.062 27.2474 32.0709C27.2678 32.0797 27.2897 32.0843 27.312 32.0842C27.3516 32.0842 27.3913 32.0699 27.4225 32.0406L27.6743 31.8055C27.6899 31.791 27.7024 31.7735 27.7113 31.7541C27.7201 31.7348 27.725 31.7138 27.7257 31.6926C27.7265 31.6713 27.723 31.6501 27.7155 31.6301C27.708 31.6102 27.6966 31.5919 27.6821 31.5764C27.6676 31.5608 27.6501 31.5483 27.6308 31.5395C27.6114 31.5306 27.5905 31.5257 27.5692 31.525C27.5479 31.5243 27.5267 31.5278 27.5068 31.5352C27.4869 31.5427 27.4686 31.5541 27.4531 31.5686Z" fill="url(#paint66_linear_1_1206)"/>
<defs>
<linearGradient id="paint0_linear_1_1206" x1="20" y1="0" x2="20" y2="45.6124" gradientUnits="userSpaceOnUse">
<stop offset="0.161458" stop-color="#4A67FF"/>
<stop offset="0.510417" stop-color="#8C2CED" stop-opacity="0.937746"/>
<stop offset="0.755208" stop-color="#FA22F1" stop-opacity="0.87"/>
</linearGradient>
<linearGradient id="paint1_linear_1_1206" x1="10.9891" y1="34.2986" x2="10.9891" y2="40.8345" gradientUnits="userSpaceOnUse">
<stop offset="0.161458" stop-color="#4A67FF"/>
<stop offset="0.510417" stop-color="#8C2CED" stop-opacity="0.937746"/>
<stop offset="0.755208" stop-color="#FA22F1" stop-opacity="0.87"/>
</linearGradient>
<linearGradient id="paint2_linear_1_1206" x1="10.989" y1="36.0513" x2="10.989" y2="37.6002" gradientUnits="userSpaceOnUse">
<stop offset="0.161458" stop-color="#4A67FF"/>
<stop offset="0.510417" stop-color="#8C2CED" stop-opacity="0.937746"/>
<stop offset="0.755208" stop-color="#FA22F1" stop-opacity="0.87"/>
</linearGradient>
<linearGradient id="paint3_linear_1_1206" x1="8.53278" y1="35.5923" x2="8.53278" y2="36.6029" gradientUnits="userSpaceOnUse">
<stop offset="0.161458" stop-color="#4A67FF"/>
<stop offset="0.510417" stop-color="#8C2CED" stop-opacity="0.937746"/>
<stop offset="0.755208" stop-color="#FA22F1" stop-opacity="0.87"/>
</linearGradient>
<linearGradient id="paint4_linear_1_1206" x1="9.08871" y1="37.3713" x2="9.08871" y2="38.4239" gradientUnits="userSpaceOnUse">
<stop offset="0.161458" stop-color="#4A67FF"/>
<stop offset="0.510417" stop-color="#8C2CED" stop-opacity="0.937746"/>
<stop offset="0.755208" stop-color="#FA22F1" stop-opacity="0.87"/>
</linearGradient>
<linearGradient id="paint5_linear_1_1206" x1="9.23777" y1="36.4028" x2="9.23777" y2="36.9532" gradientUnits="userSpaceOnUse">
<stop offset="0.161458" stop-color="#4A67FF"/>
<stop offset="0.510417" stop-color="#8C2CED" stop-opacity="0.937746"/>
<stop offset="0.755208" stop-color="#FA22F1" stop-opacity="0.87"/>
</linearGradient>
<linearGradient id="paint6_linear_1_1206" x1="11.4439" y1="37.8564" x2="11.4439" y2="38.7118" gradientUnits="userSpaceOnUse">
<stop offset="0.161458" stop-color="#4A67FF"/>
<stop offset="0.510417" stop-color="#8C2CED" stop-opacity="0.937746"/>
<stop offset="0.755208" stop-color="#FA22F1" stop-opacity="0.87"/>
</linearGradient>
<linearGradient id="paint7_linear_1_1206" x1="13.3141" y1="37.085" x2="13.3141" y2="37.8625" gradientUnits="userSpaceOnUse">
<stop offset="0.161458" stop-color="#4A67FF"/>
<stop offset="0.510417" stop-color="#8C2CED" stop-opacity="0.937746"/>
<stop offset="0.755208" stop-color="#FA22F1" stop-opacity="0.87"/>
</linearGradient>
<linearGradient id="paint8_linear_1_1206" x1="13.2032" y1="35.2686" x2="13.2032" y2="36.6058" gradientUnits="userSpaceOnUse">
<stop offset="0.161458" stop-color="#4A67FF"/>
<stop offset="0.510417" stop-color="#8C2CED" stop-opacity="0.937746"/>
<stop offset="0.755208" stop-color="#FA22F1" stop-opacity="0.87"/>
</linearGradient>
<linearGradient id="paint9_linear_1_1206" x1="12.1046" y1="34.9854" x2="12.1046" y2="35.7395" gradientUnits="userSpaceOnUse">
<stop offset="0.161458" stop-color="#4A67FF"/>
<stop offset="0.510417" stop-color="#8C2CED" stop-opacity="0.937746"/>
<stop offset="0.755208" stop-color="#FA22F1" stop-opacity="0.87"/>
</linearGradient>
<linearGradient id="paint10_linear_1_1206" x1="10.2942" y1="34.99" x2="10.2942" y2="35.821" gradientUnits="userSpaceOnUse">
<stop offset="0.161458" stop-color="#4A67FF"/>
<stop offset="0.510417" stop-color="#8C2CED" stop-opacity="0.937746"/>
<stop offset="0.755208" stop-color="#FA22F1" stop-opacity="0.87"/>
</linearGradient>
<linearGradient id="paint11_linear_1_1206" x1="10.0489" y1="38.0386" x2="10.0489" y2="38.712" gradientUnits="userSpaceOnUse">
<stop offset="0.161458" stop-color="#4A67FF"/>
<stop offset="0.510417" stop-color="#8C2CED" stop-opacity="0.937746"/>
<stop offset="0.755208" stop-color="#FA22F1" stop-opacity="0.87"/>
</linearGradient>
<linearGradient id="paint12_linear_1_1206" x1="11.8267" y1="28.5078" x2="11.8267" y2="33.9367" gradientUnits="userSpaceOnUse">
<stop offset="0.161458" stop-color="#4A67FF"/>
<stop offset="0.510417" stop-color="#8C2CED" stop-opacity="0.937746"/>
<stop offset="0.755208" stop-color="#FA22F1" stop-opacity="0.87"/>
</linearGradient>
<linearGradient id="paint13_linear_1_1206" x1="11.8268" y1="29.9634" x2="11.8268" y2="31.25" gradientUnits="userSpaceOnUse">
<stop offset="0.161458" stop-color="#4A67FF"/>
<stop offset="0.510417" stop-color="#8C2CED" stop-opacity="0.937746"/>
<stop offset="0.755208" stop-color="#FA22F1" stop-opacity="0.87"/>
</linearGradient>
<linearGradient id="paint14_linear_1_1206" x1="9.7865" y1="29.5825" x2="9.7865" y2="30.422" gradientUnits="userSpaceOnUse">
<stop offset="0.161458" stop-color="#4A67FF"/>
<stop offset="0.510417" stop-color="#8C2CED" stop-opacity="0.937746"/>
<stop offset="0.755208" stop-color="#FA22F1" stop-opacity="0.87"/>
</linearGradient>
<linearGradient id="paint15_linear_1_1206" x1="10.2484" y1="31.0601" x2="10.2484" y2="31.9343" gradientUnits="userSpaceOnUse">
<stop offset="0.161458" stop-color="#4A67FF"/>
<stop offset="0.510417" stop-color="#8C2CED" stop-opacity="0.937746"/>
<stop offset="0.755208" stop-color="#FA22F1" stop-opacity="0.87"/>
</linearGradient>
<linearGradient id="paint16_linear_1_1206" x1="10.3721" y1="30.2554" x2="10.3721" y2="30.7125" gradientUnits="userSpaceOnUse">
<stop offset="0.161458" stop-color="#4A67FF"/>
<stop offset="0.510417" stop-color="#8C2CED" stop-opacity="0.937746"/>
<stop offset="0.755208" stop-color="#FA22F1" stop-opacity="0.87"/>
</linearGradient>
<linearGradient id="paint17_linear_1_1206" x1="12.2045" y1="31.4631" x2="12.2045" y2="32.1736" gradientUnits="userSpaceOnUse">
<stop offset="0.161458" stop-color="#4A67FF"/>
<stop offset="0.510417" stop-color="#8C2CED" stop-opacity="0.937746"/>
<stop offset="0.755208" stop-color="#FA22F1" stop-opacity="0.87"/>
</linearGradient>
<linearGradient id="paint18_linear_1_1206" x1="13.7578" y1="30.8223" x2="13.7578" y2="31.4681" gradientUnits="userSpaceOnUse">
<stop offset="0.161458" stop-color="#4A67FF"/>
<stop offset="0.510417" stop-color="#8C2CED" stop-opacity="0.937746"/>
<stop offset="0.755208" stop-color="#FA22F1" stop-opacity="0.87"/>
</linearGradient>
<linearGradient id="paint19_linear_1_1206" x1="13.6659" y1="29.3137" x2="13.6659" y2="30.4245" gradientUnits="userSpaceOnUse">
<stop offset="0.161458" stop-color="#4A67FF"/>
<stop offset="0.510417" stop-color="#8C2CED" stop-opacity="0.937746"/>
<stop offset="0.755208" stop-color="#FA22F1" stop-opacity="0.87"/>
</linearGradient>
<linearGradient id="paint20_linear_1_1206" x1="12.7535" y1="29.0781" x2="12.7535" y2="29.7045" gradientUnits="userSpaceOnUse">
<stop offset="0.161458" stop-color="#4A67FF"/>
<stop offset="0.510417" stop-color="#8C2CED" stop-opacity="0.937746"/>
<stop offset="0.755208" stop-color="#FA22F1" stop-opacity="0.87"/>
</linearGradient>
<linearGradient id="paint21_linear_1_1206" x1="11.2496" y1="29.082" x2="11.2496" y2="29.7723" gradientUnits="userSpaceOnUse">
<stop offset="0.161458" stop-color="#4A67FF"/>
<stop offset="0.510417" stop-color="#8C2CED" stop-opacity="0.937746"/>
<stop offset="0.755208" stop-color="#FA22F1" stop-opacity="0.87"/>
</linearGradient>
<linearGradient id="paint22_linear_1_1206" x1="11.046" y1="31.614" x2="11.046" y2="32.1733" gradientUnits="userSpaceOnUse">
<stop offset="0.161458" stop-color="#4A67FF"/>
<stop offset="0.510417" stop-color="#8C2CED" stop-opacity="0.937746"/>
<stop offset="0.755208" stop-color="#FA22F1" stop-opacity="0.87"/>
</linearGradient>
<linearGradient id="paint23_linear_1_1206" x1="19.9868" y1="34.0312" x2="19.9868" y2="40.5672" gradientUnits="userSpaceOnUse">
<stop offset="0.161458" stop-color="#4A67FF"/>
<stop offset="0.510417" stop-color="#8C2CED" stop-opacity="0.937746"/>
<stop offset="0.755208" stop-color="#FA22F1" stop-opacity="0.87"/>
</linearGradient>
<linearGradient id="paint24_linear_1_1206" x1="19.9868" y1="35.7839" x2="19.9868" y2="37.3329" gradientUnits="userSpaceOnUse">
<stop offset="0.161458" stop-color="#4A67FF"/>
<stop offset="0.510417" stop-color="#8C2CED" stop-opacity="0.937746"/>
<stop offset="0.755208" stop-color="#FA22F1" stop-opacity="0.87"/>
</linearGradient>
<linearGradient id="paint25_linear_1_1206" x1="17.5305" y1="35.3252" x2="17.5305" y2="36.3358" gradientUnits="userSpaceOnUse">
<stop offset="0.161458" stop-color="#4A67FF"/>
<stop offset="0.510417" stop-color="#8C2CED" stop-opacity="0.937746"/>
<stop offset="0.755208" stop-color="#FA22F1" stop-opacity="0.87"/>
</linearGradient>
<linearGradient id="paint26_linear_1_1206" x1="18.0865" y1="37.104" x2="18.0865" y2="38.1566" gradientUnits="userSpaceOnUse">
<stop offset="0.161458" stop-color="#4A67FF"/>
<stop offset="0.510417" stop-color="#8C2CED" stop-opacity="0.937746"/>
<stop offset="0.755208" stop-color="#FA22F1" stop-opacity="0.87"/>
</linearGradient>
<linearGradient id="paint27_linear_1_1206" x1="18.2356" y1="36.1355" x2="18.2356" y2="36.6859" gradientUnits="userSpaceOnUse">
<stop offset="0.161458" stop-color="#4A67FF"/>
<stop offset="0.510417" stop-color="#8C2CED" stop-opacity="0.937746"/>
<stop offset="0.755208" stop-color="#FA22F1" stop-opacity="0.87"/>
</linearGradient>
<linearGradient id="paint28_linear_1_1206" x1="20.4416" y1="37.5894" x2="20.4416" y2="38.4447" gradientUnits="userSpaceOnUse">
<stop offset="0.161458" stop-color="#4A67FF"/>
<stop offset="0.510417" stop-color="#8C2CED" stop-opacity="0.937746"/>
<stop offset="0.755208" stop-color="#FA22F1" stop-opacity="0.87"/>
</linearGradient>
<linearGradient id="paint29_linear_1_1206" x1="22.3117" y1="36.8179" x2="22.3117" y2="37.5954" gradientUnits="userSpaceOnUse">
<stop offset="0.161458" stop-color="#4A67FF"/>
<stop offset="0.510417" stop-color="#8C2CED" stop-opacity="0.937746"/>
<stop offset="0.755208" stop-color="#FA22F1" stop-opacity="0.87"/>
</linearGradient>
<linearGradient id="paint30_linear_1_1206" x1="22.201" y1="35.0015" x2="22.201" y2="36.3387" gradientUnits="userSpaceOnUse">
<stop offset="0.161458" stop-color="#4A67FF"/>
<stop offset="0.510417" stop-color="#8C2CED" stop-opacity="0.937746"/>
<stop offset="0.755208" stop-color="#FA22F1" stop-opacity="0.87"/>
</linearGradient>
<linearGradient id="paint31_linear_1_1206" x1="21.1024" y1="34.718" x2="21.1024" y2="35.4721" gradientUnits="userSpaceOnUse">
<stop offset="0.161458" stop-color="#4A67FF"/>
<stop offset="0.510417" stop-color="#8C2CED" stop-opacity="0.937746"/>
<stop offset="0.755208" stop-color="#FA22F1" stop-opacity="0.87"/>
</linearGradient>
<linearGradient id="paint32_linear_1_1206" x1="19.2919" y1="34.7227" x2="19.2919" y2="35.5537" gradientUnits="userSpaceOnUse">
<stop offset="0.161458" stop-color="#4A67FF"/>
<stop offset="0.510417" stop-color="#8C2CED" stop-opacity="0.937746"/>
<stop offset="0.755208" stop-color="#FA22F1" stop-opacity="0.87"/>
</linearGradient>
<linearGradient id="paint33_linear_1_1206" x1="19.0467" y1="37.7712" x2="19.0467" y2="38.4446" gradientUnits="userSpaceOnUse">
<stop offset="0.161458" stop-color="#4A67FF"/>
<stop offset="0.510417" stop-color="#8C2CED" stop-opacity="0.937746"/>
<stop offset="0.755208" stop-color="#FA22F1" stop-opacity="0.87"/>
</linearGradient>
<linearGradient id="paint34_linear_1_1206" x1="20.0227" y1="28.4187" x2="20.0227" y2="33.8476" gradientUnits="userSpaceOnUse">
<stop offset="0.161458" stop-color="#4A67FF"/>
<stop offset="0.510417" stop-color="#8C2CED" stop-opacity="0.937746"/>
<stop offset="0.755208" stop-color="#FA22F1" stop-opacity="0.87"/>
</linearGradient>
<linearGradient id="paint35_linear_1_1206" x1="20.0227" y1="29.8745" x2="20.0227" y2="31.1611" gradientUnits="userSpaceOnUse">
<stop offset="0.161458" stop-color="#4A67FF"/>
<stop offset="0.510417" stop-color="#8C2CED" stop-opacity="0.937746"/>
<stop offset="0.755208" stop-color="#FA22F1" stop-opacity="0.87"/>
</linearGradient>
<linearGradient id="paint36_linear_1_1206" x1="17.9824" y1="29.4937" x2="17.9824" y2="30.3331" gradientUnits="userSpaceOnUse">
<stop offset="0.161458" stop-color="#4A67FF"/>
<stop offset="0.510417" stop-color="#8C2CED" stop-opacity="0.937746"/>
<stop offset="0.755208" stop-color="#FA22F1" stop-opacity="0.87"/>
</linearGradient>
<linearGradient id="paint37_linear_1_1206" x1="18.4443" y1="30.9709" x2="18.4443" y2="31.8452" gradientUnits="userSpaceOnUse">
<stop offset="0.161458" stop-color="#4A67FF"/>
<stop offset="0.510417" stop-color="#8C2CED" stop-opacity="0.937746"/>
<stop offset="0.755208" stop-color="#FA22F1" stop-opacity="0.87"/>
</linearGradient>
<linearGradient id="paint38_linear_1_1206" x1="18.5681" y1="30.1665" x2="18.5681" y2="30.6237" gradientUnits="userSpaceOnUse">
<stop offset="0.161458" stop-color="#4A67FF"/>
<stop offset="0.510417" stop-color="#8C2CED" stop-opacity="0.937746"/>
<stop offset="0.755208" stop-color="#FA22F1" stop-opacity="0.87"/>
</linearGradient>
<linearGradient id="paint39_linear_1_1206" x1="20.4004" y1="31.374" x2="20.4004" y2="32.0845" gradientUnits="userSpaceOnUse">
<stop offset="0.161458" stop-color="#4A67FF"/>
<stop offset="0.510417" stop-color="#8C2CED" stop-opacity="0.937746"/>
<stop offset="0.755208" stop-color="#FA22F1" stop-opacity="0.87"/>
</linearGradient>
<linearGradient id="paint40_linear_1_1206" x1="21.9539" y1="30.7334" x2="21.9539" y2="31.3793" gradientUnits="userSpaceOnUse">
<stop offset="0.161458" stop-color="#4A67FF"/>
<stop offset="0.510417" stop-color="#8C2CED" stop-opacity="0.937746"/>
<stop offset="0.755208" stop-color="#FA22F1" stop-opacity="0.87"/>
</linearGradient>
<linearGradient id="paint41_linear_1_1206" x1="21.8619" y1="29.2246" x2="21.8619" y2="30.3354" gradientUnits="userSpaceOnUse">
<stop offset="0.161458" stop-color="#4A67FF"/>
<stop offset="0.510417" stop-color="#8C2CED" stop-opacity="0.937746"/>
<stop offset="0.755208" stop-color="#FA22F1" stop-opacity="0.87"/>
</linearGradient>
<linearGradient id="paint42_linear_1_1206" x1="20.9494" y1="28.989" x2="20.9494" y2="29.6154" gradientUnits="userSpaceOnUse">
<stop offset="0.161458" stop-color="#4A67FF"/>
<stop offset="0.510417" stop-color="#8C2CED" stop-opacity="0.937746"/>
<stop offset="0.755208" stop-color="#FA22F1" stop-opacity="0.87"/>
</linearGradient>
<linearGradient id="paint43_linear_1_1206" x1="19.4455" y1="28.9929" x2="19.4455" y2="29.6832" gradientUnits="userSpaceOnUse">
<stop offset="0.161458" stop-color="#4A67FF"/>
<stop offset="0.510417" stop-color="#8C2CED" stop-opacity="0.937746"/>
<stop offset="0.755208" stop-color="#FA22F1" stop-opacity="0.87"/>
</linearGradient>
<linearGradient id="paint44_linear_1_1206" x1="19.242" y1="31.5249" x2="19.242" y2="32.0842" gradientUnits="userSpaceOnUse">
<stop offset="0.161458" stop-color="#4A67FF"/>
<stop offset="0.510417" stop-color="#8C2CED" stop-opacity="0.937746"/>
<stop offset="0.755208" stop-color="#FA22F1" stop-opacity="0.87"/>
</linearGradient>
<linearGradient id="paint45_linear_1_1206" x1="28.9846" y1="34.2092" x2="28.9846" y2="40.7451" gradientUnits="userSpaceOnUse">
<stop offset="0.161458" stop-color="#4A67FF"/>
<stop offset="0.510417" stop-color="#8C2CED" stop-opacity="0.937746"/>
<stop offset="0.755208" stop-color="#FA22F1" stop-opacity="0.87"/>
</linearGradient>
<linearGradient id="paint46_linear_1_1206" x1="28.9845" y1="35.9619" x2="28.9845" y2="37.5109" gradientUnits="userSpaceOnUse">
<stop offset="0.161458" stop-color="#4A67FF"/>
<stop offset="0.510417" stop-color="#8C2CED" stop-opacity="0.937746"/>
<stop offset="0.755208" stop-color="#FA22F1" stop-opacity="0.87"/>
</linearGradient>
<linearGradient id="paint47_linear_1_1206" x1="26.5281" y1="35.5032" x2="26.5281" y2="36.5138" gradientUnits="userSpaceOnUse">
<stop offset="0.161458" stop-color="#4A67FF"/>
<stop offset="0.510417" stop-color="#8C2CED" stop-opacity="0.937746"/>
<stop offset="0.755208" stop-color="#FA22F1" stop-opacity="0.87"/>
</linearGradient>
<linearGradient id="paint48_linear_1_1206" x1="27.0841" y1="37.2822" x2="27.0841" y2="38.3348" gradientUnits="userSpaceOnUse">
<stop offset="0.161458" stop-color="#4A67FF"/>
<stop offset="0.510417" stop-color="#8C2CED" stop-opacity="0.937746"/>
<stop offset="0.755208" stop-color="#FA22F1" stop-opacity="0.87"/>
</linearGradient>
<linearGradient id="paint49_linear_1_1206" x1="27.2333" y1="36.3135" x2="27.2333" y2="36.8638" gradientUnits="userSpaceOnUse">
<stop offset="0.161458" stop-color="#4A67FF"/>
<stop offset="0.510417" stop-color="#8C2CED" stop-opacity="0.937746"/>
<stop offset="0.755208" stop-color="#FA22F1" stop-opacity="0.87"/>
</linearGradient>
<linearGradient id="paint50_linear_1_1206" x1="29.4393" y1="37.7673" x2="29.4393" y2="38.6227" gradientUnits="userSpaceOnUse">
<stop offset="0.161458" stop-color="#4A67FF"/>
<stop offset="0.510417" stop-color="#8C2CED" stop-opacity="0.937746"/>
<stop offset="0.755208" stop-color="#FA22F1" stop-opacity="0.87"/>
</linearGradient>
<linearGradient id="paint51_linear_1_1206" x1="31.3094" y1="36.9958" x2="31.3094" y2="37.7734" gradientUnits="userSpaceOnUse">
<stop offset="0.161458" stop-color="#4A67FF"/>
<stop offset="0.510417" stop-color="#8C2CED" stop-opacity="0.937746"/>
<stop offset="0.755208" stop-color="#FA22F1" stop-opacity="0.87"/>
</linearGradient>
<linearGradient id="paint52_linear_1_1206" x1="31.1987" y1="35.1794" x2="31.1987" y2="36.5167" gradientUnits="userSpaceOnUse">
<stop offset="0.161458" stop-color="#4A67FF"/>
<stop offset="0.510417" stop-color="#8C2CED" stop-opacity="0.937746"/>
<stop offset="0.755208" stop-color="#FA22F1" stop-opacity="0.87"/>
</linearGradient>
<linearGradient id="paint53_linear_1_1206" x1="30.1001" y1="34.896" x2="30.1001" y2="35.6501" gradientUnits="userSpaceOnUse">
<stop offset="0.161458" stop-color="#4A67FF"/>
<stop offset="0.510417" stop-color="#8C2CED" stop-opacity="0.937746"/>
<stop offset="0.755208" stop-color="#FA22F1" stop-opacity="0.87"/>
</linearGradient>
<linearGradient id="paint54_linear_1_1206" x1="28.2896" y1="34.9006" x2="28.2896" y2="35.7316" gradientUnits="userSpaceOnUse">
<stop offset="0.161458" stop-color="#4A67FF"/>
<stop offset="0.510417" stop-color="#8C2CED" stop-opacity="0.937746"/>
<stop offset="0.755208" stop-color="#FA22F1" stop-opacity="0.87"/>
</linearGradient>
<linearGradient id="paint55_linear_1_1206" x1="28.0445" y1="37.9492" x2="28.0445" y2="38.6226" gradientUnits="userSpaceOnUse">
<stop offset="0.161458" stop-color="#4A67FF"/>
<stop offset="0.510417" stop-color="#8C2CED" stop-opacity="0.937746"/>
<stop offset="0.755208" stop-color="#FA22F1" stop-opacity="0.87"/>
</linearGradient>
<linearGradient id="paint56_linear_1_1206" x1="28.2187" y1="28.4187" x2="28.2187" y2="33.8476" gradientUnits="userSpaceOnUse">
<stop offset="0.161458" stop-color="#4A67FF"/>
<stop offset="0.510417" stop-color="#8C2CED" stop-opacity="0.937746"/>
<stop offset="0.755208" stop-color="#FA22F1" stop-opacity="0.87"/>
</linearGradient>
<linearGradient id="paint57_linear_1_1206" x1="28.2186" y1="29.8745" x2="28.2186" y2="31.1611" gradientUnits="userSpaceOnUse">
<stop offset="0.161458" stop-color="#4A67FF"/>
<stop offset="0.510417" stop-color="#8C2CED" stop-opacity="0.937746"/>
<stop offset="0.755208" stop-color="#FA22F1" stop-opacity="0.87"/>
</linearGradient>
<linearGradient id="paint58_linear_1_1206" x1="26.1785" y1="29.4937" x2="26.1785" y2="30.3331" gradientUnits="userSpaceOnUse">
<stop offset="0.161458" stop-color="#4A67FF"/>
<stop offset="0.510417" stop-color="#8C2CED" stop-opacity="0.937746"/>
<stop offset="0.755208" stop-color="#FA22F1" stop-opacity="0.87"/>
</linearGradient>
<linearGradient id="paint59_linear_1_1206" x1="26.6402" y1="30.9709" x2="26.6402" y2="31.8452" gradientUnits="userSpaceOnUse">
<stop offset="0.161458" stop-color="#4A67FF"/>
<stop offset="0.510417" stop-color="#8C2CED" stop-opacity="0.937746"/>
<stop offset="0.755208" stop-color="#FA22F1" stop-opacity="0.87"/>
</linearGradient>
<linearGradient id="paint60_linear_1_1206" x1="26.7641" y1="30.1665" x2="26.7641" y2="30.6237" gradientUnits="userSpaceOnUse">
<stop offset="0.161458" stop-color="#4A67FF"/>
<stop offset="0.510417" stop-color="#8C2CED" stop-opacity="0.937746"/>
<stop offset="0.755208" stop-color="#FA22F1" stop-opacity="0.87"/>
</linearGradient>
<linearGradient id="paint61_linear_1_1206" x1="28.5965" y1="31.374" x2="28.5965" y2="32.0845" gradientUnits="userSpaceOnUse">
<stop offset="0.161458" stop-color="#4A67FF"/>
<stop offset="0.510417" stop-color="#8C2CED" stop-opacity="0.937746"/>
<stop offset="0.755208" stop-color="#FA22F1" stop-opacity="0.87"/>
</linearGradient>
<linearGradient id="paint62_linear_1_1206" x1="30.1498" y1="30.7334" x2="30.1498" y2="31.3793" gradientUnits="userSpaceOnUse">
<stop offset="0.161458" stop-color="#4A67FF"/>
<stop offset="0.510417" stop-color="#8C2CED" stop-opacity="0.937746"/>
<stop offset="0.755208" stop-color="#FA22F1" stop-opacity="0.87"/>
</linearGradient>
<linearGradient id="paint63_linear_1_1206" x1="30.0579" y1="29.2246" x2="30.0579" y2="30.3354" gradientUnits="userSpaceOnUse">
<stop offset="0.161458" stop-color="#4A67FF"/>
<stop offset="0.510417" stop-color="#8C2CED" stop-opacity="0.937746"/>
<stop offset="0.755208" stop-color="#FA22F1" stop-opacity="0.87"/>
</linearGradient>
<linearGradient id="paint64_linear_1_1206" x1="29.1452" y1="28.989" x2="29.1452" y2="29.6154" gradientUnits="userSpaceOnUse">
<stop offset="0.161458" stop-color="#4A67FF"/>
<stop offset="0.510417" stop-color="#8C2CED" stop-opacity="0.937746"/>
<stop offset="0.755208" stop-color="#FA22F1" stop-opacity="0.87"/>
</linearGradient>
<linearGradient id="paint65_linear_1_1206" x1="27.6414" y1="28.9929" x2="27.6414" y2="29.6832" gradientUnits="userSpaceOnUse">
<stop offset="0.161458" stop-color="#4A67FF"/>
<stop offset="0.510417" stop-color="#8C2CED" stop-opacity="0.937746"/>
<stop offset="0.755208" stop-color="#FA22F1" stop-opacity="0.87"/>
</linearGradient>
<linearGradient id="paint66_linear_1_1206" x1="27.4378" y1="31.5249" x2="27.4378" y2="32.0842" gradientUnits="userSpaceOnUse">
<stop offset="0.161458" stop-color="#4A67FF"/>
<stop offset="0.510417" stop-color="#8C2CED" stop-opacity="0.937746"/>
<stop offset="0.755208" stop-color="#FA22F1" stop-opacity="0.87"/>
</linearGradient>
</defs>
</svg>
