<svg width="40" height="40" viewBox="0 0 40 40" fill="none" xmlns="http://www.w3.org/2000/svg">
<path d="M13.4494 11.1961C13.4494 11.2056 13.4494 11.2159 13.4486 11.2254C13.4336 13.5826 11.5418 15.4887 9.20918 15.4887C8.84929 15.489 8.49086 15.4429 8.14278 15.3515C7.31051 15.1236 6.56577 14.6512 6.00487 13.9955C5.44398 13.3397 5.09274 12.5308 4.99658 11.6732C4.90043 10.8157 5.06378 9.94905 5.46552 9.18536C5.86725 8.42168 6.48889 7.7961 7.25001 7.38954C7.9088 7.04192 8.64821 6.87582 9.39238 6.90829C10.1366 6.94075 10.8587 7.1706 11.4847 7.57426C12.0891 7.9653 12.5858 8.50179 12.929 9.13458C13.2723 9.76737 13.4512 10.4762 13.4494 11.1961Z" fill="#66C1FF"/>
<path d="M9.2094 6.9043C9.01042 6.90456 8.8117 6.91889 8.61475 6.94717C10.6747 7.24001 12.2599 9.03034 12.2599 11.1964C12.2599 13.3624 10.6747 15.1527 8.61475 15.4455C8.8117 15.4738 9.01042 15.4882 9.2094 15.4884C11.551 15.4884 13.4492 13.5668 13.4492 11.1964C13.4492 8.82593 11.551 6.9043 9.2094 6.9043Z" fill="#4EB7FF"/>
<path d="M13.4486 11.2254C10.385 15.4037 8.59531 17.346 8.07955 17.0524C7.85158 16.9225 7.87264 16.3555 8.14275 15.3514C8.15702 12.9942 10.0504 11.0882 12.3822 11.0882C12.7421 11.0879 13.1005 11.134 13.4486 11.2254Z" fill="#4EB7FF"/>
<path d="M5.33818 19.7805C7.67978 19.7805 9.57802 17.8588 9.57802 15.4884C9.57802 13.1179 7.67978 11.1963 5.33818 11.1963C2.99657 11.1963 1.09833 13.1179 1.09833 15.4884C1.09833 17.8588 2.99657 19.7805 5.33818 19.7805Z" fill="#FF66B3"/>
<path d="M5.33806 11.1963C5.13908 11.1965 4.94037 11.2109 4.74341 11.2392C6.80332 11.532 8.38858 13.3223 8.38858 15.4884C8.38858 17.6544 6.80332 19.4447 4.74341 19.7376C4.94037 19.7659 5.13908 19.7802 5.33806 19.7804C7.67965 19.7804 9.57788 17.8588 9.57788 15.4884C9.57788 13.1179 7.67965 11.1963 5.33806 11.1963Z" fill="#FF4EA7"/>
<path d="M13.0805 20.3449C15.4221 20.3449 17.3203 18.4233 17.3203 16.0528C17.3203 13.6823 15.4221 11.7607 13.0805 11.7607C10.7389 11.7607 8.84064 13.6823 8.84064 16.0528C8.84064 18.4233 10.7389 20.3449 13.0805 20.3449Z" fill="#63EA86"/>
<path d="M13.0806 11.7607C12.8816 11.761 12.6829 11.7753 12.4859 11.8036C14.5458 12.0964 16.1311 13.8868 16.1311 16.0528C16.1311 18.2188 14.5458 20.0091 12.4859 20.302C12.6829 20.3303 12.8816 20.3446 13.0806 20.3448C15.4221 20.3448 17.3204 18.4232 17.3204 16.0528C17.3204 13.6823 15.4221 11.7607 13.0806 11.7607Z" fill="#3CE568"/>
<path d="M18.4187 16.4728L0 16.4728C0.477177 20.4017 2.79936 23.8692 6.1517 25.9425C6.93821 26.4289 8.04064 26.955 8.04064 28.0222V36.1503C8.0411 36.2936 7.99814 36.4338 7.9174 36.5522C7.83667 36.6707 7.72196 36.7619 7.58836 36.8139L2.96491 38.5913C2.80737 38.6529 2.67612 38.7673 2.59363 38.9149C2.51114 39.0626 2.48253 39.2343 2.51269 39.4008C2.54286 39.5672 2.62992 39.718 2.75899 39.8273C2.88806 39.9366 3.05111 39.9977 3.22024 40.0001H15.1984C15.3676 39.9977 15.5306 39.9366 15.6597 39.8273C15.7888 39.718 15.8758 39.5672 15.906 39.4008C15.9362 39.2343 15.9075 39.0626 15.825 38.9149C15.7426 38.7673 15.6113 38.6529 15.4538 38.5913L10.8303 36.8139C10.6967 36.7619 10.582 36.6707 10.5013 36.5522C10.4205 36.4338 10.3776 36.2936 10.378 36.1503V31.3147C10.378 30.2623 10.1823 29.1735 10.4065 28.1323C10.6579 26.9646 11.4553 26.4976 12.3798 25.8765C15.5754 23.7299 17.9497 20.334 18.4187 16.4728Z" fill="#EEEEEE"/>
<path d="M15.4538 38.5913L10.8304 36.8139C10.6968 36.7619 10.5821 36.6707 10.5013 36.5522C10.4206 36.4338 10.3776 36.2936 10.3781 36.1503V31.3146C10.3781 30.2623 10.1824 29.1735 10.4066 28.1323C10.658 26.9646 11.4553 26.4976 12.3799 25.8765C15.5754 23.7299 17.9498 20.334 18.4187 16.4728H17.2294C16.7605 20.334 14.3861 23.7299 11.1906 25.8765C10.266 26.4976 9.46868 26.9646 9.21728 28.1323C8.9931 29.1735 9.18879 30.2624 9.18879 31.3146V36.1503C9.18833 36.2936 9.23129 36.4338 9.31202 36.5522C9.39275 36.6707 9.50747 36.7619 9.64107 36.8139L14.2645 38.5913C14.4221 38.6528 14.5533 38.7673 14.6358 38.9149C14.7183 39.0626 14.7469 39.2343 14.7167 39.4008C14.6866 39.5672 14.5995 39.718 14.4704 39.8273C14.3414 39.9366 14.1783 39.9977 14.0092 40H15.1985C15.3676 39.9977 15.5307 39.9366 15.6597 39.8273C15.7888 39.718 15.8759 39.5672 15.906 39.4008C15.9362 39.2343 15.9076 39.0626 15.8251 38.9149C15.7426 38.7673 15.6114 38.6528 15.4538 38.5913Z" fill="#DEDEDE"/>
<path d="M9.37152 5.2156C9.23394 5.21542 9.10068 5.16754 8.99444 5.08014C8.88819 4.99273 8.81553 4.8712 8.78883 4.73624C8.71779 4.37697 8.43131 2.51389 9.77229 1.11329C10.3169 0.552576 11.0178 0.169061 11.7837 0.0128057C11.938 -0.0197378 12.0989 0.0103258 12.231 0.0963854C12.3631 0.182445 12.4557 0.317454 12.4882 0.471724C12.5208 0.625993 12.4908 0.786892 12.4048 0.919037C12.3188 1.05118 12.1838 1.14376 12.0296 1.1764C11.4979 1.28347 11.0107 1.54806 10.6314 1.93574C9.67755 2.93193 9.92424 4.3474 9.95552 4.5055C9.97252 4.59176 9.9702 4.68071 9.94871 4.76595C9.92723 4.8512 9.88713 4.93063 9.83129 4.99853C9.77545 5.06643 9.70525 5.12111 9.62575 5.15864C9.54626 5.19618 9.45943 5.21563 9.37152 5.2156Z" fill="#4A4F60"/>
<path d="M11.4847 7.57426C11.4378 8.11932 11.1821 8.62516 10.771 8.98617C10.36 9.34717 9.82536 9.5354 9.27881 9.51156C8.73226 9.48772 8.21606 9.25364 7.83801 8.85822C7.45995 8.4628 7.24929 7.93661 7.25 7.38954C7.90879 7.04192 8.6482 6.87582 9.39237 6.90829C10.1365 6.94075 10.8587 7.1706 11.4847 7.57426Z" fill="#4EB7FF"/>
<path d="M9.37226 8.91935C10.5448 8.91935 11.4953 7.95711 11.4953 6.77013C11.4953 5.58315 10.5448 4.62091 9.37226 4.62091C8.19973 4.62091 7.24921 5.58315 7.24921 6.77013C7.24921 7.95711 8.19973 8.91935 9.37226 8.91935Z" fill="#FF6666"/>
<path d="M9.37218 4.62091C9.17086 4.62094 8.97059 4.64993 8.77753 4.70699C9.21975 4.84166 9.607 5.11487 9.88218 5.48632C10.1574 5.85777 10.3059 6.30782 10.3059 6.7701C10.3059 7.23237 10.1574 7.68242 9.88218 8.05387C9.607 8.42533 9.21975 8.69853 8.77753 8.8332C8.97059 8.89027 9.17086 8.91926 9.37218 8.91928C9.93761 8.91235 10.4775 8.68287 10.8749 8.28058C11.2723 7.87828 11.4952 7.33558 11.4952 6.7701C11.4952 6.20462 11.2723 5.66192 10.8749 5.25962C10.4775 4.85732 9.93761 4.62784 9.37218 4.62091Z" fill="#FF4E4E"/>
<path d="M34.3246 39.9999H23.1105C22.8358 39.9999 22.5696 39.9049 22.3571 39.7309C22.1445 39.5569 21.9988 39.3147 21.9446 39.0454L19.7582 28.1862H37.6769L35.4905 39.0454C35.4363 39.3147 35.2906 39.5569 35.078 39.7309C34.8655 39.9049 34.5993 39.9999 34.3246 39.9999Z" fill="#EEEEEE"/>
<path d="M36.4876 28.1862L34.3012 39.0454C34.247 39.3147 34.1013 39.5569 33.8887 39.7309C33.6762 39.9049 33.41 39.9999 33.1353 39.9999H34.3246C34.5993 39.9999 34.8655 39.9049 35.078 39.7309C35.2906 39.5569 35.4363 39.3147 35.4905 39.0454L37.6769 28.1862H36.4876Z" fill="#DEDEDE"/>
<path d="M35.8576 22.28H35.6742C35.6793 22.1915 35.6826 22.1025 35.6826 22.0128C35.6827 21.2 35.4654 20.402 35.0534 19.7014C34.6413 19.0007 34.0494 18.423 33.339 18.0281C32.6286 17.6332 31.8255 17.4354 31.013 17.4552C30.2004 17.475 29.4079 17.7117 28.7176 18.1408C28.0273 17.7117 27.2348 17.475 26.4222 17.4552C25.6097 17.4354 24.8066 17.6332 24.0962 18.0281C23.3858 18.423 22.7939 19.0007 22.3818 19.7014C21.9698 20.402 21.7525 21.2 21.7526 22.0128C21.7526 22.1025 21.7559 22.1915 21.761 22.28H21.5776C20.6367 22.28 19.7343 22.6538 19.0689 23.3191C18.4036 23.9845 18.0298 24.8869 18.0298 25.8278C18.0298 26.7688 18.4036 27.6712 19.0689 28.3365C19.7343 29.0019 20.6367 29.3756 21.5776 29.3757H35.8576C36.7986 29.3756 37.701 29.0019 38.3663 28.3365C39.0317 27.6712 39.4054 26.7688 39.4054 25.8278C39.4054 24.8869 39.0317 23.9845 38.3663 23.3191C37.701 22.6538 36.7986 22.28 35.8576 22.28Z" fill="#FFE966"/>
<path d="M24.1236 18.0126C25.2901 17.7502 26.513 17.957 27.5283 18.5885C27.8729 18.3739 28.2448 18.2064 28.6339 18.0906C27.9535 17.6874 27.1799 17.4682 26.3891 17.4545C25.5983 17.4408 24.8175 17.6332 24.1236 18.0126V18.0126ZM19.7514 22.7858C19.9615 22.7474 20.1747 22.728 20.3883 22.7277H20.5717C20.5666 22.6392 20.5633 22.5503 20.5633 22.4605C20.5633 22.4495 20.564 22.4387 20.5641 22.4277C20.2792 22.5124 20.0061 22.6327 19.7514 22.7858ZM35.8576 22.28H35.6741C35.6793 22.1915 35.6826 22.1025 35.6826 22.0128C35.6827 21.2219 35.4771 20.4446 35.0859 19.7573C34.6947 19.0699 34.1314 18.4962 33.4514 18.0925C32.7713 17.6887 31.9979 17.4689 31.2072 17.4546C30.4165 17.4402 29.6356 17.6319 28.9414 18.0107C29.608 17.8622 30.2995 17.8653 30.9648 18.0198C31.6301 18.1743 32.2521 18.4763 32.7851 18.9034C33.318 19.3305 33.7482 19.8719 34.0439 20.4876C34.3395 21.1033 34.4931 21.7775 34.4933 22.4605C34.4933 22.5503 34.49 22.6392 34.4848 22.7277H34.6683C35.4441 22.7277 36.1985 22.9821 36.816 23.4517C37.4335 23.9214 37.8801 24.5805 38.0872 25.3282C38.2944 26.0758 38.2508 26.8708 37.9632 27.5913C37.6755 28.3118 37.1596 28.9182 36.4944 29.3175C37.3656 29.1586 38.1459 28.6796 38.6818 27.9747C39.2178 27.2697 39.4708 26.3898 39.391 25.5078C39.3111 24.6259 38.9044 23.8056 38.2505 23.2083C37.5967 22.6111 36.7431 22.2799 35.8576 22.28Z" fill="#FFE236"/>
<path d="M28.7169 15.3451C28.5793 15.3449 28.446 15.297 28.3398 15.2096C28.2335 15.1222 28.1609 15.0007 28.1342 14.8657C28.0631 14.5064 27.7766 12.6433 29.1176 11.2427C29.6622 10.6819 30.3631 10.2984 31.129 10.1422C31.2833 10.1097 31.4442 10.1397 31.5763 10.2258C31.7084 10.3118 31.801 10.4468 31.8336 10.6011C31.8661 10.7554 31.8361 10.9163 31.7501 11.0484C31.6641 11.1806 31.5291 11.2732 31.3749 11.3058C30.8432 11.4129 30.356 11.6774 29.9767 12.0651C29.0229 13.0613 29.2696 14.4769 29.3009 14.635C29.3179 14.7212 29.3155 14.8102 29.2941 14.8954C29.2726 14.9807 29.2325 15.0601 29.1766 15.128C29.1208 15.1959 29.0506 15.2506 28.9711 15.2881C28.8916 15.3256 28.8048 15.3451 28.7169 15.3451V15.3451Z" fill="#4A4F60"/>
<path d="M28.7176 19.0487C29.8901 19.0487 30.8407 18.0865 30.8407 16.8995C30.8407 15.7125 29.8901 14.7503 28.7176 14.7503C27.5451 14.7503 26.5945 15.7125 26.5945 16.8995C26.5945 18.0865 27.5451 19.0487 28.7176 19.0487Z" fill="#FF6666"/>
<path d="M28.7175 14.7503C28.5162 14.7503 28.3159 14.7793 28.1229 14.8364C28.5651 14.9711 28.9523 15.2443 29.2275 15.6157C29.5027 15.9872 29.6512 16.4372 29.6512 16.8995C29.6512 17.3618 29.5027 17.8118 29.2275 18.1833C28.9523 18.5547 28.5651 18.8279 28.1229 18.9626C28.3159 19.0197 28.5162 19.0487 28.7175 19.0487C29.2829 19.0418 29.8229 18.8123 30.2203 18.41C30.6177 18.0077 30.8405 17.465 30.8405 16.8995C30.8405 16.334 30.6177 15.7913 30.2203 15.389C29.8229 14.9867 29.2829 14.7572 28.7175 14.7503Z" fill="#FF4E4E"/>
<path d="M26.4429 22.4088C26.383 22.4088 26.3233 22.3997 26.2661 22.3818L24.5797 21.8571C24.505 21.834 24.4356 21.7964 24.3755 21.7464C24.3154 21.6965 24.2658 21.6352 24.2294 21.566C24.193 21.4968 24.1706 21.4212 24.1634 21.3434C24.1563 21.2655 24.1646 21.1871 24.1878 21.1124C24.211 21.0378 24.2487 20.9685 24.2987 20.9085C24.3488 20.8484 24.4101 20.7988 24.4793 20.7625C24.5486 20.7262 24.6242 20.7039 24.7021 20.6969C24.7799 20.6898 24.8584 20.6982 24.933 20.7215L26.6194 21.2462C26.7552 21.2885 26.8713 21.378 26.9468 21.4985C27.0222 21.6191 27.052 21.7627 27.0306 21.9033C27.0093 22.0439 26.9383 22.1722 26.8305 22.2649C26.7226 22.3577 26.5851 22.4087 26.4429 22.4088H26.4429Z" fill="#66C1FF"/>
<path d="M21.7642 27.1475C21.6548 27.1474 21.5476 27.1172 21.4543 27.06C21.361 27.0029 21.2852 26.9211 21.2354 26.8237C21.1855 26.7263 21.1635 26.6171 21.1718 26.508C21.1801 26.3989 21.2182 26.2942 21.2822 26.2054L22.314 24.7721C22.3597 24.7087 22.4173 24.6549 22.4837 24.6138C22.5501 24.5727 22.624 24.5451 22.7011 24.5326C22.7781 24.52 22.8569 24.5227 22.933 24.5406C23.009 24.5585 23.0807 24.5912 23.1441 24.6369C23.2075 24.6825 23.2613 24.7402 23.3024 24.8066C23.3434 24.873 23.3711 24.9468 23.3836 25.0239C23.3961 25.101 23.3934 25.1798 23.3755 25.2558C23.3575 25.3318 23.3248 25.4036 23.2792 25.467L22.2473 26.9002C22.1922 26.9769 22.1197 27.0393 22.0357 27.0823C21.9517 27.1253 21.8586 27.1477 21.7642 27.1475Z" fill="#FF66B3"/>
<path d="M27.8899 27.2947C27.7483 27.2948 27.6113 27.2442 27.5037 27.152L26.1614 26.0043C26.0419 25.9017 25.968 25.7559 25.9559 25.5988C25.9438 25.4418 25.9945 25.2864 26.0969 25.1667C26.1992 25.047 26.3449 24.9728 26.5019 24.9604C26.6589 24.9479 26.8144 24.9983 26.9343 25.1004L28.2766 26.2481C28.369 26.3271 28.435 26.4326 28.4656 26.5502C28.4963 26.6679 28.4901 26.7921 28.448 26.9061C28.4058 27.0202 28.3297 27.1186 28.23 27.1881C28.1302 27.2575 28.0115 27.2947 27.8899 27.2947Z" fill="#FF8E66"/>
<path d="M34.2159 27.6256C34.0947 27.6257 33.9763 27.5886 33.8766 27.5195C33.777 27.4503 33.7009 27.3524 33.6585 27.2387C33.6161 27.1251 33.6095 27.0012 33.6395 26.8837C33.6696 26.7662 33.7348 26.6607 33.8265 26.5813L35.1619 25.4256C35.2209 25.3742 35.2895 25.335 35.3637 25.3102C35.4379 25.2853 35.5162 25.2754 35.5943 25.2809C35.6723 25.2864 35.7485 25.3073 35.8185 25.3423C35.8884 25.3773 35.9508 25.4258 36.002 25.4849C36.0532 25.5441 36.0922 25.6127 36.1169 25.687C36.1415 25.7613 36.1512 25.8397 36.1454 25.9177C36.1397 25.9957 36.1186 26.0718 36.0834 26.1417C36.0482 26.2116 35.9995 26.2738 35.9402 26.3248L34.6048 27.4806C34.4969 27.5742 34.3588 27.6258 34.2159 27.6256Z" fill="#FF66B3"/>
<path d="M32.4078 25.9943C32.293 25.9943 32.1805 25.9611 32.0841 25.8986C31.9877 25.8361 31.9115 25.747 31.8646 25.6422L31.1439 24.0298C31.0795 23.8858 31.075 23.7222 31.1313 23.5748C31.1876 23.4275 31.3001 23.3086 31.4441 23.2442C31.5881 23.1799 31.7517 23.1754 31.899 23.2317C32.0464 23.288 32.1653 23.4005 32.2296 23.5445L32.9504 25.1568C32.9908 25.2474 33.0079 25.3466 33.0002 25.4454C32.9925 25.5442 32.9603 25.6396 32.9064 25.7228C32.8525 25.806 32.7786 25.8744 32.6916 25.9218C32.6045 25.9692 32.507 25.9942 32.4078 25.9943Z" fill="#63EA86"/>
<path d="M30.0034 21.8738C29.8623 21.8738 29.7258 21.8236 29.6184 21.7322C29.5109 21.6408 29.4394 21.5141 29.4166 21.3749C29.3939 21.2356 29.4214 21.0928 29.4943 20.972C29.5671 20.8512 29.6805 20.7602 29.8143 20.7153L31.4887 20.1534C31.6382 20.1032 31.8015 20.1146 31.9426 20.1848C32.0838 20.2551 32.1913 20.3785 32.2415 20.528C32.2916 20.6775 32.2804 20.8408 32.2102 20.982C32.14 21.1231 32.0165 21.2307 31.8671 21.2809L30.1927 21.8428C30.1317 21.8633 30.0678 21.8738 30.0034 21.8738Z" fill="#FF6666"/>
<path d="M28.7176 37.8314C28.6395 37.8314 28.5622 37.8161 28.49 37.7862C28.4179 37.7563 28.3523 37.7125 28.2971 37.6573C28.2419 37.6021 28.1981 37.5365 28.1682 37.4644C28.1383 37.3922 28.123 37.3149 28.123 37.2368V32.5589C28.123 32.4012 28.1856 32.2499 28.2971 32.1384C28.4086 32.0269 28.5599 31.9642 28.7176 31.9642C28.8753 31.9642 29.0266 32.0269 29.1381 32.1384C29.2496 32.2499 29.3123 32.4012 29.3123 32.5589V37.2368C29.3123 37.3149 29.2969 37.3922 29.267 37.4644C29.2371 37.5365 29.1933 37.6021 29.1381 37.6573C29.0829 37.7125 29.0173 37.7563 28.9452 37.7862C28.873 37.8161 28.7957 37.8314 28.7176 37.8314ZM32.2859 37.8316C32.1953 37.8315 32.106 37.8108 32.0246 37.771C31.9433 37.7312 31.8721 37.6734 31.8164 37.6019C31.7608 37.5304 31.7222 37.4471 31.7037 37.3585C31.6851 37.2698 31.687 37.1781 31.7092 37.0903L32.8985 32.4124C32.9374 32.2595 33.0353 32.1284 33.1709 32.0478C33.3064 31.9672 33.4684 31.9437 33.6213 31.9826C33.7741 32.0214 33.9053 32.1194 33.9859 32.255C34.0665 32.3905 34.09 32.5525 34.0511 32.7054L32.8618 37.3833C32.8292 37.5114 32.755 37.6249 32.6507 37.7061C32.5464 37.7873 32.4181 37.8314 32.2859 37.8316ZM25.1493 37.8316C25.0171 37.8314 24.8888 37.7873 24.7845 37.7061C24.6802 37.6249 24.606 37.5114 24.5734 37.3833L23.3841 32.7054C23.3453 32.5525 23.3687 32.3905 23.4493 32.255C23.5299 32.1194 23.6611 32.0214 23.8139 31.9826C23.9668 31.9437 24.1288 31.9672 24.2643 32.0478C24.3999 32.1284 24.4979 32.2595 24.5367 32.4124L25.726 37.0903C25.7482 37.1781 25.7501 37.2698 25.7315 37.3585C25.713 37.4471 25.6744 37.5304 25.6188 37.6019C25.5632 37.6734 25.492 37.7312 25.4106 37.771C25.3292 37.8108 25.2399 37.8315 25.1493 37.8316Z" fill="#CECECE"/>
</svg>
