<svg width="56" height="55" viewBox="0 0 56 55" fill="none" xmlns="http://www.w3.org/2000/svg">
<path d="M44.4418 21.1544H40.211C40.2093 19.4718 39.5402 17.8587 38.3504 16.6689C37.1607 15.4791 35.5475 14.81 33.8649 14.8083V10.5775C36.669 10.5809 39.3573 11.6963 41.3402 13.6791C43.323 15.662 44.4384 18.3503 44.4418 21.1544Z" fill="#FAD5D5"/>
<path d="M52.9033 21.1541H48.6726C48.6681 17.2282 47.1066 13.4644 44.3305 10.6884C41.5545 7.91238 37.7907 6.35085 33.8649 6.34637V2.1156C38.9125 2.1212 43.7517 4.12883 47.3209 7.69802C50.8901 11.2672 52.8977 16.1065 52.9033 21.1541Z" fill="#FAD5D5"/>
<path d="M48.6725 55H48.3129C6.74559 52.6096 0.843667 17.5365 0.0186672 6.83269C-0.110274 5.15466 0.432613 3.49413 1.52791 2.21634C2.62322 0.938555 4.18123 0.148171 5.85925 0.0190406C6.02707 0.00634827 6.19559 1.98336e-06 6.36482 1.98336e-06H17.5129C18.3602 -0.000818286 19.1883 0.252811 19.8898 0.728036C20.5913 1.20326 21.134 1.87819 21.4475 2.66539L24.6629 10.5769C24.9725 11.346 25.0493 12.189 24.8838 13.0013C24.7184 13.8137 24.3179 14.5595 23.7321 15.1462L19.2264 19.6942C19.9273 23.6951 21.8418 27.3836 24.7102 30.2595C27.5785 33.1355 31.262 35.0597 35.261 35.7712L39.8514 31.2231C40.4468 30.6438 41.1997 30.2526 42.016 30.0984C42.8323 29.9442 43.676 30.0337 44.4418 30.3558L52.4168 33.55C53.1921 33.8734 53.8536 34.4203 54.317 35.121C54.7803 35.8218 55.0246 36.6446 55.0187 37.4846V48.6538C55.0187 50.3369 54.3501 51.9511 53.1599 53.1413C51.9698 54.3314 50.3556 55 48.6725 55ZM6.36482 4.23077C6.08703 4.22994 5.81178 4.28383 5.55481 4.38936C5.29784 4.4949 5.06418 4.65002 4.86716 4.84586C4.67014 5.04171 4.51362 5.27444 4.40654 5.53077C4.29946 5.7871 4.24392 6.06201 4.24309 6.33981C4.24309 6.39904 4.24521 6.45757 4.24944 6.51539C5.22251 19.0385 11.4629 48.6538 48.5456 50.7692C49.1055 50.8028 49.6558 50.6126 50.0755 50.2405C50.4952 49.8684 50.7499 49.3449 50.7837 48.785L50.7879 48.6538V37.4846L42.8129 34.2904L36.7418 40.3192L35.7264 40.1923C17.3225 37.8865 14.8264 19.4827 14.8264 19.2923L14.6994 18.2769L20.7071 12.2058L17.5341 4.23077H6.36482Z" fill="#FAD5D5"/>
</svg>
