<svg width="25" height="25" viewBox="0 0 25 25" fill="none" xmlns="http://www.w3.org/2000/svg">
<path d="M12.5 0.5C19.1274 0.5 24.5 5.87258 24.5 12.5C24.5 19.1274 19.1274 24.5 12.5 24.5C5.87258 24.5 0.5 19.1274 0.5 12.5C0.5 5.87258 5.87258 0.5 12.5 0.5Z" stroke="url(#paint0_linear_1_1172)"/>
<path d="M22.7273 12.5C22.7273 18.1484 18.1483 22.7273 12.5 22.7273C6.85161 22.7273 2.27271 18.1484 2.27271 12.5C2.27271 6.85163 6.85161 2.27273 12.5 2.27273C18.1483 2.27273 22.7273 6.85163 22.7273 12.5Z" fill="#FF4A8B" fill-opacity="0.2"/>
<path fill-rule="evenodd" clip-rule="evenodd" d="M16.4027 8.25867C16.5975 8.06456 16.8606 7.95531 17.1349 7.95455C17.4092 7.95379 17.6728 8.06157 17.8687 8.2546C18.0646 8.44763 18.177 8.7104 18.1817 8.98609C18.1864 9.26178 18.0829 9.52824 17.8937 9.72787L12.3363 16.71C12.2408 16.8134 12.1255 16.8964 11.9973 16.954C11.8692 17.0116 11.7308 17.0427 11.5904 17.0453C11.4501 17.0479 11.3106 17.022 11.1805 16.9692C11.0503 16.9164 10.932 16.8378 10.8328 16.738L7.15055 13.0357C7.04797 12.9396 6.96569 12.8237 6.90863 12.695C6.85156 12.5663 6.82087 12.4273 6.8184 12.2864C6.81593 12.1455 6.84172 12.0055 6.89423 11.8749C6.94674 11.7442 7.0249 11.6255 7.12405 11.5258C7.2232 11.4262 7.3413 11.3476 7.47131 11.2948C7.60131 11.2421 7.74057 11.2161 7.88076 11.2186C8.02095 11.2211 8.15921 11.252 8.28729 11.3093C8.41536 11.3667 8.53063 11.4494 8.62622 11.5525L11.5414 14.4811L16.3763 8.28945C16.3849 8.27861 16.3928 8.26833 16.4027 8.25867Z" fill="url(#paint1_linear_1_1172)"/>
<defs>
<linearGradient id="paint0_linear_1_1172" x1="12.5" y1="0" x2="12.5" y2="25" gradientUnits="userSpaceOnUse">
<stop offset="0.161458" stop-color="#4A67FF"/>
<stop offset="0.510417" stop-color="#8C2CED" stop-opacity="0.937746"/>
<stop offset="0.755208" stop-color="#FA22F1" stop-opacity="0.87"/>
</linearGradient>
<linearGradient id="paint1_linear_1_1172" x1="12.5001" y1="7.95454" x2="12.5001" y2="17.0455" gradientUnits="userSpaceOnUse">
<stop offset="0.161458" stop-color="#4A67FF"/>
<stop offset="0.510417" stop-color="#8C2CED" stop-opacity="0.937746"/>
<stop offset="0.755208" stop-color="#FA22F1" stop-opacity="0.87"/>
</linearGradient>
</defs>
</svg>
