<svg width="43" height="40" viewBox="0 0 43 40" fill="none" xmlns="http://www.w3.org/2000/svg">
<path d="M42.4599 24.8563V25.8989C42.46 27.4785 41.8466 29.0203 40.7019 30.3179C39.5571 31.6155 37.9357 32.6069 36.0549 33.1592L33.5044 33.9076L28.9567 35.2428V32.8642L34.8295 30.9542C34.8567 30.9455 34.8839 30.936 34.9112 30.9273C36.254 30.4753 37.3988 29.7232 38.2033 28.764C39.0078 27.8049 39.4367 26.681 39.4367 25.5318V24.9356C39.4368 24.6753 39.3717 24.4175 39.2451 24.177C39.1185 23.9365 38.9329 23.718 38.699 23.5339C38.465 23.3498 38.1873 23.2038 37.8816 23.1042C37.576 23.0046 37.2483 22.9534 36.9175 22.9534H28.9567V20.5748H37.0183C37.7329 20.5748 38.4405 20.6855 39.1007 20.9007C39.7609 21.1158 40.3608 21.4312 40.8661 21.8288C41.3714 22.2264 41.7722 22.6984 42.0457 23.2178C42.3192 23.7373 42.4599 24.294 42.4599 24.8563Z" fill="#674034"/>
<path d="M34.8295 30.9542C34.8567 30.9455 34.8839 30.936 34.9111 30.9273C34.5338 31.946 34.0637 32.9421 33.5044 33.9076L28.9567 35.2428V32.8642L34.8295 30.9542ZM35.945 22.9534H28.9567V20.5748H35.543C35.7308 21.3615 35.865 22.1555 35.945 22.9534Z" fill="#4F423E"/>
<path d="M25.4625 40H13.9189C13.4891 40.0001 13.0643 39.9281 12.6727 39.7887C12.2811 39.6494 11.9318 39.4459 11.6481 39.1918C9.63157 37.3854 6.41035 33.8878 5.21585 28.8206C4.39341 25.293 4.69268 21.6601 6.08699 18.2455C6.15882 18.0699 6.29971 17.9167 6.48933 17.8081C6.67895 17.6995 6.90751 17.641 7.14206 17.6412H31.9562C32.2848 17.6414 32.6043 17.7257 32.8666 17.8814C33.1289 18.0371 33.3196 18.2558 33.4099 18.5043C34.7117 22.0454 34.8781 25.7851 33.8941 29.3892C32.9101 32.9932 30.8064 36.3492 27.7711 39.1573C27.4874 39.4214 27.1338 39.6337 26.7351 39.7792C26.3363 39.9248 25.902 40.0001 25.4625 40Z" fill="#674034"/>
<path d="M14.6712 39.1918C12.6547 37.3854 9.43343 33.8878 8.23895 28.8206C7.41652 25.293 7.71578 21.6601 9.11009 18.2455C9.18192 18.0699 9.3228 17.9167 9.51242 17.8081C9.70204 17.6995 9.9306 17.641 10.1651 17.6412H7.14205C6.9075 17.641 6.67894 17.6995 6.48932 17.8081C6.2997 17.9167 6.15882 18.0699 6.08698 18.2455C4.69268 21.6601 4.39342 25.293 5.21585 28.8206C6.41033 33.8878 9.63157 37.3854 11.6481 39.1918C11.9318 39.4459 12.2811 39.6494 12.6727 39.7887C13.0643 39.9281 13.4891 40.0001 13.9189 40H16.942C16.5122 40.0001 16.0874 39.9281 15.6958 39.7887C15.3042 39.6494 14.9549 39.4459 14.6712 39.1918Z" fill="#4F423E"/>
<path d="M23.5802 16.4623C23.4809 16.4623 23.3826 16.4469 23.291 16.417C23.1993 16.3871 23.1159 16.3433 23.0458 16.2881C22.9756 16.2329 22.9199 16.1673 22.8819 16.0952C22.8439 16.023 22.8244 15.9457 22.8244 15.8676V15.1834C22.8255 14.4371 23.2027 13.7217 23.8734 13.194C24.544 12.6663 25.4533 12.3695 26.4017 12.3687H29.5256C29.8597 12.3687 30.1801 12.2643 30.4163 12.0784C30.6525 11.8925 30.7852 11.6405 30.7852 11.3776C30.7852 11.1148 30.6525 10.8627 30.4163 10.6768C30.1801 10.4909 29.8597 10.3865 29.5256 10.3865H27.611C27.4105 10.3865 27.2183 10.3239 27.0766 10.2124C26.9348 10.1008 26.8552 9.94959 26.8552 9.79188C26.8552 9.63417 26.9348 9.48292 27.0766 9.3714C27.2183 9.25989 27.4105 9.19724 27.611 9.19724H29.5256C30.2606 9.19724 30.9654 9.42695 31.4851 9.83585C32.0048 10.2448 32.2968 10.7993 32.2968 11.3776C32.2968 11.9559 32.0048 12.5105 31.4851 12.9194C30.9654 13.3283 30.2606 13.558 29.5256 13.558H26.4017C25.854 13.5585 25.329 13.7299 24.9417 14.0346C24.5544 14.3393 24.3366 14.7524 24.336 15.1834V15.8676C24.336 15.9457 24.3164 16.023 24.2784 16.0952C24.2404 16.1673 24.1848 16.2329 24.1146 16.2881C24.0444 16.3433 23.9611 16.3871 23.8694 16.417C23.7777 16.4469 23.6794 16.4623 23.5802 16.4623Z" fill="#AFAEB3"/>
<path d="M27.5102 10.3865H26.6537C25.9187 10.3865 25.2139 10.1568 24.6942 9.74789C24.1745 9.33899 23.8825 8.78441 23.8825 8.20613C23.8825 7.62786 24.1745 7.07327 24.6942 6.66437C25.2139 6.25547 25.9187 6.02576 26.6537 6.02576H30.5333C30.7338 6.02576 30.926 6.08841 31.0677 6.19993C31.2095 6.31144 31.2891 6.46269 31.2891 6.6204C31.2891 6.77812 31.2095 6.92937 31.0677 7.04088C30.926 7.1524 30.7338 7.21505 30.5333 7.21505H26.6537C26.3196 7.21505 25.9992 7.31947 25.763 7.50533C25.5268 7.6912 25.3941 7.94328 25.3941 8.20613C25.3941 8.46898 25.5268 8.72107 25.763 8.90693C25.9992 9.0928 26.3196 9.19721 26.6537 9.19721H27.5102C27.7107 9.19721 27.9029 9.25986 28.0446 9.37138C28.1864 9.4829 28.266 9.63415 28.266 9.79186C28.266 9.94957 28.1864 10.1008 28.0446 10.2123C27.9029 10.3239 27.7107 10.3865 27.5102 10.3865Z" fill="#AFAEB3"/>
<path d="M33.6528 7.21506H27.473C27.2726 7.21506 27.0803 7.15241 26.9386 7.0409C26.7969 6.92938 26.7172 6.77813 26.7172 6.62042C26.7172 6.46271 26.7969 6.31145 26.9386 6.19994C27.0803 6.08842 27.2726 6.02577 27.473 6.02577H33.6528C33.9869 6.02577 34.3073 5.92135 34.5435 5.73549C34.7798 5.54962 34.9125 5.29754 34.9125 5.03469C34.9125 4.77184 34.7798 4.51975 34.5435 4.33389C34.3073 4.14802 33.9869 4.04361 33.6528 4.04361H27.0699C25.9078 4.04258 24.7936 3.67887 23.9718 3.03229C23.15 2.38571 22.6877 1.50905 22.6864 0.594648C22.6864 0.436938 22.7661 0.285687 22.9078 0.174168C23.0495 0.0626502 23.2418 0 23.4422 0C23.6427 0 23.8349 0.0626502 23.9766 0.174168C24.1184 0.285687 24.198 0.436938 24.198 0.594648C24.1988 1.19374 24.5017 1.7681 25.0401 2.19172C25.5785 2.61534 26.3085 2.85363 27.0699 2.85431H33.6528C34.3878 2.85431 35.0927 3.08403 35.6124 3.49293C36.1321 3.90183 36.424 4.45642 36.424 5.03469C36.424 5.61296 36.1321 6.16755 35.6124 6.57645C35.0927 6.98535 34.3878 7.21506 33.6528 7.21506ZM15.8669 16.4623C15.7677 16.4623 15.6694 16.4469 15.5777 16.417C15.486 16.3871 15.4027 16.3433 15.3325 16.2881C15.2623 16.2329 15.2067 16.1673 15.1687 16.0952C15.1307 16.023 15.1112 15.9457 15.1112 15.8676V15.1833C15.1105 14.7524 14.8927 14.3393 14.5054 14.0346C14.1181 13.7299 13.5931 13.5585 13.0454 13.558H9.92151C9.18654 13.558 8.48168 13.3283 7.96199 12.9194C7.44229 12.5105 7.15033 11.9559 7.15033 11.3776C7.15033 10.7993 7.44229 10.2447 7.96199 9.83584C8.48168 9.42694 9.18654 9.19722 9.92151 9.19722H14.8592C15.0597 9.19722 15.2519 9.25988 15.3937 9.37139C15.5354 9.48291 15.615 9.63416 15.615 9.79187C15.615 9.94958 15.5354 10.1008 15.3937 10.2124C15.2519 10.3239 15.0597 10.3865 14.8592 10.3865H9.92151C9.58743 10.3865 9.26704 10.4909 9.03082 10.6768C8.79459 10.8627 8.66188 11.1147 8.66188 11.3776C8.66188 11.6405 8.79459 11.8925 9.03082 12.0784C9.26704 12.2643 9.58743 12.3687 9.92151 12.3687H13.0454C13.9938 12.3695 14.9031 12.6663 15.5738 13.194C16.2444 13.7217 16.6216 14.4371 16.6227 15.1833V15.8676C16.6227 15.9457 16.6032 16.023 16.5652 16.0952C16.5272 16.1673 16.4715 16.2329 16.4014 16.2881C16.3312 16.3433 16.2479 16.3871 16.1562 16.417C16.0645 16.4469 15.9662 16.4623 15.8669 16.4623Z" fill="#AFAEB3"/>
<path d="M19.3435 10.3865H14.96C14.7596 10.3865 14.5673 10.3239 14.4256 10.2123C14.2838 10.1008 14.2042 9.94957 14.2042 9.79186C14.2042 9.63415 14.2838 9.4829 14.4256 9.37138C14.5673 9.25986 14.7596 9.19721 14.96 9.19721H19.3435C19.6776 9.19721 19.998 9.0928 20.2342 8.90693C20.4704 8.72107 20.6031 8.46898 20.6031 8.20613C20.6031 7.94328 20.4704 7.6912 20.2342 7.50533C19.998 7.31947 19.6776 7.21505 19.3435 7.21505H8.9138C8.71335 7.21505 8.52112 7.1524 8.37938 7.04088C8.23765 6.92937 8.15802 6.77812 8.15802 6.6204C8.15802 6.46269 8.23765 6.31144 8.37938 6.19993C8.52112 6.08841 8.71335 6.02576 8.9138 6.02576H19.3435C20.0785 6.02576 20.7833 6.25547 21.303 6.66437C21.8227 7.07327 22.1147 7.62786 22.1147 8.20613C22.1147 8.78441 21.8227 9.33899 21.303 9.74789C20.7833 10.1568 20.0785 10.3865 19.3435 10.3865Z" fill="#AFAEB3"/>
<path d="M14.9972 7.21507H2.77118C2.03621 7.21507 1.33135 6.98535 0.811659 6.57645C0.291962 6.16755 0 5.61296 0 5.03469C0 4.45642 0.291962 3.90183 0.811659 3.49293C1.33135 3.08403 2.03621 2.85431 2.77118 2.85431H12.3772C13.1386 2.85363 13.8686 2.61534 14.407 2.19172C14.9454 1.7681 15.2483 1.19374 15.2491 0.594648C15.2491 0.436938 15.3288 0.285687 15.4705 0.174168C15.6122 0.0626503 15.8045 0 16.0049 0C16.2054 0 16.3976 0.0626503 16.5393 0.174168C16.6811 0.285687 16.7607 0.436938 16.7607 0.594648C16.7594 1.50905 16.2971 2.38571 15.4754 3.03229C14.6536 3.67887 13.5394 4.04258 12.3772 4.04361H2.77118C2.4371 4.04361 2.11671 4.14802 1.88049 4.33389C1.64426 4.51975 1.51155 4.77184 1.51155 5.03469C1.51155 5.29754 1.64426 5.54962 1.88049 5.73549C2.11671 5.92135 2.4371 6.02577 2.77118 6.02577H14.9972C15.1977 6.02577 15.3899 6.08842 15.5316 6.19994C15.6734 6.31146 15.753 6.46271 15.753 6.62042C15.753 6.77813 15.6734 6.92938 15.5316 7.0409C15.3899 7.15241 15.1977 7.21507 14.9972 7.21507Z" fill="#AFAEB3"/>
</svg>
