<svg width="22" height="40" viewBox="0 0 22 40" fill="none" xmlns="http://www.w3.org/2000/svg">
<path d="M10.694 9.38325C10.6159 9.38325 10.5386 9.36788 10.4664 9.33799C10.3943 9.30811 10.3287 9.26431 10.2735 9.20909C10.2183 9.15387 10.1745 9.08832 10.1446 9.01617C10.1147 8.94402 10.0994 8.86669 10.0994 8.7886V3.77776C10.0994 3.6227 10.1599 3.47378 10.2682 3.36274L13.37 0.179434C13.4801 0.0665704 13.6305 0.00204584 13.7881 4.78142e-05C13.9458 -0.00195021 14.0978 0.0587419 14.2107 0.16878C14.3236 0.278817 14.3882 0.429192 14.3903 0.586841C14.3923 0.744489 14.3317 0.896505 14.2217 1.00946L11.2887 4.01956V8.7886C11.2887 8.86669 11.2733 8.94402 11.2434 9.01617C11.2135 9.08832 11.1697 9.15387 11.1145 9.20909C11.0593 9.26431 10.9937 9.30811 10.9216 9.33799C10.8494 9.36788 10.7721 9.38325 10.694 9.38325Z" fill="#4A4F60"/>
<path d="M19.8518 15.0247L19.5489 18.2041L19.5259 18.4475L19.2223 21.6324L19.1993 21.8758L18.102 33.3921L17.7761 36.8205L17.5755 38.9232C17.5475 39.2178 17.4107 39.4913 17.1918 39.6904C16.9729 39.8895 16.6876 39.9999 16.3917 39.9999H4.99669C4.7007 39.9999 4.41534 39.8896 4.19631 39.6905C3.97729 39.4914 3.84032 39.2178 3.81215 38.9232L3.61235 36.8205L3.28568 33.3921L2.18914 21.8758L2.16617 21.6324L1.86249 18.4475L1.8395 18.2041L1.53662 15.0247L19.8518 15.0247Z" fill="#FF6666"/>
<path d="M16.2838 15.0247L15.9809 18.2041L15.9579 18.4475L15.6543 21.6324L15.6313 21.8758L14.5339 33.3921L14.2081 36.8205L14.0075 38.9232C13.9795 39.2178 13.8427 39.4913 13.6238 39.6904C13.4049 39.8895 13.1196 39.9999 12.8237 39.9999H16.3916C16.6875 39.9999 16.9728 39.8895 17.1917 39.6904C17.4106 39.4913 17.5474 39.2178 17.5754 38.9232L17.776 36.8205L18.1018 33.3921L19.1991 21.8758L19.2221 21.6324L19.5258 18.4475L19.5488 18.2041L19.8517 15.0247H16.2838Z" fill="#FF4E4E"/>
<path d="M20.5951 11.6807H0.792865C0.354978 11.6807 0 12.0356 0 12.4735V14.2318C0 14.6697 0.354978 15.0247 0.792865 15.0247H20.5951C21.0329 15.0247 21.3879 14.6697 21.3879 14.2318V12.4735C21.3879 12.0356 21.0329 11.6807 20.5951 11.6807Z" fill="#FFE966"/>
<path d="M20.5952 11.6807H17.0273C17.2376 11.6807 17.4393 11.7642 17.588 11.9129C17.7367 12.0616 17.8202 12.2632 17.8202 12.4735V14.2317C17.8202 14.442 17.7367 14.6437 17.588 14.7924C17.4393 14.9411 17.2376 15.0246 17.0273 15.0246H20.5952C20.8055 15.0246 21.0072 14.9411 21.1559 14.7924C21.3046 14.6437 21.3881 14.442 21.3881 14.2317V12.4735C21.3881 12.2632 21.3046 12.0616 21.1559 11.9129C21.0072 11.7642 20.8055 11.6807 20.5952 11.6807Z" fill="#FFE236"/>
<path d="M18.8306 11.6805H2.55713L3.54438 9.27988C3.60415 9.13454 3.70577 9.01023 3.83633 8.92276C3.96689 8.83528 4.1205 8.78857 4.27766 8.78857H17.11C17.2672 8.78857 17.4208 8.83528 17.5514 8.92276C17.6819 9.01023 17.7835 9.13454 17.8433 9.27988L18.8306 11.6805Z" fill="#FF6666"/>
<path d="M17.8434 9.27987C17.7836 9.13453 17.682 9.01023 17.5514 8.92276C17.4209 8.83528 17.2673 8.78858 17.1101 8.78857H13.5422C13.6994 8.78858 13.853 8.83528 13.9836 8.92276C14.1141 9.01023 14.2157 9.13453 14.2755 9.27987L15.2627 11.6806H18.8306L17.8434 9.27987Z" fill="#FF4E4E"/>
<path d="M10.6939 30.9493C12.5921 30.9493 14.131 29.4105 14.131 27.5123C14.131 25.614 12.5921 24.0752 10.6939 24.0752C8.79566 24.0752 7.25684 25.614 7.25684 27.5123C7.25684 29.4105 8.79566 30.9493 10.6939 30.9493Z" fill="#FAD5D5"/>
<path d="M10.6939 24.0752C10.2881 24.0748 9.88543 24.1464 9.50464 24.2867C10.1641 24.5301 10.7332 24.9698 11.1351 25.5465C11.537 26.1233 11.7524 26.8093 11.7524 27.5123C11.7524 28.2153 11.537 28.9013 11.1351 29.4781C10.7332 30.0548 10.1641 30.4945 9.50464 30.7379C9.97615 30.9117 10.48 30.98 10.9808 30.938C11.4816 30.896 11.9671 30.7448 12.403 30.4948C12.839 30.2449 13.2149 29.9025 13.5042 29.4916C13.7935 29.0807 13.9892 28.6114 14.0775 28.1167C14.1659 27.6219 14.1446 27.1139 14.0153 26.6283C13.886 26.1427 13.6519 25.6913 13.3293 25.306C13.0067 24.9207 12.6035 24.6108 12.1482 24.3981C11.6929 24.1855 11.1965 24.0752 10.6939 24.0752V24.0752Z" fill="#EEEEEE"/>
</svg>
