<svg width="45" height="45" viewBox="0 0 45 45" fill="none" xmlns="http://www.w3.org/2000/svg">
<path d="M12.5137 26.0287C11.6297 26.0287 10.7657 26.2908 10.0307 26.7819C9.29573 27.273 8.72289 27.971 8.38461 28.7876C8.04634 29.6043 7.95782 30.5029 8.13026 31.3698C8.3027 32.2368 8.72835 33.0331 9.35337 33.6582C9.9784 34.2832 10.7747 34.7089 11.6417 34.8813C12.5086 35.0538 13.4073 34.9653 14.2239 34.627C15.0406 34.2888 15.7386 33.716 16.2297 32.981C16.7208 32.246 16.9829 31.382 16.9829 30.498C16.9815 29.3131 16.5103 28.1771 15.6724 27.3393C14.8346 26.5014 13.6986 26.0301 12.5137 26.0287ZM12.5137 33.6489C11.8905 33.6489 11.2813 33.4641 10.7631 33.1179C10.245 32.7716 9.8411 32.2795 9.60261 31.7038C9.36412 31.128 9.30172 30.4945 9.42329 29.8833C9.54487 29.2721 9.84496 28.7106 10.2856 28.27C10.7263 27.8293 11.2877 27.5292 11.8989 27.4076C12.5102 27.2861 13.1437 27.3485 13.7195 27.587C14.2952 27.8254 14.7873 28.2293 15.1335 28.7475C15.4797 29.2656 15.6645 29.8748 15.6645 30.498C15.6636 31.3334 15.3313 32.1343 14.7406 32.725C14.1499 33.3157 13.349 33.6479 12.5137 33.6489ZM44.9992 13.6075C44.9989 13.5947 44.9988 13.582 44.9977 13.5693C44.9975 13.5666 44.9971 13.5639 44.9968 13.5612C44.996 13.5526 44.9945 13.5442 44.9934 13.5356C44.992 13.525 44.9908 13.5143 44.9888 13.5037L44.9876 13.4976C44.9854 13.4862 44.9824 13.4751 44.9796 13.4639C44.9775 13.4556 44.9757 13.4472 44.9733 13.4388C44.973 13.4378 44.9728 13.4368 44.9725 13.4357L44.972 13.4343C44.968 13.421 44.9632 13.4081 44.9584 13.3951C44.9565 13.3901 44.9552 13.385 44.9532 13.38L44.9486 13.3682L44.948 13.3669L42.2401 6.56857C42.21 6.44419 42.1599 6.32553 42.0917 6.21722C42.0845 6.2048 42.0774 6.19235 42.0694 6.18055C42.0674 6.17752 42.0651 6.17469 42.0629 6.17167C42.051 6.15452 42.0384 6.138 42.025 6.12225C42.0131 6.10684 42.0023 6.09081 41.9896 6.07594C41.8782 5.94582 41.74 5.84137 41.5845 5.76979C41.4289 5.69821 41.2597 5.66119 41.0884 5.66129H18.9772C18.7238 5.66045 18.4769 5.74109 18.2729 5.89131C18.0688 6.04154 17.9185 6.25338 17.8441 6.49557L17.0396 9.08336H13.1729V4.45597L16.4242 1.11922C16.5462 0.994016 16.6135 0.825474 16.6113 0.650668C16.609 0.475861 16.5374 0.309109 16.4122 0.187096C16.287 0.0650821 16.1185 -0.00219851 15.9436 5.48302e-05C15.7688 0.00230818 15.6021 0.0739109 15.4801 0.199111L12.0416 3.72787C11.9216 3.85096 11.8545 4.01604 11.8545 4.18792V9.08336H5.40115C5.09612 9.08267 4.79783 9.17301 4.54443 9.34281C4.29103 9.5126 4.09404 9.75414 3.97868 10.0365L3.05225 12.2892H1.53809C1.1303 12.2897 0.739355 12.4519 0.451009 12.7402C0.162662 13.0286 0.00046524 13.4195 0 13.8273L0 15.7764C0.00046524 16.1841 0.162662 16.5751 0.451009 16.8634C0.739355 17.1518 1.1303 17.314 1.53809 17.3144H1.76311L4.22879 43.2104C4.27411 43.7008 4.50136 44.1565 4.86582 44.4877C5.23028 44.8189 5.70553 45.0017 6.19801 45.0001H18.8297L18.8316 45H40.3849L40.3863 45.0001C40.3881 45.0001 40.3899 44.9997 40.3917 44.9997C40.4177 44.9993 40.4437 44.9975 40.4694 44.9941C40.4776 44.993 40.4857 44.9917 40.4939 44.9904C40.5174 44.9865 40.5407 44.9814 40.5637 44.975C40.5681 44.9738 40.5725 44.9729 40.5769 44.9716C40.6044 44.9632 40.6312 44.9529 40.6574 44.9409C40.6628 44.9385 40.6681 44.9358 40.6735 44.9332C40.6999 44.9205 40.7254 44.9061 40.7499 44.8901L40.7514 44.8893L40.7524 44.8886L40.7557 44.8864L44.5109 42.3829C44.6615 42.2827 44.785 42.1468 44.8703 41.9873C44.9556 41.8278 45.0002 41.6497 45 41.4688V13.6336C45 13.6323 45 13.6309 45 13.6295V13.6239C45 13.6183 44.9993 13.613 44.9992 13.6075ZM41.9083 9.29828L43.4616 13.198L41.1973 13.8724L41.9083 9.29828ZM5.19799 10.5379C5.21445 10.4976 5.24258 10.4631 5.27877 10.4388C5.31496 10.4145 5.35758 10.4016 5.40115 10.4017H17.5204C17.5237 10.4017 17.5271 10.4017 17.5304 10.4017H19.6261C19.6697 10.4016 19.7123 10.4145 19.7485 10.4388C19.7847 10.4631 19.8128 10.4976 19.8293 10.5379L20.5495 12.2892H4.47776L5.19799 10.5379ZM1.53809 15.9961C1.47983 15.996 1.42397 15.9729 1.38277 15.9317C1.34158 15.8905 1.31841 15.8346 1.31836 15.7764V13.8273C1.31841 13.769 1.34158 13.7132 1.38277 13.672C1.42397 13.6308 1.47983 13.6076 1.53809 13.6076H3.49661C3.49865 13.6076 3.50069 13.6076 3.50275 13.6076H21.5313L21.5336 13.6078C21.5348 13.6078 21.536 13.6076 21.5372 13.6076H23.4892C23.5475 13.6076 23.6033 13.6308 23.6445 13.672C23.6857 13.7132 23.7089 13.769 23.7089 13.8273V15.7764C23.7089 15.8346 23.6857 15.8905 23.6445 15.9317C23.6033 15.9729 23.5475 15.996 23.4892 15.9961H1.53809ZM20.3799 33.6968L19.4856 43.0851C19.4708 43.2482 19.3954 43.3999 19.2744 43.5103C19.1533 43.6207 18.9954 43.6818 18.8315 43.6816H18.5889L18.5872 43.6817H6.198C6.03379 43.6822 5.87532 43.6213 5.75377 43.5109C5.63223 43.4004 5.55641 43.2485 5.54123 43.085L3.08737 17.3144H21.9403L20.381 33.6851C20.3806 33.689 20.3802 33.6929 20.3799 33.6968ZM22.5412 24.9092L35.5518 24.9093C35.61 24.9094 35.6659 24.9326 35.7071 24.9738C35.7483 25.0149 35.7714 25.0708 35.7715 25.1291V32.8786C35.7714 32.9369 35.7483 32.9927 35.7071 33.0339C35.6659 33.0751 35.61 33.0983 35.5518 33.0984L21.7612 33.0984L22.5412 24.9092ZM39.7266 43.6816H20.693C20.747 43.5292 20.7823 43.3708 20.7981 43.2099L21.6356 34.4168L35.5518 34.4167C35.9595 34.4162 36.3505 34.254 36.6388 33.9657C36.9272 33.6774 37.0894 33.2864 37.0898 32.8786V25.1291C37.0894 24.7213 36.9272 24.3303 36.6388 24.042C36.3505 23.7536 35.9595 23.5914 35.5518 23.591L22.6668 23.5908L23.2646 17.3144H23.4892C23.897 17.314 24.2879 17.1518 24.5763 16.8634C24.8646 16.5751 25.0268 16.1841 25.0273 15.7763V15.461H39.7266V43.6816ZM39.8211 14.1426H25.0273V13.8273C25.0268 13.4195 24.8646 13.0286 24.5763 12.7402C24.2879 12.4519 23.897 12.2897 23.4892 12.2892H21.975L21.0486 10.0365C20.9332 9.75414 20.7363 9.5126 20.4829 9.34281C20.2295 9.17301 19.9312 9.08267 19.6261 9.08336H18.4202L19.0742 6.97965H40.9345L39.8211 14.1426ZM43.6816 41.3513L41.0449 43.1091V15.2933L43.6816 14.508V41.3513Z" fill="url(#paint0_linear_1_1202)"/>
<defs>
<linearGradient id="paint0_linear_1_1202" x1="22.5" y1="0" x2="22.5" y2="45.0001" gradientUnits="userSpaceOnUse">
<stop offset="0.161458" stop-color="#4A67FF"/>
<stop offset="0.510417" stop-color="#8C2CED" stop-opacity="0.937746"/>
<stop offset="0.755208" stop-color="#FA22F1" stop-opacity="0.87"/>
</linearGradient>
</defs>
</svg>
