<svg width="55" height="41" viewBox="0 0 55 41" fill="none" xmlns="http://www.w3.org/2000/svg">
<path d="M3.32693 12.4696H9.43917C9.65285 12.4696 9.85777 12.3848 10.0089 12.2337C10.16 12.0826 10.2448 11.8777 10.2448 11.664C10.2448 11.4503 10.16 11.2454 10.0089 11.0943C9.85777 10.9432 9.65285 10.8583 9.43917 10.8583H3.32693C3.11326 10.8583 2.90833 10.9432 2.75724 11.0943C2.60615 11.2454 2.52127 11.4503 2.52127 11.664C2.52127 11.8777 2.60615 12.0826 2.75724 12.2337C2.90833 12.3848 3.11326 12.4696 3.32693 12.4696ZM1.7156 15.6923H9.43917C9.65285 15.6923 9.85777 15.6074 10.0089 15.4563C10.16 15.3052 10.2448 15.1003 10.2448 14.8866C10.2448 14.673 10.16 14.468 10.0089 14.3169C9.85777 14.1659 9.65285 14.081 9.43917 14.081H1.7156C1.50193 14.081 1.297 14.1659 1.14591 14.3169C0.994821 14.468 0.909939 14.673 0.909939 14.8866C0.909939 15.1003 0.994821 15.3052 1.14591 15.4563C1.297 15.6074 1.50193 15.6923 1.7156 15.6923ZM4.93826 9.24699H9.43917C9.65285 9.24699 9.85777 9.16211 10.0089 9.01102C10.16 8.85993 10.2448 8.655 10.2448 8.44133C10.2448 8.22765 10.16 8.02273 10.0089 7.87164C9.85777 7.72055 9.65285 7.63566 9.43917 7.63566H4.93826C4.72458 7.63566 4.51966 7.72055 4.36857 7.87164C4.21748 8.02273 4.13259 8.22765 4.13259 8.44133C4.13259 8.655 4.21748 8.85993 4.36857 9.01102C4.51966 9.16211 4.72458 9.24699 4.93826 9.24699ZM54.1943 38.7793H52.1025C53.1075 37.8734 53.7769 36.6546 54.0023 35.3205C54.2617 33.782 53.9199 32.2025 53.0474 30.909L53.5077 30.6351C53.5987 30.581 53.6781 30.5095 53.7414 30.4247C53.8047 30.3399 53.8506 30.2435 53.8767 30.141C53.9027 30.0384 53.9083 29.9318 53.8931 29.8271C53.8779 29.7223 53.8423 29.6217 53.7881 29.5307C53.0509 28.2938 51.9626 27.304 50.6614 26.687C49.3603 26.0701 47.9051 25.854 46.4808 26.0661C45.7944 24.4317 45.0879 22.1035 44.4035 19.8469C44.0043 18.5304 43.5947 17.18 43.1847 15.9525H43.6221C43.7279 15.9525 43.8327 15.9317 43.9304 15.8912C44.0282 15.8507 44.117 15.7914 44.1918 15.7166C44.2666 15.6417 44.3259 15.5529 44.3664 15.4552C44.4069 15.3574 44.4278 15.2527 44.4278 15.1469V10.4104C44.4278 10.3046 44.4069 10.1999 44.3664 10.1021C44.3259 10.0044 44.2666 9.91555 44.1918 9.84073C44.117 9.76592 44.0282 9.70657 43.9304 9.66609C43.8327 9.6256 43.7279 9.60476 43.6221 9.60477H40.3602C39.659 9.60569 38.9777 9.83842 38.4224 10.2667C37.8672 10.6951 37.4691 11.2949 37.2902 11.973H34.2076C33.9939 11.973 33.789 12.0579 33.6379 12.209C33.4868 12.36 33.4019 12.565 33.4019 12.7786C33.4019 12.9923 33.4868 13.1972 33.6379 13.3483C33.789 13.4994 33.9939 13.5843 34.2076 13.5843H37.2902C37.4097 14.0378 37.6284 14.459 37.9305 14.8177C37.9375 14.865 37.9487 14.9116 37.964 14.9569C38.4129 16.2704 39.203 19.221 39.2598 19.4889C40.1411 23.651 40.2644 28.8164 35.8472 29.7892C34.8823 29.9965 33.8797 29.9444 32.9415 29.6382C32.0032 29.332 31.1629 28.7826 30.506 28.046C28.844 26.1431 28.7337 23.2143 30.2369 20.9222C30.6518 20.6579 30.9697 20.2661 31.1429 19.8056C31.316 19.3452 31.3351 18.841 31.1972 18.3688C31.0594 17.8966 30.772 17.4819 30.3783 17.187C29.9846 16.8921 29.5058 16.7329 29.0139 16.7333H28.326C28.3396 16.6444 28.3468 16.5545 28.3475 16.4646V13.4004C29.4725 13.2987 30.5537 12.9149 31.4909 12.2844C32.4281 11.6539 33.1911 10.7971 33.7092 9.79338C34.2273 8.78966 34.4838 7.67143 34.455 6.54223C34.4261 5.41304 34.1128 4.30938 33.5441 3.33344C32.9753 2.35749 32.1696 1.54082 31.2014 0.95903C30.2331 0.377239 29.1338 0.0491383 28.0051 0.00510417C26.8764 -0.0389299 25.7548 0.202526 24.7442 0.707118C23.7336 1.21171 22.8667 1.96312 22.2236 2.89179H13.736C13.2376 2.89236 12.7598 3.0906 12.4074 3.44302C12.055 3.79545 11.8567 4.27327 11.8562 4.77167V16.4646C11.8567 16.963 12.055 17.4408 12.4074 17.7932C12.7598 18.1456 13.2376 18.3439 13.736 18.3444H14.9908C14.8638 18.759 14.8586 19.2014 14.9757 19.6189C15.0927 20.0364 15.3272 20.4114 15.6513 20.6996C15.373 20.829 15.1008 20.9688 14.8366 21.1215C12.0759 22.7169 9.74009 25.8244 8.88591 29.0382C8.35396 31.0396 8.47216 32.8576 9.21617 34.1655C9.21732 34.1678 9.21856 34.1699 9.21972 34.1721C9.22553 34.1823 9.23057 34.1931 9.23644 34.2032C9.23917 34.2079 9.24263 34.2119 9.24544 34.2165C9.25816 34.2374 9.27182 34.2577 9.28643 34.2773C9.29073 34.2831 9.29459 34.2893 9.29906 34.295C9.31811 34.3191 9.33853 34.3422 9.3602 34.364C9.36625 34.3701 9.37263 34.3758 9.37888 34.3817C9.39637 34.3983 9.41461 34.4142 9.43361 34.4293C9.44016 34.4345 9.44663 34.4397 9.45333 34.4446C9.47756 34.4628 9.5028 34.4795 9.52893 34.4948L9.53179 34.4966C9.5601 34.5128 9.58937 34.5272 9.61944 34.5397C9.62562 34.5424 9.63198 34.5444 9.63822 34.5469C9.66146 34.556 9.68525 34.5641 9.70959 34.5712C9.7188 34.5738 9.72802 34.5763 9.73733 34.5786C9.74596 34.5808 9.75424 34.5837 9.763 34.5856C9.77816 34.5888 9.79327 34.5905 9.80839 34.5929C9.81687 34.5942 9.82524 34.5959 9.83379 34.597C9.86696 34.6014 9.90038 34.6037 9.93384 34.6039C9.93575 34.6039 9.93758 34.6034 9.93949 34.6034L9.94318 34.6034L12.7995 34.5662C12.8393 35.3674 13.0383 36.1527 13.3851 36.8761C13.7318 37.5994 14.2193 38.2465 14.8189 38.7793H0.805664C0.591989 38.7793 0.387065 38.8642 0.235974 39.0153C0.0848822 39.1664 0 39.3713 0 39.585C0 39.7986 0.0848822 40.0036 0.235974 40.1547C0.387065 40.3057 0.591989 40.3906 0.805664 40.3906H54.1943C54.408 40.3906 54.6129 40.3057 54.764 40.1547C54.9151 40.0036 55 39.7986 55 39.585C55 39.3713 54.9151 39.1664 54.764 39.0153C54.6129 38.8642 54.408 38.7793 54.1943 38.7793ZM47.5493 27.6012C48.391 27.6005 49.2222 27.7878 49.9822 28.1494C50.7422 28.5111 51.4118 29.038 51.942 29.6917L51.5558 29.9215C51.4636 29.9555 51.3785 30.0062 51.3046 30.071L42.0319 35.5888C41.514 34.3365 41.4639 32.9397 41.8907 31.6534C42.3174 30.3672 43.1926 29.2774 44.3563 28.5829L44.6758 28.3928C45.5445 27.8743 46.5375 27.6008 47.5493 27.6012ZM49.2369 34.5036C49.1898 34.7785 49.0495 35.0289 48.8396 35.2125C48.6296 35.3962 48.3629 35.502 48.0841 35.5122C47.8054 35.5223 47.5317 35.4362 47.3089 35.2683C47.0862 35.1004 46.928 34.861 46.8611 34.5902L48.8591 33.4012C49.0094 33.5387 49.1227 33.7116 49.1887 33.9042C49.2547 34.0968 49.2713 34.3029 49.2369 34.5036H49.2369ZM38.7977 12.7786C38.7981 12.3644 38.9629 11.9672 39.2558 11.6743C39.5488 11.3813 39.9459 11.2166 40.3602 11.2161H42.8164V14.3412H40.3602C39.9459 14.3407 39.5488 14.1759 39.2558 13.883C38.9629 13.5901 38.7981 13.1929 38.7977 12.7786ZM29.0139 18.3447C29.189 18.3446 29.3571 18.4138 29.4813 18.5372C29.6056 18.6607 29.6759 18.8283 29.677 19.0034C29.6781 19.1785 29.6099 19.347 29.4872 19.472C29.3645 19.5969 29.1973 19.6683 29.0222 19.6704H21.3562C20.8556 19.6418 20.3539 19.642 19.8533 19.6708H17.166C16.9901 19.6708 16.8215 19.6009 16.6971 19.4766C16.5728 19.3522 16.5029 19.1836 16.5029 19.0077C16.5029 18.8319 16.5728 18.6632 16.6971 18.5389C16.8215 18.4145 16.9901 18.3447 17.166 18.3447H29.0139ZM27.7387 1.61133C28.748 1.61119 29.7348 1.91037 30.5741 2.47105C31.4134 3.03172 32.0676 3.82869 32.454 4.76119C32.8404 5.69368 32.9415 6.7198 32.7447 7.70979C32.5479 8.69978 32.0619 9.60917 31.3482 10.3229C30.6345 11.0367 29.7252 11.5228 28.7352 11.7198C27.7453 11.9168 26.7191 11.8158 25.7866 11.4295C24.8541 11.0433 24.057 10.3892 23.4962 9.54996C22.9354 8.71072 22.6361 7.72402 22.6361 6.71466C22.6375 5.36174 23.1755 4.06462 24.1321 3.10789C25.0887 2.15117 26.3857 1.61295 27.7387 1.61133ZM13.736 16.7331C13.6648 16.733 13.5966 16.7047 13.5462 16.6544C13.4959 16.604 13.4676 16.5358 13.4675 16.4646V4.77167C13.4676 4.70048 13.4959 4.63222 13.5462 4.58187C13.5966 4.53152 13.6648 4.5032 13.736 4.50312H21.4007C21.075 5.43477 20.9588 6.42677 21.0604 7.40846C21.1619 8.39015 21.4788 9.33735 21.9883 10.1826C22.4978 11.0278 23.1875 11.7503 24.0082 12.2985C24.8288 12.8467 25.7603 13.2071 26.7362 13.3541V16.4646C26.7362 16.5358 26.7078 16.604 26.6575 16.6544C26.6071 16.7047 26.5389 16.733 26.4677 16.7331H13.736ZM10.4432 29.4522C11.193 26.631 13.234 23.9086 15.6428 22.5165C16.9463 21.7807 18.4031 21.3581 19.8981 21.2821H28.2198C27.0748 23.9398 27.4522 26.999 29.2925 29.106C30.1408 30.0585 31.2263 30.7692 32.4386 31.1656C33.6509 31.5621 34.9467 31.6301 36.1938 31.3628C40.6468 30.3821 42.2955 26.0468 40.8362 19.1552C40.7813 18.896 40.3604 17.3131 39.9527 15.9255C40.0878 15.9432 40.2239 15.9522 40.3602 15.9525H41.4834C41.9427 17.2845 42.4088 18.8217 42.8615 20.3145C43.5306 22.5209 44.2207 24.7947 44.912 26.4892C44.5453 26.6334 44.1907 26.8069 43.8518 27.0081L43.5324 27.1982C42.7127 27.683 41.9972 28.3255 41.4275 29.0886C40.8577 29.8517 40.445 30.7202 40.2132 31.6439C40.1339 31.9586 40.0754 32.2782 40.0382 32.6006L27.6978 32.7611C26.8841 29.0217 24.2731 26.0259 21.0326 25.1955C18.8256 24.63 16.3183 25.0734 14.1533 26.4116C12.4775 27.4602 11.1142 28.9398 10.2061 30.6956C10.2539 30.2758 10.3332 29.8601 10.4432 29.4522ZM10.9885 32.9783C11.696 30.8036 13.1208 28.9442 15.0005 27.7822C16.7949 26.673 18.8479 26.2991 20.6327 26.7564C23.1985 27.4139 25.2921 29.7803 26.0487 32.7825L10.9885 32.9783ZM20.037 34.4721C19.989 34.7516 19.8447 35.0055 19.6291 35.1897C19.4135 35.3739 19.1401 35.4768 18.8566 35.4805C18.573 35.4842 18.2971 35.3884 18.0767 35.2099C17.8564 35.0314 17.7055 34.7813 17.6503 34.5031L20.037 34.4721ZM18.8413 38.7041C17.7131 38.7027 16.6276 38.2721 15.8052 37.4998C14.9828 36.7274 14.4851 35.6711 14.4129 34.5452L16.0277 34.5243C16.0925 35.2323 16.422 35.8899 16.9503 36.3658C17.4786 36.8417 18.1669 37.1009 18.8779 37.0916C19.5889 37.0824 20.2703 36.8054 20.786 36.3159C21.3018 35.8265 21.614 35.1605 21.6605 34.451L23.2752 34.43C23.2316 35.5773 22.7456 36.6632 21.919 37.46C21.0924 38.2568 19.9894 38.7026 18.8413 38.7041ZM22.8636 38.7793C23.4828 38.2288 23.982 37.5566 24.3302 36.8048C24.6783 36.0529 24.8678 35.2374 24.887 34.409L26.9824 34.3818C27.019 34.3838 27.0557 34.3833 27.0923 34.3804L40.0307 34.2121C40.1431 35.2453 40.477 36.2421 41.0098 37.1345C41.0639 37.2254 41.1354 37.3048 41.2201 37.3681C41.3049 37.4314 41.4013 37.4774 41.5039 37.5034C41.6064 37.5295 41.7131 37.5351 41.8178 37.5199C41.9225 37.5047 42.0232 37.469 42.1141 37.4149L42.6701 37.0841C43.001 37.7222 43.4429 38.2963 43.9752 38.7793H22.8636ZM50.6026 37.9217C50.0785 38.2924 49.4802 38.545 48.849 38.662C48.2178 38.7791 47.5688 38.7578 46.9466 38.5997C46.3244 38.4415 45.7439 38.1503 45.2452 37.746C44.7465 37.3418 44.3415 36.8342 44.058 36.2582L45.4516 35.4289C45.6119 35.7963 45.8485 36.1253 46.1457 36.3942C46.4429 36.6631 46.7939 36.8657 47.1755 36.9885C47.557 37.1113 47.9603 37.1514 48.3585 37.1064C48.7568 37.0613 49.1409 36.932 49.4853 36.727C49.8297 36.5221 50.1266 36.2462 50.3562 35.9176C50.5858 35.5891 50.7428 35.2155 50.8169 34.8216C50.891 34.4277 50.8804 34.0226 50.7858 33.6331C50.6913 33.2436 50.5149 32.8787 50.2685 32.5626L51.6611 31.7339C51.9981 32.2096 52.2381 32.7471 52.3674 33.3156C52.4966 33.8841 52.5125 34.4725 52.4142 35.0472C52.3159 35.6218 52.1053 36.1715 51.7945 36.6647C51.4836 37.1579 51.0786 37.5851 50.6026 37.9217ZM27.7387 7.52032H30.062C30.2756 7.52032 30.4806 7.43544 30.6317 7.28435C30.7828 7.13326 30.8676 6.92833 30.8676 6.71466C30.8676 6.50098 30.7828 6.29606 30.6317 6.14497C30.4806 5.99387 30.2756 5.90899 30.062 5.90899H28.5443V3.66866C28.5443 3.45499 28.4594 3.25006 28.3083 3.09897C28.1573 2.94788 27.9523 2.863 27.7387 2.863C27.525 2.863 27.3201 2.94788 27.169 3.09897C27.0179 3.25006 26.933 3.45499 26.933 3.66866V6.71466C26.933 6.92833 27.0179 7.13326 27.169 7.28435C27.3201 7.43544 27.525 7.52032 27.7387 7.52032Z" fill="url(#paint0_linear_1_1204)"/>
<defs>
<linearGradient id="paint0_linear_1_1204" x1="27.5" y1="0" x2="27.5" y2="40.3906" gradientUnits="userSpaceOnUse">
<stop offset="0.161458" stop-color="#4A67FF"/>
<stop offset="0.510417" stop-color="#8C2CED" stop-opacity="0.937746"/>
<stop offset="0.755208" stop-color="#FA22F1" stop-opacity="0.87"/>
</linearGradient>
</defs>
</svg>
