<svg width="40" height="40" viewBox="0 0 40 40" fill="none" xmlns="http://www.w3.org/2000/svg">
<path d="M40 20.0105C39.9944 30.9771 30.9682 40 20 40C9.03179 40 0 30.9682 0 20C0 8.95453 8.95453 0 20 0C23.0584 0 25.9493 0.899799 25.9493 0.899799C26.0298 0.923944 28.4177 1.85272 28.4177 1.85272" fill="url(#paint0_linear_1_1140)"/>
<path d="M34.6921 20.9046C34.7432 21.4063 34.7688 21.9102 34.7686 22.4145C34.7686 30.5706 28.1561 37.1831 20 37.1831C11.8439 37.1831 5.23138 30.5706 5.23138 22.4145C5.23138 14.2584 11.8439 7.64589 20 7.64589C22.7542 7.64135 25.4543 8.41076 27.7924 9.86642" fill="url(#paint1_linear_1_1140)"/>
<path d="M34.7686 20C34.7686 28.1562 28.1561 34.7686 20 34.7686C11.8439 34.7686 5.23138 28.1562 5.23138 20C5.23138 11.8439 11.8439 5.2314 20 5.2314C22.7542 5.22686 25.4543 5.99627 27.7924 7.45193L34.6913 18.4894C34.7268 18.8376 34.7498 19.1893 34.7606 19.5445C34.7662 19.6958 34.7686 19.8479 34.7686 20Z" fill="#FED947"/>
<path d="M20 32.3541C12.2503 32.3541 5.89456 26.3847 5.28048 18.7928C5.24829 19.1909 5.23192 19.5933 5.23138 20C5.23138 28.1561 11.8439 34.7686 20 34.7686C28.1561 34.7686 34.7686 28.1561 34.7686 20C34.7686 19.5933 34.7522 19.1909 34.7195 18.7928C34.1054 26.3847 27.7497 32.3541 20 32.3541Z" fill="#FFC42C"/>
<path d="M40 21.2072V21.2177C38.9682 21.0986 34.107 20.4273 30.6905 16.1473C26.177 10.503 28.2358 3.63137 28.4177 3.05994L40 21.2072Z" fill="#FFC42C"/>
<path d="M40 21.2072V21.2177C38.1643 20.9937 36.3872 20.4264 34.7614 19.5452C34.7506 19.1906 34.7276 18.8389 34.6921 18.4901L27.7932 7.45269C27.8068 5.08328 28.33 3.34002 28.4177 3.05994L40 20.0104V21.2072Z" fill="url(#paint2_linear_1_1140)"/>
<path d="M40 20V20.0104C38.9682 19.8913 34.107 19.2201 30.6905 14.94C26.177 9.29575 28.2358 2.42412 28.4177 1.85269L40 20Z" fill="#E1E1E3"/>
<path d="M15.4229 25.0576C15.3036 25.0576 15.1869 25.0223 15.0876 24.956C14.9883 24.8897 14.9109 24.7955 14.8651 24.6852C14.8194 24.575 14.8074 24.4536 14.8306 24.3365C14.8538 24.2194 14.9112 24.1119 14.9956 24.0274L24.0241 14.9948C24.0798 14.9371 24.1464 14.8911 24.22 14.8594C24.2936 14.8278 24.3728 14.8111 24.453 14.8103C24.5331 14.8096 24.6126 14.8248 24.6868 14.8552C24.761 14.8855 24.8284 14.9303 24.8851 14.9869C24.9418 15.0436 24.9867 15.1109 25.0171 15.1851C25.0475 15.2593 25.0628 15.3387 25.0621 15.4189C25.0615 15.499 25.0448 15.5783 25.0132 15.6519C24.9816 15.7256 24.9357 15.7922 24.8781 15.8479L15.8495 24.8813C15.7935 24.9373 15.727 24.9818 15.6538 25.012C15.5806 25.0423 15.5021 25.0577 15.4229 25.0576ZM23.7368 26.3236C23.1385 26.3237 22.5587 26.1164 22.0961 25.737C21.6335 25.3575 21.3168 24.8294 21.2 24.2426C21.0832 23.6559 21.1734 23.0467 21.4554 22.519C21.7373 21.9913 22.1935 21.5777 22.7463 21.3487C23.299 21.1197 23.914 21.0894 24.4866 21.263C25.0591 21.4366 25.5538 21.8034 25.8862 22.3009C26.2186 22.7983 26.3682 23.3957 26.3096 23.9911C26.251 24.5865 25.9877 25.1432 25.5646 25.5662C25.3251 25.807 25.0403 25.9979 24.7265 26.1279C24.4128 26.2579 24.0764 26.3244 23.7368 26.3236ZM23.7368 22.359C23.5558 22.3583 23.3765 22.3934 23.2092 22.4625C23.0419 22.5316 22.8899 22.6332 22.7622 22.7614C22.5692 22.9541 22.4377 23.1998 22.3844 23.4673C22.331 23.7348 22.3582 24.012 22.4625 24.2641C22.5668 24.5161 22.7435 24.7315 22.9703 24.8831C23.197 25.0347 23.4637 25.1156 23.7364 25.1156C24.0092 25.1156 24.2758 25.0347 24.5026 24.8831C24.7293 24.7315 24.906 24.5161 25.0103 24.2641C25.1146 24.012 25.1418 23.7348 25.0885 23.4673C25.0351 23.1998 24.9037 22.9541 24.7107 22.7614C24.583 22.6333 24.4312 22.5317 24.264 22.4627C24.0969 22.3936 23.9177 22.3584 23.7368 22.359ZM16.2632 18.8483C15.6649 18.8483 15.0852 18.6408 14.6227 18.2613C14.1603 17.8817 13.8437 17.3536 13.727 16.7668C13.6103 16.18 13.7007 15.5709 13.9828 15.0433C14.2648 14.5157 14.7211 14.1022 15.2738 13.8733C15.8265 13.6444 16.4415 13.6142 17.014 13.7879C17.5865 13.9615 18.0811 14.3284 18.4134 14.8258C18.7458 15.3233 18.8954 15.9206 18.8367 16.5159C18.7781 17.1113 18.5148 17.6679 18.0918 18.091C17.8522 18.3318 17.5672 18.5228 17.2533 18.6528C16.9395 18.7828 16.6029 18.8493 16.2632 18.8483ZM16.2648 14.8861C15.9458 14.8864 15.6368 14.9973 15.3904 15.1999C15.144 15.4025 14.9754 15.6843 14.9135 15.9972C14.8516 16.3101 14.9001 16.6348 15.0508 16.916C15.2014 17.1972 15.445 17.4174 15.7398 17.5391C16.0347 17.6609 16.3626 17.6766 16.6678 17.5836C16.9729 17.4907 17.2364 17.2948 17.4133 17.0293C17.5902 16.7638 17.6695 16.4452 17.6378 16.1278C17.6061 15.8104 17.4653 15.5138 17.2394 15.2886C17.1117 15.1597 16.9596 15.0576 16.792 14.9881C16.6244 14.9186 16.4446 14.8831 16.2632 14.8837L16.2648 14.8861Z" fill="#674034"/>
<defs>
<linearGradient id="paint0_linear_1_1140" x1="20" y1="0" x2="20" y2="40" gradientUnits="userSpaceOnUse">
<stop offset="0.161458" stop-color="#4A67FF"/>
<stop offset="0.510417" stop-color="#8C2CED" stop-opacity="0.937746"/>
<stop offset="0.755208" stop-color="#FA22F1" stop-opacity="0.87"/>
</linearGradient>
<linearGradient id="paint1_linear_1_1140" x1="20" y1="7.64587" x2="20" y2="37.1831" gradientUnits="userSpaceOnUse">
<stop offset="0.161458" stop-color="#4A67FF"/>
<stop offset="0.510417" stop-color="#8C2CED" stop-opacity="0.937746"/>
<stop offset="0.755208" stop-color="#FA22F1" stop-opacity="0.87"/>
</linearGradient>
<linearGradient id="paint2_linear_1_1140" x1="33.8966" y1="3.05994" x2="33.8966" y2="21.2177" gradientUnits="userSpaceOnUse">
<stop offset="0.161458" stop-color="#4A67FF"/>
<stop offset="0.510417" stop-color="#8C2CED" stop-opacity="0.937746"/>
<stop offset="0.755208" stop-color="#FA22F1" stop-opacity="0.87"/>
</linearGradient>
</defs>
</svg>
