<svg width="40" height="40" viewBox="0 0 40 40" fill="none" xmlns="http://www.w3.org/2000/svg">
<path d="M20 0C16.0444 0 12.1776 1.17298 8.88861 3.37061C5.59962 5.56824 3.03617 8.69181 1.52242 12.3463C0.00866562 16.0009 -0.387401 20.0222 0.384303 23.9018C1.15601 27.7814 3.06082 31.3451 5.85787 34.1421C8.65492 36.9392 12.2186 38.844 16.0982 39.6157C19.9778 40.3874 23.9992 39.9913 27.6537 38.4776C31.3082 36.9638 34.4318 34.4004 36.6294 31.1114C38.827 27.8224 40 23.9556 40 20C39.9941 14.6975 37.885 9.61388 34.1356 5.86444C30.3861 2.115 25.3025 0.00595527 20 0V0ZM20 26.25C18.7639 26.25 17.5555 25.8834 16.5277 25.1967C15.4999 24.5099 14.6988 23.5338 14.2258 22.3918C13.7527 21.2497 13.6289 19.9931 13.8701 18.7807C14.1113 17.5683 14.7065 16.4547 15.5806 15.5806C16.4547 14.7065 17.5683 14.1113 18.7807 13.8701C19.9931 13.6289 21.2497 13.7527 22.3918 14.2258C23.5338 14.6988 24.5099 15.4999 25.1967 16.5277C25.8835 17.5555 26.25 18.7639 26.25 20C26.2482 21.657 25.5891 23.2457 24.4174 24.4174C23.2457 25.5891 21.6571 26.2482 20 26.25Z" fill="#FCCB7E"/>
<path d="M38.125 20C38.123 18.6298 37.775 17.2823 37.1135 16.0823C36.452 14.8824 35.4982 13.8688 34.3406 13.1356C34.3631 12.9245 34.3746 12.7123 34.375 12.5C34.3729 10.6773 33.6479 8.92987 32.359 7.64103C31.0702 6.35218 29.3227 5.62716 27.5 5.62501C27.2875 5.62551 27.0751 5.63699 26.8638 5.65938C26.1322 4.50046 25.1191 3.54565 23.9189 2.88396C22.7187 2.22227 21.3705 1.87524 20 1.87524C18.6295 1.87524 17.2813 2.22227 16.0811 2.88396C14.8809 3.54565 13.8678 4.50046 13.1363 5.65938C12.9249 5.63699 12.7126 5.62551 12.5 5.62501C10.6773 5.62716 8.92988 6.35218 7.64103 7.64103C6.35219 8.92987 5.62717 10.6773 5.62502 12.5C5.62547 12.7123 5.63694 12.9245 5.65939 13.1356C4.50033 13.8672 3.54539 14.8803 2.88361 16.0806C2.22183 17.2808 1.87476 18.6291 1.87476 19.9997C1.87476 21.3703 2.22183 22.7186 2.88361 23.9188C3.54539 25.1191 4.50033 26.1322 5.65939 26.8638C5.63696 27.0751 5.62549 27.2875 5.62502 27.5C5.62717 29.3227 6.35219 31.0701 7.64103 32.359C8.92988 33.6478 10.6773 34.3729 12.5 34.375C12.7126 34.3745 12.9249 34.363 13.1363 34.3406C13.8678 35.4996 14.8809 36.4544 16.0811 37.1161C17.2813 37.7778 18.6295 38.1248 20 38.1248C21.3705 38.1248 22.7187 37.7778 23.9189 37.1161C25.1191 36.4544 26.1322 35.4996 26.8638 34.3406C27.0751 34.363 27.2875 34.3745 27.5 34.375C29.3227 34.3729 31.0702 33.6478 32.359 32.359C33.6479 31.0701 34.3729 29.3227 34.375 27.5C34.3745 27.2875 34.3631 27.0751 34.3406 26.8638C35.4982 26.1307 36.4519 25.1172 37.1134 23.9174C37.775 22.7176 38.1229 21.3701 38.125 20ZM26.25 20C26.25 21.2361 25.8835 22.4445 25.1967 23.4723C24.5099 24.5001 23.5338 25.3012 22.3918 25.7743C21.2498 26.2473 19.9931 26.3711 18.7807 26.1299C17.5683 25.8888 16.4547 25.2935 15.5806 24.4194C14.7065 23.5453 14.1113 22.4317 13.8701 21.2193C13.629 20.0069 13.7527 18.7503 14.2258 17.6082C14.6988 16.4662 15.4999 15.4901 16.5277 14.8033C17.5555 14.1166 18.7639 13.75 20 13.75C21.6571 13.7518 23.2457 14.4109 24.4174 15.5826C25.5891 16.7543 26.2482 18.343 26.25 20Z" fill="#F478AF"/>
<path d="M36.875 20C36.873 18.6298 36.525 17.2823 35.8635 16.0823C35.202 14.8824 34.2482 13.8688 33.0906 13.1356C33.1131 12.9245 33.1246 12.7123 33.125 12.5C33.1229 10.6773 32.3979 8.92987 31.109 7.64103C29.8202 6.35218 28.0727 5.62716 26.25 5.62501C26.0375 5.62551 25.8251 5.63699 25.6138 5.65938C24.8822 4.50046 23.8691 3.54565 22.6689 2.88396C21.4687 2.22227 20.1205 1.87524 18.75 1.87524C17.3795 1.87524 16.0313 2.22227 14.8311 2.88396C13.6309 3.54565 12.6178 4.50046 11.8863 5.65938C11.6749 5.63699 11.4626 5.62551 11.25 5.62501C9.42731 5.62716 7.67988 6.35218 6.39103 7.64103C5.10219 8.92987 4.37717 10.6773 4.37502 12.5C4.37547 12.7123 4.38694 12.9245 4.40939 13.1356C3.25033 13.8672 2.29539 14.8803 1.63361 16.0806C0.971828 17.2808 0.624756 18.6291 0.624756 19.9997C0.624756 21.3703 0.971828 22.7186 1.63361 23.9188C2.29539 25.1191 3.25033 26.1322 4.40939 26.8638C4.38696 27.0751 4.37549 27.2875 4.37502 27.5C4.37717 29.3227 5.10219 31.0701 6.39103 32.359C7.67988 33.6478 9.42731 34.3729 11.25 34.375C11.4626 34.3745 11.6749 34.363 11.8863 34.3406C12.6178 35.4996 13.6309 36.4544 14.8311 37.1161C16.0313 37.7778 17.3795 38.1248 18.75 38.1248C20.1205 38.1248 21.4687 37.7778 22.6689 37.1161C23.8691 36.4544 24.8822 35.4996 25.6138 34.3406C25.8251 34.363 26.0375 34.3745 26.25 34.375C28.0727 34.3729 29.8202 33.6478 31.109 32.359C32.3979 31.0701 33.1229 29.3227 33.125 27.5C33.1245 27.2875 33.1131 27.0751 33.0906 26.8638C34.2482 26.1307 35.2019 25.1172 35.8634 23.9174C36.525 22.7176 36.8729 21.3701 36.875 20ZM25 20C25 21.2361 24.6335 22.4445 23.9467 23.4723C23.2599 24.5001 22.2838 25.3012 21.1418 25.7743C19.9998 26.2473 18.7431 26.3711 17.5307 26.1299C16.3183 25.8888 15.2047 25.2935 14.3306 24.4194C13.4565 23.5453 12.8613 22.4317 12.6201 21.2193C12.379 20.0069 12.5027 18.7503 12.9758 17.6082C13.4488 16.4662 14.2499 15.4901 15.2777 14.8033C16.3055 14.1166 17.5139 13.75 18.75 13.75C20.4071 13.7518 21.9957 14.4109 23.1674 15.5826C24.3391 16.7543 24.9982 18.343 25 20Z" fill="#F478AF"/>
<path d="M11.8881 5.65625H11.8562H11.8862H11.8881ZM38.125 20C38.1229 18.6298 37.775 17.2823 37.1134 16.0823C36.4519 14.8824 35.4981 13.8688 34.3406 13.1356C34.363 12.9245 34.3745 12.7123 34.375 12.5C34.3728 10.6773 33.6478 8.92986 32.3589 7.64102C31.0701 6.35217 29.3227 5.62715 27.5 5.625C27.3075 5.625 27.1056 5.63688 26.8937 5.6575C28.5971 5.8194 30.179 6.60999 31.3311 7.87506C32.4832 9.14013 33.1227 10.789 33.125 12.5C33.1245 12.7123 33.113 12.9245 33.0906 13.1356C34.2496 13.8672 35.2046 14.8803 35.8664 16.0805C36.5281 17.2808 36.8752 18.6291 36.8752 19.9997C36.8752 21.3703 36.5281 22.7186 35.8664 23.9188C35.2046 25.1191 34.2496 26.1322 33.0906 26.8638C33.113 27.0751 33.1245 27.2875 33.125 27.5C33.1227 29.211 32.4832 30.8599 31.3311 32.1249C30.179 33.39 28.5971 34.1806 26.8937 34.3425C27.1056 34.3631 27.3075 34.375 27.5 34.375C29.3227 34.3729 31.0701 33.6478 32.3589 32.359C33.6478 31.0701 34.3728 29.3227 34.375 27.5C34.3745 27.2875 34.363 27.0751 34.3406 26.8638C35.4981 26.1307 36.4518 25.1172 37.1134 23.9174C37.7749 22.7176 38.1228 21.3701 38.125 20ZM25.6137 5.65938C25.8251 5.63698 26.0374 5.6255 26.25 5.625C26.4562 5.625 26.66 5.63813 26.8618 5.65625C26.1286 4.49951 25.1154 3.54651 23.9159 2.88553C22.7164 2.22455 21.3695 1.87698 20 1.875C19.7893 1.875 19.5831 1.89875 19.375 1.915C20.6342 2.0117 21.8537 2.40042 22.9366 3.05036C24.0195 3.7003 24.9361 4.59358 25.6137 5.65938ZM11.8862 34.3406H11.8562H11.8881H11.8862ZM26.25 34.375C26.0374 34.3745 25.8251 34.363 25.6137 34.3406C24.9361 35.4064 24.0195 36.2997 22.9366 36.9496C21.8537 37.5996 20.6342 37.9883 19.375 38.085C19.5831 38.1013 19.7893 38.125 20 38.125C21.3695 38.123 22.7164 37.7755 23.9159 37.1145C25.1154 36.4535 26.1286 35.5005 26.8618 34.3438C26.66 34.3619 26.4562 34.375 26.25 34.375Z" fill="#F693BF"/>
<path d="M20 0C19.7906 0 19.5831 0.009375 19.375 0.015625C24.5692 0.174746 29.4974 2.34998 33.1153 6.08041C36.7332 9.81084 38.7565 14.8033 38.7565 20C38.7565 25.1967 36.7332 30.1892 33.1153 33.9196C29.4974 37.65 24.5692 39.8253 19.375 39.9844C19.5831 39.9906 19.7906 40 20 40C25.3043 40 30.3914 37.8929 34.1421 34.1421C37.8929 30.3914 40 25.3043 40 20C40 14.6957 37.8929 9.60859 34.1421 5.85787C30.3914 2.10714 25.3043 0 20 0V0Z" fill="#FDD598"/>
<path d="M20.625 5.625H19.375C19.2092 5.625 19.0503 5.55915 18.9331 5.44194C18.8158 5.32473 18.75 5.16576 18.75 5C18.75 4.83424 18.8158 4.67527 18.9331 4.55806C19.0503 4.44085 19.2092 4.375 19.375 4.375H20.625C20.7908 4.375 20.9497 4.44085 21.0669 4.55806C21.1842 4.67527 21.25 4.83424 21.25 5C21.25 5.16576 21.1842 5.32473 21.0669 5.44194C20.9497 5.55915 20.7908 5.625 20.625 5.625Z" fill="#CA1D6A"/>
<path d="M16.875 8.125H15.625C15.4592 8.125 15.3003 8.05915 15.1831 7.94194C15.0658 7.82473 15 7.66576 15 7.5C15 7.33424 15.0658 7.17527 15.1831 7.05806C15.3003 6.94085 15.4592 6.875 15.625 6.875H16.875C17.0408 6.875 17.1997 6.94085 17.3169 7.05806C17.4342 7.17527 17.5 7.33424 17.5 7.5C17.5 7.66576 17.4342 7.82473 17.3169 7.94194C17.1997 8.05915 17.0408 8.125 16.875 8.125Z" fill="#CA1D6A"/>
<path d="M24.375 8.125H23.125C22.9592 8.125 22.8003 8.05915 22.6831 7.94194C22.5658 7.82473 22.5 7.66576 22.5 7.5C22.5 7.33424 22.5658 7.17527 22.6831 7.05806C22.8003 6.94085 22.9592 6.875 23.125 6.875H24.375C24.5408 6.875 24.6997 6.94085 24.8169 7.05806C24.9342 7.17527 25 7.33424 25 7.5C25 7.66576 24.9342 7.82473 24.8169 7.94194C24.6997 8.05915 24.5408 8.125 24.375 8.125Z" fill="#CA1D6A"/>
<path d="M11.25 10.625H10C9.83424 10.625 9.67527 10.5592 9.55806 10.4419C9.44085 10.3247 9.375 10.1658 9.375 10C9.375 9.83424 9.44085 9.67527 9.55806 9.55806C9.67527 9.44085 9.83424 9.375 10 9.375H11.25C11.4158 9.375 11.5747 9.44085 11.6919 9.55806C11.8092 9.67527 11.875 9.83424 11.875 10C11.875 10.1658 11.8092 10.3247 11.6919 10.4419C11.5747 10.5592 11.4158 10.625 11.25 10.625Z" fill="#CA1D6A"/>
<path d="M15 13.125H13.75C13.5842 13.125 13.4253 13.0592 13.3081 12.9419C13.1908 12.8247 13.125 12.6658 13.125 12.5C13.125 12.3342 13.1908 12.1753 13.3081 12.0581C13.4253 11.9408 13.5842 11.875 13.75 11.875H15C15.1658 11.875 15.3247 11.9408 15.4419 12.0581C15.5592 12.1753 15.625 12.3342 15.625 12.5C15.625 12.6658 15.5592 12.8247 15.4419 12.9419C15.3247 13.0592 15.1658 13.125 15 13.125Z" fill="#CA1D6A"/>
<path d="M30 10.625H28.75C28.5842 10.625 28.4253 10.5592 28.3081 10.4419C28.1908 10.3247 28.125 10.1658 28.125 10C28.125 9.83424 28.1908 9.67527 28.3081 9.55806C28.4253 9.44085 28.5842 9.375 28.75 9.375H30C30.1658 9.375 30.3247 9.44085 30.4419 9.55806C30.5592 9.67527 30.625 9.83424 30.625 10C30.625 10.1658 30.5592 10.3247 30.4419 10.4419C30.3247 10.5592 30.1658 10.625 30 10.625Z" fill="#CA1D6A"/>
<path d="M26.25 13.125H25C24.8342 13.125 24.6753 13.0592 24.5581 12.9419C24.4408 12.8247 24.375 12.6658 24.375 12.5C24.375 12.3342 24.4408 12.1753 24.5581 12.0581C24.6753 11.9408 24.8342 11.875 25 11.875H26.25C26.4158 11.875 26.5747 11.9408 26.6919 12.0581C26.8092 12.1753 26.875 12.3342 26.875 12.5C26.875 12.6658 26.8092 12.8247 26.6919 12.9419C26.5747 13.0592 26.4158 13.125 26.25 13.125Z" fill="#CA1D6A"/>
<path d="M20.625 10.625H19.375C19.2092 10.625 19.0503 10.5592 18.9331 10.4419C18.8158 10.3247 18.75 10.1658 18.75 10C18.75 9.83424 18.8158 9.67527 18.9331 9.55806C19.0503 9.44085 19.2092 9.375 19.375 9.375H20.625C20.7908 9.375 20.9497 9.44085 21.0669 9.55806C21.1842 9.67527 21.25 9.83424 21.25 10C21.25 10.1658 21.1842 10.3247 21.0669 10.4419C20.9497 10.5592 20.7908 10.625 20.625 10.625ZM11.25 15.625H10C9.83424 15.625 9.67527 15.5592 9.55806 15.4419C9.44085 15.3247 9.375 15.1658 9.375 15C9.375 14.8342 9.44085 14.6753 9.55806 14.5581C9.67527 14.4408 9.83424 14.375 10 14.375H11.25C11.4158 14.375 11.5747 14.4408 11.6919 14.5581C11.8092 14.6753 11.875 14.8342 11.875 15C11.875 15.1658 11.8092 15.3247 11.6919 15.4419C11.5747 15.5592 11.4158 15.625 11.25 15.625ZM7.5 18.125H6.25C6.08424 18.125 5.92527 18.0592 5.80806 17.9419C5.69085 17.8247 5.625 17.6658 5.625 17.5C5.625 17.3342 5.69085 17.1753 5.80806 17.0581C5.92527 16.9408 6.08424 16.875 6.25 16.875H7.5C7.66576 16.875 7.82473 16.9408 7.94194 17.0581C8.05915 17.1753 8.125 17.3342 8.125 17.5C8.125 17.6658 8.05915 17.8247 7.94194 17.9419C7.82473 18.0592 7.66576 18.125 7.5 18.125ZM11.25 20.625H10C9.83424 20.625 9.67527 20.5592 9.55806 20.4419C9.44085 20.3247 9.375 20.1658 9.375 20C9.375 19.8342 9.44085 19.6753 9.55806 19.5581C9.67527 19.4408 9.83424 19.375 10 19.375H11.25C11.4158 19.375 11.5747 19.4408 11.6919 19.5581C11.8092 19.6753 11.875 19.8342 11.875 20C11.875 20.1658 11.8092 20.3247 11.6919 20.4419C11.5747 20.5592 11.4158 20.625 11.25 20.625Z" fill="#CA1D6A"/>
<path d="M30 15.625H28.75C28.5842 15.625 28.4253 15.5592 28.3081 15.4419C28.1908 15.3247 28.125 15.1658 28.125 15C28.125 14.8342 28.1908 14.6753 28.3081 14.5581C28.4253 14.4408 28.5842 14.375 28.75 14.375H30C30.1658 14.375 30.3247 14.4408 30.4419 14.5581C30.5592 14.6753 30.625 14.8342 30.625 15C30.625 15.1658 30.5592 15.3247 30.4419 15.4419C30.3247 15.5592 30.1658 15.625 30 15.625Z" fill="#CA1D6A"/>
<path d="M33.75 18.125H32.5C32.3342 18.125 32.1753 18.0592 32.0581 17.9419C31.9408 17.8247 31.875 17.6658 31.875 17.5C31.875 17.3342 31.9408 17.1753 32.0581 17.0581C32.1753 16.9408 32.3342 16.875 32.5 16.875H33.75C33.9158 16.875 34.0747 16.9408 34.1919 17.0581C34.3092 17.1753 34.375 17.3342 34.375 17.5C34.375 17.6658 34.3092 17.8247 34.1919 17.9419C34.0747 18.0592 33.9158 18.125 33.75 18.125Z" fill="#CA1D6A"/>
<path d="M20.625 35.625H19.375C19.2092 35.625 19.0503 35.5592 18.9331 35.4419C18.8158 35.3247 18.75 35.1658 18.75 35C18.75 34.8342 18.8158 34.6753 18.9331 34.5581C19.0503 34.4408 19.2092 34.375 19.375 34.375H20.625C20.7908 34.375 20.9497 34.4408 21.0669 34.5581C21.1842 34.6753 21.25 34.8342 21.25 35C21.25 35.1658 21.1842 35.3247 21.0669 35.4419C20.9497 35.5592 20.7908 35.625 20.625 35.625Z" fill="#CA1D6A"/>
<path d="M16.875 33.125H15.625C15.4592 33.125 15.3003 33.0592 15.1831 32.9419C15.0658 32.8247 15 32.6658 15 32.5C15 32.3342 15.0658 32.1753 15.1831 32.0581C15.3003 31.9408 15.4592 31.875 15.625 31.875H16.875C17.0408 31.875 17.1997 31.9408 17.3169 32.0581C17.4342 32.1753 17.5 32.3342 17.5 32.5C17.5 32.6658 17.4342 32.8247 17.3169 32.9419C17.1997 33.0592 17.0408 33.125 16.875 33.125Z" fill="#CA1D6A"/>
<path d="M24.375 33.125H23.125C22.9592 33.125 22.8003 33.0592 22.6831 32.9419C22.5658 32.8247 22.5 32.6658 22.5 32.5C22.5 32.3342 22.5658 32.1753 22.6831 32.0581C22.8003 31.9408 22.9592 31.875 23.125 31.875H24.375C24.5408 31.875 24.6997 31.9408 24.8169 32.0581C24.9342 32.1753 25 32.3342 25 32.5C25 32.6658 24.9342 32.8247 24.8169 32.9419C24.6997 33.0592 24.5408 33.125 24.375 33.125Z" fill="#CA1D6A"/>
<path d="M11.25 30.625H10C9.83424 30.625 9.67527 30.5592 9.55806 30.4419C9.44085 30.3247 9.375 30.1658 9.375 30C9.375 29.8342 9.44085 29.6753 9.55806 29.5581C9.67527 29.4408 9.83424 29.375 10 29.375H11.25C11.4158 29.375 11.5747 29.4408 11.6919 29.5581C11.8092 29.6753 11.875 29.8342 11.875 30C11.875 30.1658 11.8092 30.3247 11.6919 30.4419C11.5747 30.5592 11.4158 30.625 11.25 30.625Z" fill="#CA1D6A"/>
<path d="M15 28.125H13.75C13.5842 28.125 13.4253 28.0592 13.3081 27.9419C13.1908 27.8247 13.125 27.6658 13.125 27.5C13.125 27.3342 13.1908 27.1753 13.3081 27.0581C13.4253 26.9408 13.5842 26.875 13.75 26.875H15C15.1658 26.875 15.3247 26.9408 15.4419 27.0581C15.5592 27.1753 15.625 27.3342 15.625 27.5C15.625 27.6658 15.5592 27.8247 15.4419 27.9419C15.3247 28.0592 15.1658 28.125 15 28.125Z" fill="#CA1D6A"/>
<path d="M30 30.625H28.75C28.5842 30.625 28.4253 30.5592 28.3081 30.4419C28.1908 30.3247 28.125 30.1658 28.125 30C28.125 29.8342 28.1908 29.6753 28.3081 29.5581C28.4253 29.4408 28.5842 29.375 28.75 29.375H30C30.1658 29.375 30.3247 29.4408 30.4419 29.5581C30.5592 29.6753 30.625 29.8342 30.625 30C30.625 30.1658 30.5592 30.3247 30.4419 30.4419C30.3247 30.5592 30.1658 30.625 30 30.625Z" fill="#CA1D6A"/>
<path d="M26.25 28.125H25C24.8342 28.125 24.6753 28.0592 24.5581 27.9419C24.4408 27.8247 24.375 27.6658 24.375 27.5C24.375 27.3342 24.4408 27.1753 24.5581 27.0581C24.6753 26.9408 24.8342 26.875 25 26.875H26.25C26.4158 26.875 26.5747 26.9408 26.6919 27.0581C26.8092 27.1753 26.875 27.3342 26.875 27.5C26.875 27.6658 26.8092 27.8247 26.6919 27.9419C26.5747 28.0592 26.4158 28.125 26.25 28.125Z" fill="#CA1D6A"/>
<path d="M20.625 30.625H19.375C19.2092 30.625 19.0503 30.5592 18.9331 30.4419C18.8158 30.3247 18.75 30.1658 18.75 30C18.75 29.8342 18.8158 29.6753 18.9331 29.5581C19.0503 29.4408 19.2092 29.375 19.375 29.375H20.625C20.7908 29.375 20.9497 29.4408 21.0669 29.5581C21.1842 29.6753 21.25 29.8342 21.25 30C21.25 30.1658 21.1842 30.3247 21.0669 30.4419C20.9497 30.5592 20.7908 30.625 20.625 30.625ZM11.25 25.625H10C9.83424 25.625 9.67527 25.5592 9.55806 25.4419C9.44085 25.3247 9.375 25.1658 9.375 25C9.375 24.8342 9.44085 24.6753 9.55806 24.5581C9.67527 24.4408 9.83424 24.375 10 24.375H11.25C11.4158 24.375 11.5747 24.4408 11.6919 24.5581C11.8092 24.6753 11.875 24.8342 11.875 25C11.875 25.1658 11.8092 25.3247 11.6919 25.4419C11.5747 25.5592 11.4158 25.625 11.25 25.625ZM7.5 23.125H6.25C6.08424 23.125 5.92527 23.0592 5.80806 22.9419C5.69085 22.8247 5.625 22.6658 5.625 22.5C5.625 22.3342 5.69085 22.1753 5.80806 22.0581C5.92527 21.9408 6.08424 21.875 6.25 21.875H7.5C7.66576 21.875 7.82473 21.9408 7.94194 22.0581C8.05915 22.1753 8.125 22.3342 8.125 22.5C8.125 22.6658 8.05915 22.8247 7.94194 22.9419C7.82473 23.0592 7.66576 23.125 7.5 23.125Z" fill="#CA1D6A"/>
<path d="M30 25.625H28.75C28.5842 25.625 28.4253 25.5592 28.3081 25.4419C28.1908 25.3247 28.125 25.1658 28.125 25C28.125 24.8342 28.1908 24.6753 28.3081 24.5581C28.4253 24.4408 28.5842 24.375 28.75 24.375H30C30.1658 24.375 30.3247 24.4408 30.4419 24.5581C30.5592 24.6753 30.625 24.8342 30.625 25C30.625 25.1658 30.5592 25.3247 30.4419 25.4419C30.3247 25.5592 30.1658 25.625 30 25.625Z" fill="#CA1D6A"/>
<path d="M33.75 23.125H32.5C32.3342 23.125 32.1753 23.0592 32.0581 22.9419C31.9408 22.8247 31.875 22.6658 31.875 22.5C31.875 22.3342 31.9408 22.1753 32.0581 22.0581C32.1753 21.9408 32.3342 21.875 32.5 21.875H33.75C33.9158 21.875 34.0747 21.9408 34.1919 22.0581C34.3092 22.1753 34.375 22.3342 34.375 22.5C34.375 22.6658 34.3092 22.8247 34.1919 22.9419C34.0747 23.0592 33.9158 23.125 33.75 23.125Z" fill="#CA1D6A"/>
<path d="M30 20.625H28.75C28.5842 20.625 28.4253 20.5592 28.3081 20.4419C28.1908 20.3247 28.125 20.1658 28.125 20C28.125 19.8342 28.1908 19.6753 28.3081 19.5581C28.4253 19.4408 28.5842 19.375 28.75 19.375H30C30.1658 19.375 30.3247 19.4408 30.4419 19.5581C30.5592 19.6753 30.625 19.8342 30.625 20C30.625 20.1658 30.5592 20.3247 30.4419 20.4419C30.3247 20.5592 30.1658 20.625 30 20.625Z" fill="#CA1D6A"/>
</svg>
