<svg width="20" height="20" viewBox="0 0 20 20" fill="none" xmlns="http://www.w3.org/2000/svg">
<path d="M7.77778 0H1.11111C0.816426 0 0.533811 0.117063 0.325437 0.325437C0.117063 0.533811 0 0.816426 0 1.11111V7.77778C0 8.07246 0.117063 8.35508 0.325437 8.56345C0.533811 8.77183 0.816426 8.88889 1.11111 8.88889H7.77778C8.07246 8.88889 8.35508 8.77183 8.56345 8.56345C8.77183 8.35508 8.88889 8.07246 8.88889 7.77778V1.11111C8.88889 0.816426 8.77183 0.533811 8.56345 0.325437C8.35508 0.117063 8.07246 0 7.77778 0ZM6.66667 6.66667H2.22222V2.22222H6.66667V6.66667ZM12.2222 8.88889H18.8889C19.1836 8.88889 19.4662 8.77183 19.6746 8.56345C19.8829 8.35508 20 8.07246 20 7.77778V1.11111C20 0.816426 19.8829 0.533811 19.6746 0.325437C19.4662 0.117063 19.1836 0 18.8889 0H12.2222C11.9275 0 11.6449 0.117063 11.4365 0.325437C11.2282 0.533811 11.1111 0.816426 11.1111 1.11111V7.77778C11.1111 8.07246 11.2282 8.35508 11.4365 8.56345C11.6449 8.77183 11.9275 8.88889 12.2222 8.88889ZM13.3333 2.22222H17.7778V6.66667H13.3333V2.22222ZM0 18.8889C0 19.1836 0.117063 19.4662 0.325437 19.6746C0.533811 19.8829 0.816426 20 1.11111 20H7.77778C8.07246 20 8.35508 19.8829 8.56345 19.6746C8.77183 19.4662 8.88889 19.1836 8.88889 18.8889V12.2222C8.88889 11.9275 8.77183 11.6449 8.56345 11.4365C8.35508 11.2282 8.07246 11.1111 7.77778 11.1111H1.11111C0.816426 11.1111 0.533811 11.2282 0.325437 11.4365C0.117063 11.6449 0 11.9275 0 12.2222V18.8889ZM2.22222 13.3333H6.66667V17.7778H2.22222V13.3333ZM11.1111 18.8889C11.1111 19.1836 11.2282 19.4662 11.4365 19.6746C11.6449 19.8829 11.9275 20 12.2222 20H18.8889C19.1836 20 19.4662 19.8829 19.6746 19.6746C19.8829 19.4662 20 19.1836 20 18.8889V12.2222C20 11.9275 19.8829 11.6449 19.6746 11.4365C19.4662 11.2282 19.1836 11.1111 18.8889 11.1111H12.2222C11.9275 11.1111 11.6449 11.2282 11.4365 11.4365C11.2282 11.6449 11.1111 11.9275 11.1111 12.2222V18.8889ZM13.3333 13.3333H17.7778V17.7778H13.3333V13.3333Z" fill="url(#paint0_linear_1_1149)"/>
<defs>
<linearGradient id="paint0_linear_1_1149" x1="10" y1="0" x2="10" y2="20" gradientUnits="userSpaceOnUse">
<stop offset="0.161458" stop-color="#4A67FF"/>
<stop offset="0.510417" stop-color="#8C2CED" stop-opacity="0.937746"/>
<stop offset="0.755208" stop-color="#FA22F1" stop-opacity="0.87"/>
</linearGradient>
</defs>
</svg>
