<svg width="575" height="575" viewBox="0 0 575 575" fill="none" xmlns="http://www.w3.org/2000/svg">
<g opacity="0.79">
<path opacity="0.79" d="M430.58 430.58C509.848 351.313 509.848 222.794 430.58 143.527C351.313 64.2591 222.794 64.2591 143.527 143.527C64.2592 222.794 64.2591 351.313 143.527 430.58C222.794 509.848 351.313 509.848 430.58 430.58Z" stroke="#FFDDEC" stroke-width="0.5" stroke-miterlimit="10"/>
<path opacity="0.79" d="M420.465 420.465C494.146 346.784 494.146 227.323 420.465 153.642C346.784 79.9607 227.323 79.9607 153.642 153.642C79.9607 227.323 79.9606 346.784 153.642 420.465C227.323 494.146 346.784 494.146 420.465 420.465Z" stroke="#FFDDEC" stroke-width="0.7273" stroke-miterlimit="10"/>
<path opacity="0.79" d="M287.062 461.419C383.363 461.419 461.431 383.352 461.431 287.05C461.431 190.749 383.363 112.681 287.062 112.681C190.761 112.681 112.693 190.749 112.693 287.05C112.693 383.352 190.761 461.419 287.062 461.419Z" stroke="#FFDDEC" stroke-width="0.9545" stroke-miterlimit="10"/>
<path opacity="0.79" d="M287.062 447.137C375.475 447.137 447.148 375.464 447.148 287.051C447.148 198.638 375.475 126.965 287.062 126.965C198.649 126.965 126.976 198.638 126.976 287.051C126.976 375.464 198.649 447.137 287.062 447.137Z" stroke="#FFDDEC" stroke-width="1.1818" stroke-miterlimit="10"/>
<path opacity="0.79" d="M287.062 432.832C367.574 432.832 432.843 367.563 432.843 287.051C432.843 206.538 367.574 141.27 287.062 141.27C206.549 141.27 141.281 206.538 141.281 287.051C141.281 367.563 206.549 432.832 287.062 432.832Z" stroke="#FFDDEC" stroke-width="1.4091" stroke-miterlimit="10"/>
<path opacity="0.79" d="M287.062 418.526C359.674 418.526 418.538 359.663 418.538 287.051C418.538 214.439 359.674 155.575 287.062 155.575C214.45 155.575 155.586 214.439 155.586 287.051C155.586 359.663 214.45 418.526 287.062 418.526Z" stroke="#FFDDEC" stroke-width="1.6364" stroke-miterlimit="10"/>
<path opacity="0.79" d="M287.062 404.221C351.773 404.221 404.232 351.762 404.232 287.051C404.232 222.34 351.773 169.881 287.062 169.881C222.351 169.881 169.892 222.34 169.892 287.051C169.892 351.762 222.351 404.221 287.062 404.221Z" stroke="#FFDDEC" stroke-width="1.8636" stroke-miterlimit="10"/>
<path opacity="0.79" d="M287.062 389.916C343.873 389.916 389.927 343.862 389.927 287.051C389.927 230.24 343.873 184.186 287.062 184.186C230.251 184.186 184.197 230.24 184.197 287.051C184.197 343.862 230.251 389.916 287.062 389.916Z" stroke="#FFDDEC" stroke-width="2.0909" stroke-miterlimit="10"/>
<path opacity="0.79" d="M287.062 375.611C335.972 375.611 375.622 335.961 375.622 287.051C375.622 238.141 335.972 198.491 287.062 198.491C238.152 198.491 198.502 238.141 198.502 287.051C198.502 335.961 238.152 375.611 287.062 375.611Z" stroke="#FFDDEC" stroke-width="2.3182" stroke-miterlimit="10"/>
<path opacity="0.79" d="M287.062 361.305C328.072 361.305 361.317 328.06 361.317 287.051C361.317 246.041 328.072 212.796 287.062 212.796C246.052 212.796 212.807 246.041 212.807 287.051C212.807 328.06 246.052 361.305 287.062 361.305Z" stroke="#FFDDEC" stroke-width="2.5454" stroke-miterlimit="10"/>
<path opacity="0.79" d="M287.062 347C320.171 347 347.012 320.16 347.012 287.051C347.012 253.942 320.171 227.101 287.062 227.101C253.953 227.101 227.112 253.942 227.112 287.051C227.112 320.16 253.953 347 287.062 347Z" stroke="#FFDDEC" stroke-width="2.7727" stroke-miterlimit="10"/>
<path opacity="0.79" d="M287.062 332.695C312.271 332.695 332.706 312.26 332.706 287.051C332.706 261.842 312.271 241.406 287.062 241.406C261.853 241.406 241.417 261.842 241.417 287.051C241.417 312.26 261.853 332.695 287.062 332.695Z" stroke="#FFDDEC" stroke-width="3" stroke-miterlimit="10"/>
</g>
</svg>
