<svg width="18" height="18" viewBox="0 0 18 18" fill="none" xmlns="http://www.w3.org/2000/svg">
<path d="M12.7384 16.0575L12.4868 17.0856C11.7323 17.3834 11.1296 17.6101 10.6808 17.7659C10.2315 17.9222 9.7095 18 9.1147 18C8.20129 18 7.49082 17.7762 6.9841 17.3318C6.47739 16.8856 6.22395 16.3201 6.22395 15.6342C6.22395 15.3687 6.24234 15.0955 6.28057 14.8172C6.31913 14.5386 6.38043 14.2249 6.46432 13.8741L7.40725 10.5367C7.49114 10.2171 7.56245 9.9143 7.61956 9.62795C7.67747 9.34338 7.70538 9.08155 7.70538 8.84585C7.70538 8.41964 7.61714 8.12151 7.44146 7.9539C7.26577 7.78677 6.93054 7.70191 6.43286 7.70191C6.1891 7.70191 5.93857 7.74095 5.68319 7.81645C5.42669 7.89227 5.20745 7.96551 5.02338 8.03359L5.27553 7.00467C5.89323 6.75317 6.48368 6.5378 7.04847 6.35905C7.61327 6.17982 8.14692 6.09013 8.6517 6.09013C9.55883 6.09013 10.2588 6.30936 10.7504 6.74784C11.2419 7.18664 11.4876 7.75547 11.4876 8.45642C11.4876 8.60145 11.4715 8.85699 11.4368 9.22222C11.4029 9.58827 11.3398 9.92366 11.2479 10.2287L10.309 13.5528C10.232 13.8198 10.1628 14.125 10.1026 14.4685C10.0405 14.8097 10.0109 15.0704 10.0109 15.2452C10.0109 15.6866 10.1093 15.988 10.3066 16.1482C10.5053 16.3084 10.8476 16.3881 11.3339 16.3881C11.5621 16.3881 11.8219 16.3476 12.1105 16.268C12.3983 16.1885 12.6082 16.1186 12.7384 16.0575ZM12.9765 2.10205C12.9765 2.6812 12.7582 3.17582 12.3196 3.58251C11.882 3.99066 11.3548 4.1949 10.7381 4.1949C10.1194 4.1949 9.59093 3.99066 9.14842 3.58251C8.70672 3.17565 8.48538 2.6812 8.48538 2.10205C8.48538 1.52402 8.70672 1.0286 9.14842 0.61674C9.59012 0.205526 10.1196 0 10.7381 0C11.3547 0 11.882 0.20601 12.3196 0.61674C12.7585 1.0286 12.9765 1.52418 12.9765 2.10205Z" fill="#4A4F60"/>
</svg>
