<svg width="8" height="10" viewBox="0 0 8 10" fill="none" xmlns="http://www.w3.org/2000/svg">
<path fill-rule="evenodd" clip-rule="evenodd" d="M5.89872 4.26813C5.89872 5.28503 5.10278 6.1094 4.12095 6.1094C3.13911 6.1094 2.34317 5.28503 2.34317 4.26813C2.34317 3.25122 3.13911 2.42685 4.12095 2.42685C5.10278 2.42685 5.89872 3.25122 5.89872 4.26813ZM5.00983 4.26813C5.00983 4.77658 4.61187 5.18876 4.12095 5.18876C3.63003 5.18876 3.23206 4.77658 3.23206 4.26813C3.23206 3.75967 3.63003 3.34749 4.12095 3.34749C4.61187 3.34749 5.00983 3.75967 5.00983 4.26813Z" fill="#A5ADBB"/>
<path fill-rule="evenodd" clip-rule="evenodd" d="M1.24185 7.14333C-0.358113 5.56564 -0.420274 2.94332 1.10301 1.28621C2.6263 -0.370905 5.15819 -0.435285 6.75815 1.14241C8.35811 2.7201 8.42027 5.34243 6.89699 6.99954L4.13884 10L1.24185 7.14333ZM6.25321 6.36472L4.10799 8.69842L1.85477 6.47656C0.610356 5.24947 0.56201 3.20988 1.74679 1.92102C2.93156 0.632157 4.90081 0.582083 6.14523 1.80918C7.38964 3.03627 7.43799 5.07586 6.25321 6.36472Z" fill="#A5ADBB"/>
</svg>
