<svg width="58" height="45" viewBox="0 0 58 45" fill="none" xmlns="http://www.w3.org/2000/svg">
<path d="M27.745 33.9114V32.6941C27.7426 30.9302 27.1249 29.2235 26.0003 27.8738C24.8758 26.524 23.3164 25.6175 21.5958 25.3133C21.7864 24.9184 21.8852 24.4847 21.8847 24.0454C21.89 23.6702 21.8215 23.2977 21.683 22.9495C21.5446 22.6014 21.339 22.2845 21.0781 22.0173C20.8173 21.75 20.5065 21.5379 20.1638 21.393C19.821 21.2482 19.4532 21.1736 19.0816 21.1736C18.7101 21.1736 18.3423 21.2482 17.9995 21.393C17.6568 21.5379 17.346 21.75 17.0851 22.0173C16.8243 22.2845 16.6187 22.6014 16.4802 22.9495C16.3418 23.2977 16.2732 23.6702 16.2786 24.0454C16.2782 24.4898 16.3793 24.9283 16.5742 25.3268C14.8696 25.6463 13.3294 26.5577 12.22 27.9031C11.1107 29.2485 10.5021 30.9433 10.4997 32.6941V33.902C9.89262 34.0511 9.36048 34.4193 9.00351 34.937C8.64654 35.4548 8.48938 36.0866 8.56163 36.7133C8.63388 37.34 8.93056 37.9184 9.39578 38.3395C9.861 38.7606 10.4626 38.9954 11.0874 38.9997H27.1176C27.7388 38.9954 28.3374 38.7631 28.8016 38.3461C29.2658 37.9291 29.5641 37.356 29.6409 36.7334C29.7176 36.1108 29.5677 35.4813 29.2189 34.9621C28.8701 34.4429 28.3462 34.0694 27.745 33.9114V33.9114ZM19.0816 22.8896C19.3098 22.8812 19.5351 22.9419 19.7289 23.0639C19.9226 23.1858 20.0758 23.3634 20.1688 23.5739C20.2619 23.7844 20.2905 24.0182 20.251 24.2452C20.2116 24.4723 20.1058 24.6822 19.9474 24.8482C19.7889 25.0141 19.585 25.1284 19.3617 25.1764C19.1385 25.2245 18.9061 25.2041 18.6944 25.1178C18.4827 25.0315 18.3014 24.8833 18.1737 24.6922C18.046 24.5011 17.9778 24.2759 17.9778 24.0454C17.9728 23.7444 18.0862 23.4537 18.2932 23.2371C18.5001 23.0204 18.7836 22.8954 19.0816 22.8896V22.8896ZM12.1989 32.6941C12.2006 31.1625 12.8039 29.6941 13.8764 28.611C14.9488 27.528 16.4029 26.9188 17.9196 26.917H20.3251C21.8418 26.9188 23.2959 27.528 24.3683 28.611C25.4408 29.6941 26.0441 31.1625 26.0458 32.6941V33.8316H12.1989V32.6941ZM27.1176 37.2838H11.0874C10.8622 37.2795 10.6476 37.1862 10.4898 37.0239C10.3321 36.8615 10.2437 36.6431 10.2437 36.4157C10.2437 36.1882 10.3321 35.9698 10.4898 35.8075C10.6476 35.6451 10.8622 35.5518 11.0874 35.5476H27.1176C27.3428 35.5518 27.5573 35.6452 27.7151 35.8075C27.8729 35.9698 27.9613 36.1882 27.9613 36.4157C27.9613 36.6431 27.8729 36.8615 27.7151 37.0238C27.5573 37.1862 27.3428 37.2795 27.1176 37.2838H27.1176ZM16.6064 12.8655C16.6854 12.946 16.7794 13.0099 16.883 13.0535C16.9866 13.0972 17.0977 13.1196 17.21 13.1196C17.3222 13.1196 17.4333 13.0972 17.5369 13.0535C17.6405 13.0099 17.7345 12.946 17.8135 12.8655L23.4497 7.12024C23.6074 6.95839 23.6951 6.74004 23.6936 6.51301C23.6922 6.28599 23.6017 6.0688 23.442 5.90902C23.2823 5.74924 23.0664 5.6599 22.8415 5.66057C22.6167 5.66124 22.4013 5.75186 22.2426 5.91259L17.21 11.0426L15.88 9.68681C15.7212 9.52588 15.5058 9.43508 15.2808 9.43433C15.0559 9.43357 14.8399 9.52292 14.6801 9.68278C14.5203 9.84264 14.4298 10.06 14.4284 10.2871C14.4271 10.5142 14.5149 10.7327 14.6728 10.8945L16.6064 12.8655ZM52.0527 29.415H50.3478C50.1224 29.415 49.9063 29.5054 49.747 29.6663C49.5877 29.8272 49.4982 30.0454 49.4982 30.273C49.4982 30.5005 49.5877 30.7188 49.747 30.8797C49.9063 31.0406 50.1224 31.131 50.3478 31.131H52.0527C52.2781 31.131 52.4942 31.0406 52.6535 30.8797C52.8128 30.7188 52.9023 30.5005 52.9023 30.273C52.9023 30.0454 52.8128 29.8272 52.6535 29.6663C52.4942 29.5054 52.2781 29.415 52.0527 29.415ZM52.0527 22.5512H50.3478C50.1224 22.5512 49.9063 22.6416 49.747 22.8025C49.5877 22.9634 49.4982 23.1816 49.4982 23.4091C49.4982 23.6367 49.5877 23.8549 49.747 24.0158C49.9063 24.1767 50.1224 24.2671 50.3478 24.2671H52.0527C52.2781 24.2671 52.4942 24.1767 52.6535 24.0158C52.8128 23.8549 52.9023 23.6367 52.9023 23.4091C52.9023 23.1816 52.8128 22.9634 52.6535 22.8025C52.4942 22.6416 52.2781 22.5512 52.0527 22.5512ZM52.0527 25.9831H50.3478C50.1224 25.9831 49.9063 26.0735 49.747 26.2344C49.5877 26.3953 49.4982 26.6135 49.4982 26.8411C49.4982 27.0686 49.5877 27.2869 49.747 27.4478C49.9063 27.6087 50.1224 27.6991 50.3478 27.6991H52.0527C52.2781 27.6991 52.4942 27.6087 52.6535 27.4478C52.8128 27.2869 52.9023 27.0686 52.9023 26.8411C52.9023 26.6135 52.8128 26.3953 52.6535 26.2344C52.4942 26.0735 52.2781 25.9831 52.0527 25.9831ZM52.0527 17.4033H40.1525C39.9271 17.4033 39.711 17.4937 39.5517 17.6546C39.3924 17.8155 39.3028 18.0337 39.3028 18.2613C39.3028 18.4888 39.3924 18.707 39.5517 18.8679C39.711 19.0288 39.9271 19.1192 40.1525 19.1192H52.0527C52.2781 19.1192 52.4942 19.0288 52.6535 18.8679C52.8128 18.707 52.9023 18.4888 52.9023 18.2613C52.9023 18.0337 52.8128 17.8155 52.6535 17.6546C52.4942 17.4937 52.2781 17.4033 52.0527 17.4033ZM55.4512 12.2441H38.1633V9.54102C38.1627 9.01025 37.9537 8.5014 37.582 8.12609C37.2104 7.75078 36.7065 7.53967 36.1809 7.53906H28.0973C27.261 3.24643 23.537 0 19.0816 0C14.6263 0 10.9023 3.24643 10.066 7.53906H1.98242C1.45684 7.53967 0.952947 7.75078 0.5813 8.12609C0.209654 8.5014 0.000599643 9.01025 0 9.54102L0 13.2532C0.000823333 13.736 0.174216 14.2022 0.488284 14.5661C0.802353 14.93 1.23598 15.1671 1.7094 15.2339V40.7098C1.71066 41.8471 2.15863 42.9375 2.95502 43.7418C3.75141 44.546 4.83118 44.9984 5.95744 44.9997H32.369C33.2723 44.9975 34.1516 44.7059 34.8803 44.1668C35.1185 44.4289 35.4081 44.6381 35.7306 44.7812C36.0531 44.9243 36.4015 44.9982 36.7538 44.9981L51.6396 44.9994C51.6433 44.9995 51.6468 45 51.6506 45C51.7635 45.0001 51.8752 44.9774 51.9793 44.9332C52.0834 44.8891 52.1777 44.8243 52.2566 44.7428L57.7511 39.1948C57.753 39.1929 57.7545 39.1909 57.7563 39.1891C57.7739 39.171 57.7909 39.1523 57.8068 39.1327C57.8117 39.1268 57.8158 39.1204 57.8204 39.1143C57.8329 39.0982 57.8452 39.0821 57.8565 39.0651C57.8598 39.0601 57.8626 39.0548 57.8658 39.0497C57.8776 39.0311 57.8891 39.0124 57.8994 38.9929C57.9012 38.9895 57.9026 38.9859 57.9044 38.9825C57.9154 38.9611 57.9259 38.9393 57.9351 38.9169C57.936 38.9147 57.9367 38.9123 57.9376 38.9101C57.947 38.8865 57.9557 38.8626 57.9631 38.838C57.9639 38.8355 57.9643 38.8329 57.9651 38.8304C57.9721 38.8063 57.9784 38.7818 57.9834 38.7569C57.9846 38.7505 57.9851 38.744 57.9863 38.7376C57.99 38.7165 57.9936 38.6953 57.9957 38.6736C57.9985 38.6453 58 38.6168 58 38.5881V14.8181C57.9992 14.1356 57.7305 13.4814 57.2526 12.9989C56.7748 12.5163 56.1269 12.2449 55.4512 12.2441ZM19.0816 1.71596C23.2134 1.71596 26.5748 5.14744 26.5748 9.36518C26.5748 13.5829 23.2134 17.0144 19.0816 17.0144C14.9499 17.0144 11.5885 13.5829 11.5885 9.36518C11.5885 5.14744 14.9499 1.71596 19.0816 1.71596ZM1.98242 13.5392C1.90734 13.5392 1.83535 13.509 1.78225 13.4554C1.72916 13.4018 1.6993 13.3291 1.69922 13.2532V9.54102C1.6993 9.46519 1.72916 9.3925 1.78225 9.33888C1.83535 9.28526 1.90734 9.25511 1.98242 9.25503H9.89201C9.89159 9.29186 9.88927 9.32823 9.88927 9.36518C9.88795 10.8133 10.2189 12.242 10.8563 13.5392H1.98242ZM32.369 43.2837H5.95744C5.28169 43.2829 4.63383 43.0115 4.15599 42.529C3.67816 42.0464 3.40938 41.3922 3.40861 40.7098V15.2552H11.9418C12.7967 16.3392 13.8826 17.2146 15.1187 17.8162C16.3549 18.4179 17.7094 18.7304 19.0816 18.7304C20.4539 18.7304 21.8084 18.4179 23.0446 17.8162C24.2807 17.2146 25.3666 16.3392 26.2214 15.2552H34.2052V42.4242C34.2052 42.4474 34.2063 42.4704 34.2069 42.4935C33.9699 42.7445 33.6846 42.944 33.3686 43.0799C33.0526 43.2158 32.7125 43.2851 32.369 43.2837ZM34.5434 13.5392H27.307C27.9443 12.242 28.2753 10.8133 28.274 9.36518C28.274 9.32823 28.2717 9.29186 28.2713 9.25503H36.1809C36.256 9.25511 36.328 9.28526 36.3811 9.33888C36.4342 9.3925 36.464 9.46519 36.4641 9.54102V12.2612C36.0673 12.3076 35.6867 12.4474 35.3532 12.6694C35.0196 12.8914 34.7422 13.1893 34.5434 13.5392ZM52.5002 42.0703V39.446H55.0991L52.5002 42.0703ZM56.3008 37.7301H51.6506C51.539 37.7301 51.4285 37.7522 51.3254 37.7954C51.2223 37.8385 51.1287 37.9017 51.0498 37.9813C50.9709 38.061 50.9083 38.1556 50.8656 38.2597C50.8229 38.3638 50.8009 38.4754 50.8009 38.588V43.2834L36.754 43.2821C36.5287 43.2818 36.3128 43.1913 36.1535 43.0305C35.9943 42.8697 35.9047 42.6516 35.9044 42.4242V14.8181C35.9046 14.5906 35.9942 14.3725 36.1535 14.2116C36.3128 14.0508 36.5288 13.9603 36.754 13.9601H37.3115L37.3137 13.9602L37.3159 13.9601H55.4512C55.6764 13.9603 55.8924 14.0508 56.0517 14.2116C56.2109 14.3725 56.3005 14.5906 56.3008 14.8181V37.7301ZM46.9551 22.5512H40.1525C39.9271 22.5512 39.711 22.6416 39.5517 22.8025C39.3924 22.9634 39.3028 23.1816 39.3028 23.4091C39.3028 23.6367 39.3924 23.8549 39.5517 24.0158C39.711 24.1767 39.9271 24.2671 40.1525 24.2671H46.9551C47.1804 24.2671 47.3965 24.1767 47.5558 24.0158C47.7152 23.8549 47.8047 23.6367 47.8047 23.4091C47.8047 23.1816 47.7152 22.9634 47.5558 22.8025C47.3965 22.6416 47.1804 22.5512 46.9551 22.5512ZM46.9551 25.9831H40.1525C39.9271 25.9831 39.711 26.0735 39.5517 26.2344C39.3924 26.3953 39.3028 26.6135 39.3028 26.8411C39.3028 27.0686 39.3924 27.2869 39.5517 27.4478C39.711 27.6087 39.9271 27.6991 40.1525 27.6991H46.9551C47.1804 27.6991 47.3965 27.6087 47.5558 27.4478C47.7152 27.2869 47.8047 27.0686 47.8047 26.8411C47.8047 26.6135 47.7152 26.3953 47.5558 26.2344C47.3965 26.0735 47.1804 25.9831 46.9551 25.9831ZM46.9551 29.415H40.1525C39.9271 29.415 39.711 29.5054 39.5517 29.6663C39.3924 29.8272 39.3028 30.0454 39.3028 30.273C39.3028 30.5005 39.3924 30.7188 39.5517 30.8797C39.711 31.0406 39.9271 31.131 40.1525 31.131H46.9551C47.1804 31.131 47.3965 31.0406 47.5558 30.8797C47.7152 30.7188 47.8047 30.5005 47.8047 30.273C47.8047 30.0454 47.7152 29.8272 47.5558 29.6663C47.3965 29.5054 47.1804 29.415 46.9551 29.415ZM52.0527 32.8469H50.3478C50.1224 32.8469 49.9063 32.9373 49.747 33.0982C49.5877 33.2591 49.4982 33.4774 49.4982 33.7049C49.4982 33.9325 49.5877 34.1507 49.747 34.3116C49.9063 34.4725 50.1224 34.5629 50.3478 34.5629H52.0527C52.2781 34.5629 52.4942 34.4725 52.6535 34.3116C52.8128 34.1507 52.9023 33.9325 52.9023 33.7049C52.9023 33.4774 52.8128 33.2591 52.6535 33.0982C52.4942 32.9373 52.2781 32.8469 52.0527 32.8469ZM46.9551 32.8469H40.1525C39.9271 32.8469 39.711 32.9373 39.5517 33.0982C39.3924 33.2591 39.3028 33.4774 39.3028 33.7049C39.3028 33.9325 39.3924 34.1507 39.5517 34.3116C39.711 34.4725 39.9271 34.5629 40.1525 34.5629H46.9551C47.1804 34.5629 47.3965 34.4725 47.5558 34.3116C47.7152 34.1507 47.8047 33.9325 47.8047 33.7049C47.8047 33.4774 47.7152 33.2591 47.5558 33.0982C47.3965 32.9373 47.1804 32.8469 46.9551 32.8469Z" fill="url(#paint0_linear_1_1197)"/>
<defs>
<linearGradient id="paint0_linear_1_1197" x1="29" y1="0" x2="29" y2="45" gradientUnits="userSpaceOnUse">
<stop offset="0.161458" stop-color="#4A67FF"/>
<stop offset="0.510417" stop-color="#8C2CED" stop-opacity="0.937746"/>
<stop offset="0.755208" stop-color="#FA22F1" stop-opacity="0.87"/>
</linearGradient>
</defs>
</svg>
