<svg width="45" height="45" viewBox="0 0 45 45" fill="none" xmlns="http://www.w3.org/2000/svg">
<path d="M44.8636 30.9545L39.3409 18.8182V8.11364C39.3409 7.70455 39.0682 7.43182 38.6591 7.43182H36.4773V0.681818C36.4773 0.272727 36.2045 0 35.7955 0H26.7273C26.3182 0 26.0455 0.272727 26.0455 0.681818V7.43182H6.34091C5.93182 7.43182 5.65909 7.70455 5.65909 8.11364V18.75L0.0681818 31.0909C-0.0681818 31.3636 -2.03198e-08 31.7045 0.272727 31.9091V44.3182C0.272727 44.7273 0.545455 45 0.954545 45H44.3182C44.7273 45 45 44.7273 45 44.3182V31.4318C45 31.2955 45 31.1591 44.8636 30.9545ZM35.1818 1.36364V12.6818H27.4091V8.04545V1.36364H35.1818ZM26.0455 8.79545V13.4318C26.0455 13.8409 26.3182 14.1136 26.7273 14.1136H35.8636C36.2727 14.1136 36.5455 13.8409 36.5455 13.4318V8.79545H38.0455V18.2727H7.02273V8.79545H26.0455ZM6.75 19.6364H38.25L43.2273 30.6818H1.70455L6.75 19.6364ZM43.6364 43.6364H1.63636V32.0455H43.6364V43.6364Z" fill="url(#paint0_linear_1_1199)"/>
<path d="M9.75006 16.2954H22.3637C22.7728 16.2954 23.0455 16.0227 23.0455 15.6136V11.1136C23.0455 10.7045 22.7728 10.4318 22.3637 10.4318H9.75006C9.34096 10.4318 9.06824 10.7045 9.06824 11.1136V15.6136C9.06824 16.0227 9.40915 16.2954 9.75006 16.2954ZM10.4319 11.7954H21.6819V14.9318H10.4319V11.7954ZM26.7273 16.2954H35.8637C36.2728 16.2954 36.5455 16.0227 36.5455 15.6136C36.5455 15.2045 36.2728 14.9318 35.8637 14.9318H26.7273C26.3182 14.9318 26.0455 15.2045 26.0455 15.6136C26.0455 16.0227 26.3182 16.2954 26.7273 16.2954ZM28.7046 11.0454H30.2046C30.6137 11.0454 30.8864 10.7727 30.8864 10.3636C30.8864 9.95454 30.6137 9.68181 30.2046 9.68181H28.7046C28.2955 9.68181 28.0228 9.95454 28.0228 10.3636C28.0228 10.7727 28.2955 11.0454 28.7046 11.0454ZM32.3864 11.0454H33.8864C34.2955 11.0454 34.5682 10.7727 34.5682 10.3636C34.5682 9.95454 34.2955 9.68181 33.8864 9.68181H32.3864C31.9773 9.68181 31.7046 9.95454 31.7046 10.3636C31.7046 10.7727 32.0455 11.0454 32.3864 11.0454ZM28.7046 7.70454H30.2046C30.6137 7.70454 30.8864 7.43181 30.8864 7.02272C30.8864 6.61363 30.6137 6.3409 30.2046 6.3409H28.7046C28.2955 6.3409 28.0228 6.61363 28.0228 7.02272C28.0228 7.43181 28.2955 7.70454 28.7046 7.70454ZM32.3864 7.70454H33.8864C34.2955 7.70454 34.5682 7.43181 34.5682 7.02272C34.5682 6.61363 34.2955 6.3409 33.8864 6.3409H32.3864C31.9773 6.3409 31.7046 6.61363 31.7046 7.02272C31.7046 7.43181 32.0455 7.70454 32.3864 7.70454ZM28.7046 4.43181H30.2046C30.6137 4.43181 30.8864 4.15909 30.8864 3.74999C30.8864 3.3409 30.6137 3.06818 30.2046 3.06818H28.7046C28.2955 3.06818 28.0228 3.3409 28.0228 3.74999C28.0228 4.15909 28.2955 4.43181 28.7046 4.43181ZM32.3864 4.43181H33.8864C34.2955 4.43181 34.5682 4.15909 34.5682 3.74999C34.5682 3.3409 34.2955 3.06818 33.8864 3.06818H32.3864C31.9773 3.06818 31.7046 3.3409 31.7046 3.74999C31.7046 4.15909 32.0455 4.43181 32.3864 4.43181ZM9.75006 23.7273H35.1819C35.591 23.7273 35.8637 23.4545 35.8637 23.0454C35.8637 22.6364 35.591 22.3636 35.1819 22.3636H9.75006C9.34096 22.3636 9.06824 22.6364 9.06824 23.0454C9.06824 23.4545 9.40915 23.7273 9.75006 23.7273ZM35.1819 26.4545H9.75006C9.34096 26.4545 9.06824 26.7273 9.06824 27.1364C9.06824 27.5454 9.34096 27.8182 9.75006 27.8182H35.1819C35.591 27.8182 35.8637 27.5454 35.8637 27.1364C35.8637 26.7273 35.591 26.4545 35.1819 26.4545ZM12.6819 40.7727H32.591C33.0001 40.7727 33.2728 40.5 33.2728 40.0909V35.7273C33.2728 35.3182 33.0001 35.0455 32.591 35.0455H12.6819C12.2728 35.0455 12.0001 35.3182 12.0001 35.7273V40.0909C12.0001 40.5 12.341 40.7727 12.6819 40.7727ZM13.3637 36.4773H31.9091V39.4773H13.3637V36.4773Z" fill="url(#paint1_linear_1_1199)"/>
<defs>
<linearGradient id="paint0_linear_1_1199" x1="22.5" y1="0" x2="22.5" y2="45" gradientUnits="userSpaceOnUse">
<stop offset="0.161458" stop-color="#4A67FF"/>
<stop offset="0.510417" stop-color="#8C2CED" stop-opacity="0.937746"/>
<stop offset="0.755208" stop-color="#FA22F1" stop-opacity="0.87"/>
</linearGradient>
<linearGradient id="paint1_linear_1_1199" x1="22.8069" y1="3.06818" x2="22.8069" y2="40.7727" gradientUnits="userSpaceOnUse">
<stop offset="0.161458" stop-color="#4A67FF"/>
<stop offset="0.510417" stop-color="#8C2CED" stop-opacity="0.937746"/>
<stop offset="0.755208" stop-color="#FA22F1" stop-opacity="0.87"/>
</linearGradient>
</defs>
</svg>
