<svg width="19" height="27" viewBox="0 0 19 27" fill="none" xmlns="http://www.w3.org/2000/svg">
<path fill-rule="evenodd" clip-rule="evenodd" d="M9.33333 0C4.17333 0 0 4.17333 0 9.33333C0 16.3333 9.33333 26.6667 9.33333 26.6667C9.33333 26.6667 18.6667 16.3333 18.6667 9.33333C18.6667 4.17333 14.4933 0 9.33333 0ZM2.66667 9.33333C2.66667 5.65333 5.65333 2.66667 9.33333 2.66667C13.0133 2.66667 16 5.65333 16 9.33333C16 13.1733 12.16 18.92 9.33333 22.5067C6.56 18.9467 2.66667 13.1333 2.66667 9.33333ZM6 9.33333C6 7.49238 7.49238 6 9.33333 6C10.5242 6 11.6246 6.63533 12.2201 7.66667C12.8155 8.698 12.8155 9.96866 12.2201 11C11.6246 12.0313 10.5242 12.6667 9.33333 12.6667C7.49238 12.6667 6 11.1743 6 9.33333Z" fill="#4856D8"/>
</svg>
