<svg width="92" height="28" viewBox="0 0 92 28" fill="none" xmlns="http://www.w3.org/2000/svg">
<path d="M0 4C0 1.79086 1.79086 0 4 0H79C81.2091 0 83 1.79086 83 4V24C83 26.2091 81.2091 28 79 28H4C1.79086 28 0 26.2091 0 24V4Z" fill="#37C8AB"/>
<path d="M83 9.00004L91.0132 14.0131L83 18.9369V9.00004Z" fill="#37C8AB"/>
<path d="M10.3039 17.52C11.3279 16.6347 12.1333 15.9093 12.7199 15.344C13.3173 14.768 13.8133 14.1707 14.2079 13.552C14.6026 12.9333 14.7999 12.3147 14.7999 11.696C14.7999 11.056 14.6453 10.5547 14.3359 10.192C14.0373 9.82933 13.5626 9.648 12.9119 9.648C12.2826 9.648 11.7919 9.85067 11.4399 10.256C11.0986 10.6507 10.9173 11.184 10.8959 11.856H9.13594C9.16794 10.64 9.5306 9.712 10.2239 9.072C10.9279 8.42133 11.8186 8.096 12.8959 8.096C14.0586 8.096 14.9653 8.416 15.6159 9.056C16.2773 9.696 16.6079 10.5493 16.6079 11.616C16.6079 12.384 16.4106 13.1253 16.0159 13.84C15.6319 14.544 15.1679 15.1787 14.6239 15.744C14.0906 16.2987 13.4079 16.944 12.5759 17.68L11.8559 18.32H16.9279V19.84H9.15194V18.512L10.3039 17.52ZM26.0503 9.904H20.6903V13.088C20.9143 12.7893 21.245 12.5387 21.6823 12.336C22.1303 12.1333 22.605 12.032 23.1063 12.032C24.0023 12.032 24.7276 12.224 25.2823 12.608C25.8476 12.992 26.2476 13.4773 26.4823 14.064C26.7276 14.6507 26.8503 15.2693 26.8503 15.92C26.8503 16.7093 26.6956 17.4133 26.3863 18.032C26.0876 18.64 25.6343 19.12 25.0263 19.472C24.429 19.824 23.693 20 22.8183 20C21.6556 20 20.7223 19.712 20.0183 19.136C19.3143 18.56 18.893 17.7973 18.7543 16.848H20.5303C20.6476 17.3493 20.909 17.7493 21.3143 18.048C21.7196 18.336 22.2263 18.48 22.8343 18.48C23.5916 18.48 24.157 18.2507 24.5303 17.792C24.9143 17.3333 25.1063 16.7253 25.1063 15.968C25.1063 15.2 24.9143 14.6133 24.5303 14.208C24.1463 13.792 23.581 13.584 22.8343 13.584C22.3116 13.584 21.869 13.7173 21.5063 13.984C21.1543 14.24 20.8983 14.592 20.7383 15.04H19.0103V8.304H26.0503V9.904ZM28.4611 11.152C28.4611 10.3733 28.6851 9.76533 29.1331 9.328C29.5917 8.88 30.1784 8.656 30.8931 8.656C31.6077 8.656 32.1891 8.88 32.6371 9.328C33.0957 9.76533 33.3251 10.3733 33.3251 11.152C33.3251 11.9307 33.0957 12.544 32.6371 12.992C32.1891 13.44 31.6077 13.664 30.8931 13.664C30.1784 13.664 29.5917 13.44 29.1331 12.992C28.6851 12.544 28.4611 11.9307 28.4611 11.152ZM38.2211 8.864L31.8371 20H30.0451L36.4291 8.864H38.2211ZM30.8931 9.76C30.2211 9.76 29.8851 10.224 29.8851 11.152C29.8851 12.0907 30.2211 12.56 30.8931 12.56C31.2131 12.56 31.4584 12.448 31.6291 12.224C31.8104 11.9893 31.9011 11.632 31.9011 11.152C31.9011 10.224 31.5651 9.76 30.8931 9.76ZM34.9731 17.696C34.9731 16.9173 35.1971 16.3093 35.6451 15.872C36.1037 15.424 36.6904 15.2 37.4051 15.2C38.1091 15.2 38.6851 15.424 39.1331 15.872C39.5917 16.3093 39.8211 16.9173 39.8211 17.696C39.8211 18.4747 39.5917 19.088 39.1331 19.536C38.6851 19.984 38.1091 20.208 37.4051 20.208C36.6904 20.208 36.1037 19.984 35.6451 19.536C35.1971 19.088 34.9731 18.4747 34.9731 17.696ZM37.3891 16.304C36.7171 16.304 36.3811 16.768 36.3811 17.696C36.3811 18.624 36.7171 19.088 37.3891 19.088C38.0611 19.088 38.3971 18.624 38.3971 17.696C38.3971 16.768 38.0611 16.304 37.3891 16.304ZM50.9204 20.112C49.8858 20.112 48.9311 19.872 48.0564 19.392C47.1924 18.9013 46.5044 18.224 45.9924 17.36C45.4911 16.4853 45.2404 15.504 45.2404 14.416C45.2404 13.328 45.4911 12.352 45.9924 11.488C46.5044 10.624 47.1924 9.952 48.0564 9.472C48.9311 8.98133 49.8858 8.736 50.9204 8.736C51.9658 8.736 52.9204 8.98133 53.7844 9.472C54.6591 9.952 55.3471 10.624 55.8484 11.488C56.3498 12.352 56.6004 13.328 56.6004 14.416C56.6004 15.504 56.3498 16.4853 55.8484 17.36C55.3471 18.224 54.6591 18.9013 53.7844 19.392C52.9204 19.872 51.9658 20.112 50.9204 20.112ZM50.9204 18.528C51.6564 18.528 52.3124 18.3627 52.8884 18.032C53.4644 17.6907 53.9124 17.2107 54.2324 16.592C54.5631 15.9627 54.7284 15.2373 54.7284 14.416C54.7284 13.5947 54.5631 12.8747 54.2324 12.256C53.9124 11.6373 53.4644 11.1627 52.8884 10.832C52.3124 10.5013 51.6564 10.336 50.9204 10.336C50.1844 10.336 49.5284 10.5013 48.9524 10.832C48.3764 11.1627 47.9231 11.6373 47.5924 12.256C47.2724 12.8747 47.1124 13.5947 47.1124 14.416C47.1124 15.2373 47.2724 15.9627 47.5924 16.592C47.9231 17.2107 48.3764 17.6907 48.9524 18.032C49.5284 18.3627 50.1844 18.528 50.9204 18.528ZM64.9393 8.88V10.368H60.2193V13.648H63.8993V15.136H60.2193V20H58.3953V8.88H64.9393ZM73.1737 8.88V10.368H68.4537V13.648H72.1337V15.136H68.4537V20H66.6297V8.88H73.1737Z" fill="#FAD5D5"/>
</svg>
