<svg width="92" height="28" viewBox="0 0 92 28" fill="none" xmlns="http://www.w3.org/2000/svg">
<path d="M0 4C0 1.79086 1.79086 0 4 0H79C81.2091 0 83 1.79086 83 4V24C83 26.2091 81.2091 28 79 28H4C1.79086 28 0 26.2091 0 24V4Z" fill="#37C8AB"/>
<path d="M83 9.00004L91.0132 14.0131L83 18.9369V9.00004Z" fill="#37C8AB"/>
<path d="M10.8606 10V8.336H14.1886V20H12.3486V10H10.8606ZM16.6944 14.016C16.6944 12.1707 17.0037 10.7307 17.6224 9.696C18.2517 8.65067 19.329 8.128 20.8544 8.128C22.3797 8.128 23.4517 8.65067 24.0704 9.696C24.6997 10.7307 25.0144 12.1707 25.0144 14.016C25.0144 15.8827 24.6997 17.344 24.0704 18.4C23.4517 19.4453 22.3797 19.968 20.8544 19.968C19.329 19.968 18.2517 19.4453 17.6224 18.4C17.0037 17.344 16.6944 15.8827 16.6944 14.016ZM23.2224 14.016C23.2224 13.152 23.1637 12.4213 23.0464 11.824C22.9397 11.2267 22.7157 10.7413 22.3744 10.368C22.033 9.984 21.5264 9.792 20.8544 9.792C20.1824 9.792 19.6757 9.984 19.3344 10.368C18.993 10.7413 18.7637 11.2267 18.6464 11.824C18.5397 12.4213 18.4864 13.152 18.4864 14.016C18.4864 14.912 18.5397 15.664 18.6464 16.272C18.753 16.88 18.977 17.3707 19.3184 17.744C19.6704 18.1173 20.1824 18.304 20.8544 18.304C21.5264 18.304 22.033 18.1173 22.3744 17.744C22.7264 17.3707 22.9557 16.88 23.0624 16.272C23.169 15.664 23.2224 14.912 23.2224 14.016ZM26.6564 11.152C26.6564 10.3733 26.8804 9.76533 27.3284 9.328C27.787 8.88 28.3737 8.656 29.0884 8.656C29.803 8.656 30.3844 8.88 30.8324 9.328C31.291 9.76533 31.5204 10.3733 31.5204 11.152C31.5204 11.9307 31.291 12.544 30.8324 12.992C30.3844 13.44 29.803 13.664 29.0884 13.664C28.3737 13.664 27.787 13.44 27.3284 12.992C26.8804 12.544 26.6564 11.9307 26.6564 11.152ZM36.4164 8.864L30.0324 20H28.2404L34.6244 8.864H36.4164ZM29.0884 9.76C28.4164 9.76 28.0804 10.224 28.0804 11.152C28.0804 12.0907 28.4164 12.56 29.0884 12.56C29.4084 12.56 29.6537 12.448 29.8244 12.224C30.0057 11.9893 30.0964 11.632 30.0964 11.152C30.0964 10.224 29.7604 9.76 29.0884 9.76ZM33.1684 17.696C33.1684 16.9173 33.3924 16.3093 33.8404 15.872C34.299 15.424 34.8857 15.2 35.6004 15.2C36.3044 15.2 36.8804 15.424 37.3284 15.872C37.787 16.3093 38.0164 16.9173 38.0164 17.696C38.0164 18.4747 37.787 19.088 37.3284 19.536C36.8804 19.984 36.3044 20.208 35.6004 20.208C34.8857 20.208 34.299 19.984 33.8404 19.536C33.3924 19.088 33.1684 18.4747 33.1684 17.696ZM35.5844 16.304C34.9124 16.304 34.5764 16.768 34.5764 17.696C34.5764 18.624 34.9124 19.088 35.5844 19.088C36.2564 19.088 36.5924 18.624 36.5924 17.696C36.5924 16.768 36.2564 16.304 35.5844 16.304ZM49.1158 20.112C48.0811 20.112 47.1264 19.872 46.2518 19.392C45.3878 18.9013 44.6998 18.224 44.1878 17.36C43.6864 16.4853 43.4358 15.504 43.4358 14.416C43.4358 13.328 43.6864 12.352 44.1878 11.488C44.6998 10.624 45.3878 9.952 46.2518 9.472C47.1264 8.98133 48.0811 8.736 49.1158 8.736C50.1611 8.736 51.1158 8.98133 51.9798 9.472C52.8544 9.952 53.5424 10.624 54.0438 11.488C54.5451 12.352 54.7958 13.328 54.7958 14.416C54.7958 15.504 54.5451 16.4853 54.0438 17.36C53.5424 18.224 52.8544 18.9013 51.9798 19.392C51.1158 19.872 50.1611 20.112 49.1158 20.112ZM49.1158 18.528C49.8518 18.528 50.5078 18.3627 51.0838 18.032C51.6598 17.6907 52.1078 17.2107 52.4278 16.592C52.7584 15.9627 52.9238 15.2373 52.9238 14.416C52.9238 13.5947 52.7584 12.8747 52.4278 12.256C52.1078 11.6373 51.6598 11.1627 51.0838 10.832C50.5078 10.5013 49.8518 10.336 49.1158 10.336C48.3798 10.336 47.7238 10.5013 47.1478 10.832C46.5718 11.1627 46.1184 11.6373 45.7878 12.256C45.4678 12.8747 45.3078 13.5947 45.3078 14.416C45.3078 15.2373 45.4678 15.9627 45.7878 16.592C46.1184 17.2107 46.5718 17.6907 47.1478 18.032C47.7238 18.3627 48.3798 18.528 49.1158 18.528ZM63.1346 8.88V10.368H58.4146V13.648H62.0946V15.136H58.4146V20H56.5906V8.88H63.1346ZM71.369 8.88V10.368H66.649V13.648H70.329V15.136H66.649V20H64.825V8.88H71.369Z" fill="#FAD5D5"/>
</svg>
