<svg width="92" height="28" viewBox="0 0 92 28" fill="none" xmlns="http://www.w3.org/2000/svg">
<path d="M0 4C0 1.79086 1.79086 0 4 0H79C81.2091 0 83 1.79086 83 4V24C83 26.2091 81.2091 28 79 28H4C1.79086 28 0 26.2091 0 24V4Z" fill="#37C8AB"/>
<path d="M83 9.00004L91.0132 14.0131L83 18.9369V9.00004Z" fill="#37C8AB"/>
<path d="M16.8081 9.904H11.4481V13.088C11.6721 12.7893 12.0028 12.5387 12.4401 12.336C12.8881 12.1333 13.3628 12.032 13.8641 12.032C14.7601 12.032 15.4855 12.224 16.0401 12.608C16.6055 12.992 17.0055 13.4773 17.2401 14.064C17.4855 14.6507 17.6081 15.2693 17.6081 15.92C17.6081 16.7093 17.4535 17.4133 17.1441 18.032C16.8455 18.64 16.3921 19.12 15.7841 19.472C15.1868 19.824 14.4508 20 13.5761 20C12.4135 20 11.4801 19.712 10.7761 19.136C10.0721 18.56 9.65079 17.7973 9.51213 16.848H11.2881C11.4055 17.3493 11.6668 17.7493 12.0721 18.048C12.4775 18.336 12.9841 18.48 13.5921 18.48C14.3495 18.48 14.9148 18.2507 15.2881 17.792C15.6721 17.3333 15.8641 16.7253 15.8641 15.968C15.8641 15.2 15.6721 14.6133 15.2881 14.208C14.9041 13.792 14.3388 13.584 13.5921 13.584C13.0695 13.584 12.6268 13.7173 12.2641 13.984C11.9121 14.24 11.6561 14.592 11.4961 15.04H9.76813V8.304H16.8081V9.904ZM19.5069 14.016C19.5069 12.1707 19.8162 10.7307 20.4349 9.696C21.0642 8.65067 22.1415 8.128 23.6669 8.128C25.1922 8.128 26.2642 8.65067 26.8829 9.696C27.5122 10.7307 27.8269 12.1707 27.8269 14.016C27.8269 15.8827 27.5122 17.344 26.8829 18.4C26.2642 19.4453 25.1922 19.968 23.6669 19.968C22.1415 19.968 21.0642 19.4453 20.4349 18.4C19.8162 17.344 19.5069 15.8827 19.5069 14.016ZM26.0349 14.016C26.0349 13.152 25.9762 12.4213 25.8589 11.824C25.7522 11.2267 25.5282 10.7413 25.1869 10.368C24.8455 9.984 24.3389 9.792 23.6669 9.792C22.9949 9.792 22.4882 9.984 22.1469 10.368C21.8055 10.7413 21.5762 11.2267 21.4589 11.824C21.3522 12.4213 21.2989 13.152 21.2989 14.016C21.2989 14.912 21.3522 15.664 21.4589 16.272C21.5655 16.88 21.7895 17.3707 22.1309 17.744C22.4829 18.1173 22.9949 18.304 23.6669 18.304C24.3389 18.304 24.8455 18.1173 25.1869 17.744C25.5389 17.3707 25.7682 16.88 25.8749 16.272C25.9815 15.664 26.0349 14.912 26.0349 14.016ZM29.4689 11.152C29.4689 10.3733 29.6929 9.76533 30.1409 9.328C30.5995 8.88 31.1862 8.656 31.9009 8.656C32.6155 8.656 33.1969 8.88 33.6449 9.328C34.1035 9.76533 34.3329 10.3733 34.3329 11.152C34.3329 11.9307 34.1035 12.544 33.6449 12.992C33.1969 13.44 32.6155 13.664 31.9009 13.664C31.1862 13.664 30.5995 13.44 30.1409 12.992C29.6929 12.544 29.4689 11.9307 29.4689 11.152ZM39.2289 8.864L32.8449 20H31.0529L37.4369 8.864H39.2289ZM31.9009 9.76C31.2289 9.76 30.8929 10.224 30.8929 11.152C30.8929 12.0907 31.2289 12.56 31.9009 12.56C32.2209 12.56 32.4662 12.448 32.6369 12.224C32.8182 11.9893 32.9089 11.632 32.9089 11.152C32.9089 10.224 32.5729 9.76 31.9009 9.76ZM35.9809 17.696C35.9809 16.9173 36.2049 16.3093 36.6529 15.872C37.1115 15.424 37.6982 15.2 38.4129 15.2C39.1169 15.2 39.6929 15.424 40.1409 15.872C40.5995 16.3093 40.8289 16.9173 40.8289 17.696C40.8289 18.4747 40.5995 19.088 40.1409 19.536C39.6929 19.984 39.1169 20.208 38.4129 20.208C37.6982 20.208 37.1115 19.984 36.6529 19.536C36.2049 19.088 35.9809 18.4747 35.9809 17.696ZM38.3969 16.304C37.7249 16.304 37.3889 16.768 37.3889 17.696C37.3889 18.624 37.7249 19.088 38.3969 19.088C39.0689 19.088 39.4049 18.624 39.4049 17.696C39.4049 16.768 39.0689 16.304 38.3969 16.304ZM51.9283 20.112C50.8936 20.112 49.9389 19.872 49.0643 19.392C48.2003 18.9013 47.5123 18.224 47.0003 17.36C46.4989 16.4853 46.2483 15.504 46.2483 14.416C46.2483 13.328 46.4989 12.352 47.0003 11.488C47.5123 10.624 48.2003 9.952 49.0643 9.472C49.9389 8.98133 50.8936 8.736 51.9283 8.736C52.9736 8.736 53.9283 8.98133 54.7923 9.472C55.6669 9.952 56.3549 10.624 56.8563 11.488C57.3576 12.352 57.6083 13.328 57.6083 14.416C57.6083 15.504 57.3576 16.4853 56.8563 17.36C56.3549 18.224 55.6669 18.9013 54.7923 19.392C53.9283 19.872 52.9736 20.112 51.9283 20.112ZM51.9283 18.528C52.6643 18.528 53.3203 18.3627 53.8963 18.032C54.4723 17.6907 54.9203 17.2107 55.2403 16.592C55.5709 15.9627 55.7363 15.2373 55.7363 14.416C55.7363 13.5947 55.5709 12.8747 55.2403 12.256C54.9203 11.6373 54.4723 11.1627 53.8963 10.832C53.3203 10.5013 52.6643 10.336 51.9283 10.336C51.1923 10.336 50.5363 10.5013 49.9603 10.832C49.3843 11.1627 48.9309 11.6373 48.6003 12.256C48.2803 12.8747 48.1203 13.5947 48.1203 14.416C48.1203 15.2373 48.2803 15.9627 48.6003 16.592C48.9309 17.2107 49.3843 17.6907 49.9603 18.032C50.5363 18.3627 51.1923 18.528 51.9283 18.528ZM65.9471 8.88V10.368H61.2271V13.648H64.9071V15.136H61.2271V20H59.4031V8.88H65.9471ZM74.1815 8.88V10.368H69.4615V13.648H73.1415V15.136H69.4615V20H67.6375V8.88H74.1815Z" fill="#FAD5D5"/>
</svg>
