<svg width="98" height="15" viewBox="0 0 98 15" fill="none" xmlns="http://www.w3.org/2000/svg">
<path d="M7.67647 0L10.2858 4.44887L15.3529 5.53851L11.8985 9.3777L12.4208 14.5L7.67647 12.4239L2.93215 14.5L3.45441 9.3777L0 5.53851L5.06709 4.44887L7.67647 0Z" fill="#FFCB45"/>
<path d="M28.147 0L30.7564 4.44887L35.8235 5.53851L32.3691 9.3777L32.8914 14.5L28.147 12.4239L23.4027 14.5L23.925 9.3777L20.4706 5.53851L25.5377 4.44887L28.147 0Z" fill="#FFCB45"/>
<path d="M48.6176 0L51.227 4.44887L56.2941 5.53851L52.8397 9.3777L53.3619 14.5L48.6176 12.4239L43.8733 14.5L44.3956 9.3777L40.9412 5.53851L46.0083 4.44887L48.6176 0Z" fill="#FFCB45"/>
<path d="M69.0882 0L71.6976 4.44887L76.7647 5.53851L73.3103 9.3777L73.8325 14.5L69.0882 12.4239L64.3439 14.5L64.8662 9.3777L61.4117 5.53851L66.4788 4.44887L69.0882 0Z" fill="#FFCB45"/>
<path d="M89.5588 0L92.1682 4.44887L97.2353 5.53851L93.7809 9.3777L94.3031 14.5L89.5588 12.4239L84.8145 14.5L85.3367 9.3777L81.8823 5.53851L86.9494 4.44887L89.5588 0Z" fill="#F2F2F2"/>
<path d="M84.8145 14.5L89.5588 12.4239V0L86.9494 4.44887L81.8823 5.53851L85.3367 9.3777L84.8145 14.5Z" fill="#FFCB45"/>
</svg>
