<svg width="29" height="20" viewBox="0 0 29 20" fill="none" xmlns="http://www.w3.org/2000/svg">
<path d="M11.4289 8.57133H7.28737L7.2888 8.55847C7.47534 7.64506 7.84043 6.77748 8.36312 6.00553C9.14093 4.85952 10.232 3.96141 11.5061 3.41831C11.9375 3.23545 12.3875 3.09544 12.8461 3.00258C13.7974 2.80971 14.7778 2.80971 15.7291 3.00258C17.0962 3.28272 18.3507 3.95892 19.3363 4.94693L21.3592 2.92972C20.4475 2.01775 19.3688 1.28973 18.182 0.78537C17.5767 0.529118 16.9474 0.333861 16.3034 0.202495C14.9745 -0.0674982 13.6049 -0.0674982 12.2761 0.202495C11.6316 0.334405 11.0018 0.530137 10.396 0.786798C8.61102 1.54411 7.08298 2.80128 5.9959 4.40691C5.26429 5.48959 4.75267 6.70554 4.49014 7.98559C4.45014 8.17846 4.42871 8.3756 4.40014 8.57133H0L5.71446 14.2858L11.4289 8.57133ZM17.1434 11.4286H21.2849L21.2835 11.44C20.9102 13.2711 19.8309 14.8816 18.2791 15.923C17.5074 16.4461 16.6398 16.8112 15.7262 16.9973C14.7754 17.1902 13.7955 17.1902 12.8447 16.9973C11.9313 16.8108 11.0637 16.4457 10.2917 15.923C9.91262 15.6665 9.55865 15.3747 9.23457 15.0515L7.21451 17.0716C8.12669 17.9833 9.20589 18.7109 10.3932 19.2145C10.9989 19.4717 11.6318 19.6674 12.2718 19.7974C13.6002 20.0675 14.9693 20.0675 16.2976 19.7974C18.8585 19.2659 21.1111 17.7565 22.5764 15.5901C23.3073 14.5083 23.8184 13.2933 24.0807 12.0143C24.1193 11.8214 24.1422 11.6243 24.1707 11.4286H28.5723L22.8579 5.71409L17.1434 11.4286Z" fill="#8D8D8D"/>
</svg>
