<svg width="18" height="18" viewBox="0 0 18 18" fill="none" xmlns="http://www.w3.org/2000/svg">
<path d="M16.2 16.2C16.2 17.199 15.399 18 14.4 18C13.9226 18 13.4648 17.8104 13.1272 17.4728C12.7896 17.1352 12.6 16.6774 12.6 16.2C12.6 15.201 13.401 14.4 14.4 14.4C14.8774 14.4 15.3352 14.5896 15.6728 14.9272C16.0104 15.2648 16.2 15.7226 16.2 16.2ZM5.4 14.4C4.401 14.4 3.6 15.201 3.6 16.2C3.6 16.6774 3.78964 17.1352 4.12721 17.4728C4.46477 17.8104 4.92261 18 5.4 18C6.399 18 7.2 17.199 7.2 16.2C7.2 15.201 6.399 14.4 5.4 14.4ZM5.58 11.367L5.553 11.475C5.553 11.601 5.652 11.7 5.778 11.7H16.2V13.5H5.4C4.92261 13.5 4.46477 13.3104 4.12721 12.9728C3.78964 12.6352 3.6 12.1774 3.6 11.7C3.6 11.385 3.681 11.088 3.816 10.836L5.04 8.631L1.8 1.8H0V0H2.943L3.789 1.8H17.1C17.595 1.8 18 2.205 18 2.7C18 2.853 17.955 3.006 17.892 3.15L14.67 8.973C14.364 9.522 13.77 9.9 13.095 9.9H6.39L5.58 11.367ZM6.75 8.1H8.1V6.3H5.904L6.75 8.1ZM9 6.3V8.1H11.7V6.3H9ZM11.7 5.4V3.6H9V5.4H11.7ZM14.499 6.3H12.6V8.1H13.5L14.499 6.3ZM16.002 3.6H12.6V5.4H15.003L16.002 3.6ZM4.626 3.6L5.472 5.4H8.1V3.6H4.626Z" fill="url(#paint0_linear_1_790)"/>
<defs>
<linearGradient id="paint0_linear_1_790" x1="9" y1="0" x2="9" y2="18" gradientUnits="userSpaceOnUse">
<stop offset="0.161458" stop-color="#4A67FF"/>
<stop offset="0.510417" stop-color="#8C2CED" stop-opacity="0.937746"/>
<stop offset="0.755208" stop-color="#FA22F1" stop-opacity="0.87"/>
</linearGradient>
</defs>
</svg>
