<svg width="14" height="13" viewBox="0 0 14 13" fill="none" xmlns="http://www.w3.org/2000/svg">
<path fill-rule="evenodd" clip-rule="evenodd" d="M4.42547 3.89218L6.23138 0.246052C6.26606 0.172703 6.32026 0.110752 6.3878 0.0672512C6.45533 0.0237507 6.5335 0.000449367 6.6134 0C6.76472 0 6.91604 0.0817366 6.9979 0.246052L8.8038 3.89218L12.8539 4.47866C12.9548 4.49483 13.0472 4.546 13.1154 4.62352C13.1837 4.70104 13.2236 4.80017 13.2284 4.9042C13.2341 4.97344 13.2244 5.04309 13.2001 5.108C13.1757 5.1729 13.1374 5.23141 13.0879 5.27917L10.1748 8.10709L10.8611 12.0928C10.9256 12.4661 10.5634 12.7585 10.2442 12.5916L6.6134 10.6906L2.98422 12.5916C2.94627 12.6117 2.90558 12.6259 2.8635 12.6338C2.58153 12.6843 2.31114 12.4197 2.36737 12.0928L3.05368 8.10709L0.141411 5.27917C0.0962856 5.23545 0.0604516 5.18275 0.0361294 5.12433C0.0118073 5.06592 -0.00048486 5.00304 1.46341e-05 4.93959C0.000226883 4.84993 0.0242266 4.762 0.0694725 4.68511C0.10205 4.62955 0.146454 4.58216 0.199407 4.54643C0.252359 4.5107 0.312509 4.48754 0.375418 4.47866L4.42547 3.89218ZM6.6134 9.71317C6.67955 9.71317 6.7457 9.72834 6.80523 9.76036L9.85311 11.3563L9.27926 8.02198C9.26574 7.94523 9.27097 7.86626 9.29447 7.79205C9.31798 7.71784 9.35904 7.65066 9.41404 7.59645L11.817 5.26232L8.46643 4.77696C8.39706 4.76628 8.33125 4.73862 8.27465 4.69636C8.21806 4.65409 8.17236 4.59848 8.14147 4.53427L6.61505 1.45188L6.6134 1.45441V9.71233V9.71317Z" fill="#FFC42C"/>
</svg>
