<svg width="37" height="24" viewBox="0 0 37 24" fill="none" xmlns="http://www.w3.org/2000/svg">
<path d="M33.8067 4.8H15.9667C15.1198 4.8 14.3076 4.54714 13.7087 4.09706C13.1098 3.64697 12.7734 3.03652 12.7734 2.4C12.7734 1.76348 13.1098 1.15303 13.7087 0.702944C14.3076 0.252857 15.1198 0 15.9667 0H33.8067C34.6536 0 35.4658 0.252857 36.0647 0.702944C36.6636 1.15303 37 1.76348 37 2.4C37 3.03652 36.6636 3.64697 36.0647 4.09706C35.4658 4.54714 34.6536 4.8 33.8067 4.8ZM33.8067 14.4H9.58004C8.73311 14.4 7.92087 14.1471 7.322 13.6971C6.72314 13.247 6.38669 12.6365 6.38669 12C6.38669 11.3635 6.72314 10.753 7.322 10.3029C7.92087 9.85286 8.73311 9.6 9.58004 9.6H33.8067C34.6536 9.6 35.4658 9.85286 36.0647 10.3029C36.6636 10.753 37 11.3635 37 12C37 12.6365 36.6636 13.247 36.0647 13.6971C35.4658 14.1471 34.6536 14.4 33.8067 14.4ZM33.8067 24H3.19335C2.34642 24 1.53418 23.7471 0.93531 23.2971C0.336441 22.847 0 22.2365 0 21.6C0 20.9635 0.336441 20.353 0.93531 19.9029C1.53418 19.4529 2.34642 19.2 3.19335 19.2H33.8067C34.6536 19.2 35.4658 19.4529 36.0647 19.9029C36.6636 20.353 37 20.9635 37 21.6C37 22.2365 36.6636 22.847 36.0647 23.2971C35.4658 23.7471 34.6536 24 33.8067 24Z" fill="url(#paint0_linear_1_1330)"/>
<defs>
<linearGradient id="paint0_linear_1_1330" x1="18.5" y1="0" x2="18.5" y2="24" gradientUnits="userSpaceOnUse">
<stop offset="0.161458" stop-color="#4A67FF"/>
<stop offset="0.510417" stop-color="#8C2CED" stop-opacity="0.937746"/>
<stop offset="0.755208" stop-color="#FA22F1" stop-opacity="0.87"/>
</linearGradient>
</defs>
</svg>
